<svg width="253" height="28" viewBox="0 0 253 28" fill="none" xmlns="http://www.w3.org/2000/svg">
<g clip-path="url(#clip0_103_22)">
<path d="M10.9195 1.71065C10.6863 1.25904 10.4805 0.944282 10.3296 0.752688C10.1787 0.57478 9.93179 0.437928 9.58884 0.328446C9.24589 0.218964 8.72461 0.164223 8.05243 0.164223V0H13.6768L23.1285 24.4692C23.5674 25.5914 24.0201 26.3851 24.4865 26.8368C24.9529 27.2884 25.5428 27.521 26.2424 27.521V27.6852H18.6427V27.521C19.2051 27.521 19.6167 27.4389 19.8636 27.261C20.1105 27.0831 20.234 26.8231 20.234 26.4809C20.234 26.1935 20.1517 25.8377 19.9733 25.3724L17.3395 18.3656C17.1611 17.9277 16.6124 17.4624 15.6796 16.9697C14.7468 16.477 13.6494 16.0665 12.401 15.738C11.139 15.4096 10.0004 15.259 8.95782 15.259C7.5723 15.259 6.63948 15.5738 6.15936 16.2033C5.48718 18.1466 4.97961 19.7478 4.65038 20.9795C4.30743 22.2248 4.14282 23.2923 4.14282 24.1681C4.14282 25.2903 4.47205 26.1251 5.11679 26.6862C5.76154 27.2336 6.84525 27.5073 8.36794 27.5073V27.6716H0V27.5073C0.672179 27.48 1.24833 27.2199 1.71474 26.7136C2.19487 26.2072 2.59269 25.5777 2.92192 24.8387C3.25115 24.0997 3.66269 23.0186 4.15654 21.609L4.44461 20.7331L4.08795 21.8006L10.9195 1.71065ZM6.43371 15.3959C7.14705 15.218 7.95641 15.1359 8.87551 15.1359C9.91807 15.1359 10.9058 15.2454 11.8386 15.4506C12.7714 15.6559 13.7317 15.9159 14.7331 16.2444C15.5836 16.5044 16.1049 16.6276 16.3244 16.6276C16.5438 16.6276 16.5987 16.5044 16.5164 16.2444L11.1801 2.27175L11.0429 1.87488L6.43371 15.3959Z" fill="#152F2B"/>
<path d="M35.8998 0C38.4102 0 40.7285 0.615836 42.8548 1.86119C44.9811 3.10655 46.6547 4.78983 47.903 6.89736C49.1514 9.01857 49.7687 11.3314 49.7687 13.8358C49.7687 16.3402 49.1514 18.653 47.903 20.7742C46.6547 22.8954 44.9674 24.565 42.8548 25.8104C40.7285 27.0557 38.4102 27.6716 35.8998 27.6716H33.6638H25.3096V27.5073C25.8446 27.5073 26.2561 27.4663 26.5305 27.3842C26.8048 27.3021 26.9969 27.0968 27.1341 26.7957C27.2712 26.4946 27.3261 26.0293 27.3261 25.3998V2.29912C27.2987 1.45064 27.1203 0.889541 26.7637 0.602151C26.407 0.314761 25.9269 0.164223 25.3233 0.164223V0H33.6775H35.8998ZM41.4419 25.4682C43.1155 24.1271 44.3912 22.3754 45.2417 20.2131C46.0923 18.0508 46.5312 15.7791 46.5312 13.3705C46.5312 11.0577 46.1334 8.89541 45.3515 6.88368C44.5558 4.87195 43.3761 3.2434 41.8123 2.01173C40.2484 0.766373 38.3416 0.150538 36.1056 0.150538H34.9396C33.5952 0.177908 32.635 0.232649 32.0451 0.328446C31.4552 0.424242 31.0711 0.615836 30.8791 0.889541C30.687 1.16325 30.591 1.62854 30.591 2.28543V25.3587C30.591 25.9883 30.687 26.4399 30.8791 26.741C31.0711 27.0283 31.4278 27.2199 31.9491 27.3294C32.4703 27.4252 33.3071 27.48 34.4869 27.5073H35.3923C37.738 27.4936 39.7546 26.8094 41.4419 25.4682Z" fill="#152F2B"/>
<path d="M65.1602 0H73.9672V0.164223C73.1166 0.164223 72.4582 0.533724 71.9643 1.27273C71.4842 2.01173 71.1275 3.18866 70.9081 4.80352C70.6886 6.41838 70.5788 8.6217 70.5788 11.3861V17.9003C70.5788 20.0626 70.085 21.8964 69.111 23.4291C68.137 24.9482 66.875 26.0978 65.3249 26.8641C63.7747 27.6305 62.156 28.0137 60.4687 28.0137C58.8637 28.0137 57.3273 27.6168 55.8732 26.8094C54.4054 26.0156 53.2256 24.9345 52.334 23.5797C51.4286 22.2248 50.9896 20.7605 50.9896 19.1867V2.29912C50.9896 1.65591 50.8936 1.17693 50.7153 0.875855C50.5369 0.57478 50.3037 0.383187 50.0156 0.28739C49.7276 0.205279 49.3435 0.164223 48.8496 0.164223V0H56.2847V0.164223C55.5714 0.191593 55.0501 0.328446 54.7483 0.588465C54.4328 0.848485 54.2682 1.42326 54.2408 2.29912V18.5298C54.2408 20.5005 54.5563 22.1427 55.201 23.4565C55.8458 24.7703 56.6963 25.7419 57.7663 26.3715C58.8363 27.001 60.016 27.3157 61.2918 27.3157C62.787 27.3157 64.2411 26.9189 65.6404 26.1388C67.0533 25.3451 68.1919 24.2366 69.0836 22.7996C69.9752 21.3627 70.4142 19.7204 70.4142 17.8866V11.3724C70.4142 8.47116 70.2633 6.24047 69.9752 4.66667C69.6872 3.09286 69.1522 1.9433 68.3977 1.23167C67.6432 0.520039 66.5595 0.164223 65.1465 0.164223V0H65.1602Z" fill="#152F2B"/>
<path d="M87.2599 27.521C88.6728 27.48 89.88 27.2063 90.8814 26.7273C91.8828 26.2483 92.7882 25.3587 93.5564 24.086C94.3383 22.8133 94.9968 21.0205 95.5318 18.7077H95.6964L93.6524 27.6852H74.6531V27.521C75.1744 27.521 75.5722 27.4663 75.8603 27.3705C76.1483 27.2747 76.3541 27.0694 76.4913 26.7546C76.6285 26.4399 76.6971 25.9746 76.6971 25.3451V2.29912C76.6696 1.43695 76.4913 0.86217 76.1621 0.602151C75.8328 0.328446 75.3253 0.191593 74.6531 0.164223V0H81.9922V0.164223C81.32 0.164223 80.8124 0.28739 80.4832 0.54741C80.1403 0.807429 79.9619 1.39589 79.9482 2.29912V25.3451C79.9482 25.9746 80.0168 26.4399 80.154 26.7546C80.2912 27.0694 80.5106 27.2747 80.785 27.3705C81.0731 27.4663 81.4709 27.521 81.9922 27.521H87.2599Z" fill="#152F2B"/>
<path d="M109.483 0L111.211 8.12903H111.047C110.429 5.4741 109.565 3.48974 108.44 2.14858C107.315 0.821114 105.765 0.150538 103.79 0.150538C103.035 0.150538 102.473 0.177908 102.116 0.246334C101.76 0.314761 101.472 0.506354 101.252 0.807429C101.033 1.12219 100.923 1.62854 100.923 2.31281V25.3861C100.95 26.2893 101.115 26.8778 101.444 27.1241C101.773 27.3705 102.281 27.4936 102.967 27.4936V27.6579H95.6277V27.4936C96.3136 27.4936 96.8349 27.3705 97.1504 27.1241C97.4659 26.8778 97.6442 26.303 97.6717 25.3861V2.34018C97.6717 1.62854 97.5482 1.12219 97.3013 0.821114C97.0544 0.520039 96.7388 0.342131 96.3547 0.273705C95.9706 0.205279 95.3808 0.177908 94.5851 0.177908C92.6097 0.177908 91.0596 0.848485 89.9347 2.17595C88.8236 3.48974 87.9594 5.4741 87.3558 8.12903H87.1912L88.9196 0H109.483Z" fill="#152F2B"/>
<path d="M123.804 2.29912C123.777 1.43695 123.599 0.86217 123.242 0.588465C122.885 0.301075 122.392 0.164223 121.76 0.164223V0H129.429H134.793C136.137 0 137.289 0.301075 138.263 0.916911C139.237 1.53275 139.978 2.34018 140.485 3.35288C140.993 4.35191 141.254 5.41936 141.254 6.54155C141.254 8.11535 140.774 9.51124 139.827 10.7155C138.867 11.9198 137.522 12.6588 135.767 12.9189C137.152 13.0968 138.332 13.5347 139.292 14.26C140.252 14.9853 140.979 15.8612 141.446 16.9013C141.912 17.9414 142.159 19.0362 142.159 20.2131C142.159 21.4858 141.871 22.7038 141.295 23.8397C140.719 24.9893 139.882 25.9062 138.757 26.6041C137.632 27.3021 136.315 27.6579 134.779 27.6579H129.388H121.76V27.4936C122.501 27.4936 123.023 27.3431 123.338 27.042C123.654 26.741 123.804 26.1799 123.804 25.3588V2.29912ZM127.056 25.3724C127.056 26.1662 127.371 26.7273 127.988 27.0284C128.606 27.3294 129.539 27.4937 130.801 27.521H134.793C135.876 27.521 136.713 26.8231 137.317 25.4409C137.907 24.0587 138.208 22.3891 138.208 20.4457C138.208 18.4614 137.907 16.7234 137.303 15.2454C136.699 13.7674 135.863 13.0283 134.806 13.0283C133.791 13.0283 132.707 13.1515 131.569 13.3979C130.43 13.6442 129.456 14.0137 128.661 14.479V13.8631C129.182 13.6031 130.142 13.3705 131.569 13.1652C132.995 12.9599 134.065 12.8504 134.806 12.8504C135.89 12.8504 136.727 12.2346 137.303 11.0029C137.879 9.77126 138.181 8.30694 138.181 6.59629C138.181 4.84458 137.879 3.3392 137.275 2.05279C136.672 0.766373 135.821 0.136852 134.738 0.136852H132.2C130.444 0.136852 129.154 0.273705 128.318 0.54741C127.481 0.821114 127.069 1.39589 127.069 2.28544V25.3724H127.056Z" fill="#152F2B"/>
<path d="M162.462 18.694L160.418 27.6716H141.679V27.5073C142.2 27.5073 142.598 27.4526 142.886 27.3568C143.174 27.261 143.38 27.0557 143.517 26.741C143.654 26.4262 143.723 25.9609 143.723 25.3314V2.29912C143.695 1.39589 143.517 0.807429 143.188 0.54741C142.859 0.28739 142.351 0.164223 141.679 0.164223V0H159.444L161.488 9.10068H161.323C160.692 6.37732 159.759 4.20137 158.525 2.58651C157.29 0.971652 155.699 0.150538 153.751 0.150538H149.004C148.332 0.150538 147.825 0.273705 147.495 0.533724C147.152 0.793744 146.974 1.38221 146.96 2.28543V13.6989H150.5C152.379 13.6989 153.806 13.5073 154.766 13.1378C155.726 12.7546 156.385 12.1388 156.728 11.2903C157.07 10.4418 157.249 9.19648 157.249 7.58162H157.413L157.441 13.8084L157.509 20.0352H157.345C157.304 18.4614 157.153 17.2571 156.892 16.4223C156.632 15.5875 156.179 14.9853 155.507 14.6022C154.848 14.219 153.874 13.9863 152.598 13.8768H146.947V25.3451C146.947 26.2483 147.098 26.8368 147.386 27.1105C147.674 27.3842 148.181 27.521 148.895 27.521H152.983C155.232 27.4389 157.153 26.7683 158.744 25.523C160.335 24.2776 161.515 22.0059 162.27 18.7077H162.462V18.694Z" fill="#152F2B"/>
<path d="M172.27 1.71065C172.037 1.25904 171.831 0.944282 171.68 0.752688C171.529 0.57478 171.282 0.424242 170.939 0.314761C170.596 0.205279 170.089 0.150538 169.416 0.150538V0H175.041L184.493 24.4692C184.931 25.5914 185.384 26.3851 185.851 26.8368C186.317 27.2884 186.907 27.521 187.606 27.521V27.6852H180.007V27.521C180.569 27.521 180.981 27.4389 181.228 27.261C181.475 27.0831 181.598 26.8231 181.598 26.4809C181.598 26.1935 181.516 25.8377 181.337 25.3724L178.704 18.3656C178.525 17.9277 177.976 17.4624 177.044 16.9697C176.111 16.477 175.013 16.0665 173.765 15.738C172.503 15.4096 171.364 15.259 170.322 15.259C168.936 15.259 168.004 15.5738 167.523 16.2033C166.851 18.1466 166.344 19.7478 166.014 20.9795C165.671 22.2248 165.507 23.2923 165.507 24.1681C165.507 25.2903 165.836 26.1251 166.481 26.6862C167.126 27.2336 168.209 27.5073 169.732 27.5073V27.6716H161.35V27.5073C162.023 27.48 162.599 27.2199 163.065 26.7136C163.545 26.2072 163.943 25.5777 164.272 24.8387C164.601 24.0997 165.013 23.0186 165.507 21.609L165.795 20.7331L165.438 21.8006L172.27 1.71065ZM167.784 15.3959C168.497 15.218 169.307 15.1359 170.226 15.1359C171.268 15.1359 172.256 15.2454 173.189 15.4506C174.122 15.6559 175.082 15.9159 176.083 16.2444C176.934 16.5044 177.455 16.6276 177.675 16.6276C177.894 16.6276 177.949 16.5044 177.867 16.2444L172.544 2.27175L172.421 1.88856L167.784 15.3959Z" fill="#152F2B"/>
<path d="M198.622 0H207.429V0.164223C206.579 0.164223 205.92 0.533724 205.426 1.27273C204.946 2.01173 204.589 3.18866 204.37 4.80352C204.15 6.41838 204.041 8.6217 204.041 11.3861V17.9003C204.041 20.0626 203.547 21.8964 202.573 23.4291C201.599 24.9482 200.337 26.0978 198.787 26.8641C197.237 27.6305 195.618 28.0137 193.931 28.0137C192.326 28.0137 190.789 27.6168 189.335 26.8094C187.867 26.0156 186.688 24.9345 185.796 23.5797C184.891 22.2248 184.452 20.7605 184.452 19.1867V2.29912C184.452 1.65591 184.355 1.17693 184.177 0.875855C183.999 0.57478 183.766 0.383187 183.478 0.28739C183.189 0.205279 182.805 0.164223 182.312 0.164223V0H189.747V0.164223C189.033 0.191593 188.512 0.328446 188.21 0.588465C187.895 0.848485 187.73 1.42326 187.703 2.29912V18.5298C187.703 20.5005 188.018 22.1427 188.663 23.4565C189.308 24.7703 190.158 25.7419 191.228 26.3715C192.298 27.001 193.478 27.3157 194.754 27.3157C196.249 27.3157 197.703 26.9189 199.102 26.1388C200.515 25.3451 201.654 24.2366 202.545 22.7996C203.437 21.3627 203.876 19.7204 203.876 17.8866V11.3724C203.876 8.47116 203.725 6.24047 203.437 4.66667C203.149 3.09286 202.614 1.9433 201.86 1.23167C201.105 0.520039 200.021 0.164223 198.608 0.164223V0H198.622Z" fill="#152F2B"/>
<path d="M229.186 0L230.914 8.12903H230.75C230.146 5.4741 229.282 3.47605 228.157 2.14858C227.032 0.821114 225.482 0.150538 223.506 0.150538C222.752 0.150538 222.19 0.177908 221.833 0.246334C221.476 0.314761 221.188 0.506354 220.969 0.807429C220.749 1.12219 220.639 1.62854 220.639 2.31281V25.3861C220.667 26.2893 220.831 26.8778 221.161 27.1241C221.49 27.3705 221.997 27.4936 222.683 27.4936V27.6579H215.344V27.4936C216.03 27.4936 216.551 27.3705 216.867 27.1241C217.182 26.8778 217.361 26.303 217.388 25.3861V2.34018C217.388 1.62854 217.265 1.12219 217.018 0.821114C216.771 0.520039 216.455 0.342131 216.071 0.273705C215.687 0.205279 215.097 0.177908 214.302 0.177908C212.326 0.177908 210.776 0.848485 209.651 2.17595C208.526 3.50342 207.662 5.50147 207.059 8.1564H206.894L208.622 0H229.186Z" fill="#152F2B"/>
<path d="M253 0.164223C251.724 0.191593 250.627 0.725318 249.721 1.7654C248.816 2.81916 247.842 4.58456 246.799 7.10264L243.192 15.8475C243.15 15.9707 243.123 16.1349 243.123 16.2991V25.3998C243.123 26.0293 243.192 26.4946 243.329 26.7957C243.466 27.0968 243.685 27.2884 243.96 27.3842C244.234 27.4663 244.646 27.5073 245.167 27.5073V27.6716H237.787V27.5073C238.473 27.5073 238.994 27.3842 239.323 27.1241C239.652 26.8641 239.831 26.2893 239.858 25.3998V16.6549L233.068 2.29912C232.739 1.61486 232.341 1.08113 231.861 0.711632C231.38 0.342131 230.777 0.164223 230.036 0.164223V0H238.678V0.164223C237.101 0.164223 236.305 0.54741 236.305 1.32747C236.305 1.58749 236.401 1.91593 236.593 2.29912L242.931 15.7791H243L246.868 6.44575C247.307 5.39198 247.513 4.39296 247.513 3.46237C247.513 1.25904 246.182 0.150538 243.521 0.150538V0H252.588H252.973V0.164223H253Z" fill="#152F2B"/>
</g>
<defs>
<clipPath id="clip0_103_22">
<rect width="253" height="28" fill="white"/>
</clipPath>
</defs>
</svg>
