<svg width="174" height="47" viewBox="0 0 174 47" fill="none" xmlns="http://www.w3.org/2000/svg">
<g clip-path="url(#clip0_44_2058)">
<path d="M41.1035 33.1935C40.2833 36.0948 38.9163 38.595 36.9855 40.6855C35.0546 42.7761 32.8247 44.3462 30.3129 45.3873C27.7925 46.4283 25.2636 46.9573 22.709 46.9573C18.4885 46.9573 14.6438 45.9163 11.1666 43.8257C7.68929 41.7266 4.96386 38.9021 2.98173 35.3439C0.991064 31.7856 0 27.9201 0 23.7389C0 19.4895 1.01669 15.5899 3.05863 12.0316C5.10056 8.47331 7.85162 5.66594 11.3289 3.60948C14.8061 1.55301 18.5995 0.529049 22.709 0.529049C24.6912 0.529049 26.7673 0.810639 28.9288 1.38235C30.9878 1.87727 32.7051 2.12473 34.0892 2.12473C36.396 2.12473 37.8655 1.41649 38.5062 0H38.9334C39.54 5.70007 40.0868 10.5724 40.5823 14.6086H40.3688C39.9757 11.7415 38.942 9.26688 37.2589 7.20189C35.5758 5.12836 33.4655 3.55828 30.928 2.47458C28.3906 1.39089 25.6651 0.853304 22.7603 0.853304C20.8807 0.853304 18.984 1.10076 17.0702 1.59568C12.713 2.73057 9.53472 4.86383 7.55259 7.99546C5.57046 11.1271 4.57085 14.8219 4.57085 19.0714C4.57085 22.331 5.11765 25.7783 6.21978 29.4305C7.95414 35.0623 10.4574 39.252 13.7211 41.9911C16.9848 44.7387 20.5304 46.104 24.358 46.104C26.8014 46.104 29.1509 45.5664 31.4065 44.4828C33.6534 43.3991 35.6185 41.8887 37.2845 39.9432C38.9505 37.9976 40.1381 35.7449 40.8472 33.2021H41.1035V33.1935Z" fill="white"/>
<path d="M54.295 18.0047C55.3202 17.7914 56.3369 17.689 57.3279 17.689C59.5578 17.689 61.651 18.1753 63.599 19.1481C65.5469 20.1209 67.1959 21.4947 68.5458 23.261C69.8957 25.0359 70.8184 27.0497 71.3139 29.3195C71.5275 30.3093 71.63 31.3162 71.63 32.3487C71.63 34.5417 71.1516 36.6494 70.1947 38.6717C69.2378 40.694 67.905 42.4092 66.2048 43.8257C64.5046 45.2422 62.5567 46.1808 60.3524 46.6416C59.3272 46.8549 58.3105 46.9573 57.3194 46.9573C55.0895 46.9573 52.9963 46.4624 51.0484 45.4726C49.1004 44.4827 47.4515 43.1004 46.1016 41.3255C44.7517 39.5592 43.829 37.5368 43.3335 35.267C43.1199 34.2089 43.0173 33.1423 43.0173 32.0842C43.0173 29.8912 43.4787 27.8006 44.4014 25.821C45.3241 23.8413 46.6313 22.1688 48.34 20.8035C50.0402 19.4297 52.0223 18.4996 54.295 18.0047ZM60.3524 46.3685C62.4456 45.8736 64.0176 44.6363 65.0856 42.6481C66.145 40.6684 66.6833 38.2963 66.6833 35.5316C66.6833 32.8436 66.2134 30.1387 65.2735 27.4337C64.3337 24.7287 63.018 22.4931 61.3349 20.7438C59.6518 18.9945 57.7808 18.1156 55.7217 18.1156C55.2262 18.1156 54.7478 18.1668 54.2864 18.2777C52.1932 18.7385 50.6297 19.9673 49.5789 21.9726C48.5365 23.9693 48.0068 26.3927 48.0068 29.2256C48.0068 31.9562 48.4682 34.6612 49.3909 37.3491C50.3136 40.037 51.5866 42.2556 53.2185 43.9878C54.8503 45.72 56.6957 46.5904 58.7462 46.5904C59.1136 46.5818 59.6433 46.5051 60.3524 46.3685Z" fill="white"/>
<path d="M94.3902 42.597C94.3902 43.9452 94.6294 44.8753 95.1078 45.3873C95.5863 45.8993 96.4663 46.1553 97.7393 46.1553V46.4198H86.2566V46.1553C87.111 46.1553 87.7261 46.0529 88.1191 45.8395C88.5121 45.6262 88.7685 45.2764 88.8881 44.7729C89.0162 44.278 89.076 43.5527 89.076 42.597V26.8791C89.076 23.9779 88.6916 21.8702 87.9312 20.5561C87.1708 19.2506 86.043 18.5935 84.5564 18.5935C83.1382 18.5935 81.2586 19.1994 78.9176 20.4025V42.6055C78.9176 44.0561 79.1825 45.0118 79.7122 45.4726C80.2419 45.9334 81.0963 46.1638 82.2667 46.1638V46.4283H70.092V46.1638C71.2625 46.1638 72.1169 45.9419 72.6466 45.4982C73.1763 45.0545 73.4412 44.0903 73.4412 42.6055V22.5699C73.4412 21.4692 73.1421 20.9231 72.5355 20.9231C72.2536 20.9231 71.8349 21.0425 71.2882 21.2729C70.7414 21.5033 70.3398 21.6569 70.092 21.7252V21.4606L78.9176 17.7402V19.9162C82.2838 18.4655 85.1374 17.7402 87.4784 17.7402C92.0834 17.7402 94.3902 20.5903 94.3902 26.2903V42.597Z" fill="white"/>
<path d="M109.76 40.8476C106.428 44.9179 103.728 46.9573 101.678 46.9573C100.26 46.9573 99.2345 46.0869 98.5937 44.3547C97.9529 42.6225 97.6368 40.3356 97.6368 37.5027V18.0046H95.0823V17.7401H97.6368V11.5281L102.951 9.24121V17.7401H106.727V18.0046H102.951V37.7586L102.9 40.3612C102.9 41.7777 103.002 42.8955 103.216 43.7062C103.429 44.5253 103.84 44.9264 104.438 44.9264C105.54 44.9264 107.257 43.4928 109.598 40.6257L109.76 40.8476Z" fill="white"/>
<path d="M132.623 39.6787C132.016 41.9058 131.213 43.6807 130.205 44.9862C129.197 46.3003 128.232 46.9488 127.309 46.9488C126.566 46.9488 125.95 46.4966 125.472 45.5921C124.993 44.6876 124.737 43.3564 124.703 41.5815C124.139 43.0663 123.31 44.2609 122.234 45.1654C121.149 46.0699 119.585 46.6416 117.526 46.8891C116.817 46.9573 116.288 46.9915 115.929 46.9915C114.228 46.9915 112.742 46.6843 111.486 46.0614C110.23 45.4385 109.256 44.6108 108.564 43.5612C107.872 42.5202 107.53 41.3597 107.53 40.0797C107.53 38.2366 108.265 36.4446 109.735 34.6868C111.204 32.9376 113.408 31.4699 116.356 30.3094C118.834 29.3195 120.858 28.2188 122.422 27.0156C123.985 25.8125 124.78 24.6776 124.814 23.6195C124.78 21.9555 124.156 20.6329 122.952 19.6601C121.747 18.6874 120.346 18.201 118.748 18.201C117.227 18.201 115.912 18.6447 114.809 19.5321C113.707 20.4196 113.161 21.6739 113.161 23.3038C113.161 24.9677 113.818 26.8791 115.126 29.038L109.06 26.0087C109.342 24.3107 110.051 22.8344 111.187 21.5715C112.323 20.3172 113.716 19.3615 115.365 18.7044C117.014 18.0474 118.722 17.7231 120.5 17.7231C122.234 17.7231 123.84 18.0559 125.31 18.73C126.779 19.4042 127.967 20.4196 128.872 21.7849C129.778 23.1502 130.231 24.8226 130.231 26.8023V39.4995C130.231 40.8136 130.256 41.7863 130.308 42.4178C130.359 43.0577 130.479 43.3735 130.649 43.3735C130.931 43.3735 131.504 42.1362 132.35 39.6531H132.623V39.6787ZM123.669 43.1516C124.498 41.8205 124.917 40.0968 124.917 37.9721V24.3192C124.917 24.8482 124.37 25.693 123.268 26.845C122.166 27.9969 119.79 29.294 116.142 30.7531C114.903 31.248 113.972 32.0928 113.348 33.2789C112.725 34.465 112.417 35.8217 112.417 37.3406C112.417 38.7571 112.682 40.148 113.212 41.5133C113.742 42.8786 114.485 43.9793 115.442 44.8326C116.399 45.6859 117.484 46.104 118.688 46.104C119.15 46.104 119.679 46.0187 120.286 45.8395C121.704 45.3787 122.832 44.4828 123.669 43.1516Z" fill="white"/>
<path d="M132.734 32.3488C132.734 29.6182 133.349 27.1437 134.571 24.9165C135.793 22.6894 137.484 20.9316 139.646 19.6602C141.807 18.3888 144.277 17.7488 147.036 17.7488C148.489 17.7488 149.89 17.9109 151.24 18.2266C152.444 18.5082 153.47 18.6533 154.324 18.6533C155.887 18.6533 156.878 18.1754 157.306 17.2197H157.622L158.681 26.5634H158.416C157.741 23.8755 156.366 21.7764 154.298 20.266C152.222 18.7642 149.839 18.0048 147.147 18.0048C145.832 18.0048 144.593 18.184 143.422 18.5338C139.526 19.6687 137.57 22.8003 137.57 27.9372C137.57 29.038 137.655 30.2411 137.835 31.5467C138.262 34.7722 139.056 37.4601 140.227 39.619C141.397 41.7778 142.773 43.365 144.345 44.3719C145.926 45.3788 147.566 45.8822 149.266 45.8822C151.325 45.8822 153.205 45.1825 154.905 43.7831C156.605 42.3837 157.776 40.5149 158.416 38.1769H158.681C158.117 40.9075 156.699 43.0492 154.426 44.6023C152.154 46.1638 149.591 46.9403 146.72 46.9403C144.2 46.9403 141.876 46.2833 139.723 44.9777C137.578 43.6722 135.878 41.8973 134.614 39.6702C133.358 37.443 132.734 35.0026 132.734 32.3488Z" fill="white"/>
<path d="M174 40.8476C170.668 44.9179 167.968 46.9573 165.918 46.9573C164.499 46.9573 163.474 46.0869 162.833 44.3547C162.193 42.6225 161.877 40.3356 161.877 37.5027V18.0046H159.322V17.7401H161.877V11.5281L167.191 9.24121V17.7401H170.967V18.0046H167.191V37.7586L167.139 40.3612C167.139 41.7777 167.242 42.8955 167.456 43.7062C167.669 44.5253 168.079 44.9264 168.677 44.9264C169.779 44.9264 171.497 43.4928 173.838 40.6257L174 40.8476Z" fill="white"/>
</g>
<defs>
<clipPath id="clip0_44_2058">
<rect width="174" height="47" fill="white"/>
</clipPath>
</defs>
</svg>
