<svg xmlns="http://www.w3.org/2000/svg" xmlns:xlink="http://www.w3.org/1999/xlink" version="1.1" style="shape-rendering:geometricPrecision; text-rendering:geometricPrecision; image-rendering:optimizeQuality; fill-rule:evenodd; clip-rule:evenodd" viewBox="221.26 135.34 564.51 836.2">
<g><path style="opacity:0.999" fill="#fea922" d="M 565.5,135.5 C 574.86,134.922 584.027,135.922 593,138.5C 594.663,140.328 596.496,141.995 598.5,143.5C 602.945,138.947 608.279,137.447 614.5,139C 619.435,140.638 624.435,141.971 629.5,143C 635.165,144.688 639.665,147.855 643,152.5C 644.007,159.592 643.174,166.426 640.5,173C 653.476,180.146 665.476,188.646 676.5,198.5C 688.23,214.859 694.063,233.192 694,253.5C 684.355,260.742 673.855,266.576 662.5,271C 648.094,276.468 633.261,280.302 618,282.5C 616.564,282.441 615.231,282.108 614,281.5C 610.884,275.434 607.384,269.601 603.5,264C 609.287,252.258 614.954,240.425 620.5,228.5C 619.333,228.167 618.167,227.833 617,227.5C 604.194,228.964 591.361,230.131 578.5,231C 577.584,231.374 576.75,231.874 576,232.5C 569.488,245.398 562.988,258.231 556.5,271C 570.102,269.929 583.769,269.429 597.5,269.5C 599.867,274.562 602.534,279.562 605.5,284.5C 605.023,285.478 604.357,286.311 603.5,287C 575.251,295.845 549.084,308.678 525,325.5C 520.612,323.053 518.612,319.387 519,314.5C 523.73,304.708 528.73,295.041 534,285.5C 534.49,284.207 534.657,282.873 534.5,281.5C 520.234,283.548 505.9,285.048 491.5,286C 483.883,298.728 476.883,311.895 470.5,325.5C 471.333,325.833 472.167,326.167 473,326.5C 485.485,325.12 497.985,324.287 510.5,324C 511.667,325.833 513.167,327.333 515,328.5C 515.982,329.759 516.315,331.092 516,332.5C 479.572,360.601 444.072,389.767 409.5,420C 394.051,433.533 378.384,446.867 362.5,460C 343.609,474.794 324.276,489.128 304.5,503C 283.932,522.407 265.265,543.574 248.5,566.5C 246.833,567.833 245.167,567.833 243.5,566.5C 224.521,533.33 217.687,497.663 223,459.5C 226.907,442.539 233.24,426.539 242,411.5C 253.266,392.631 264.266,373.631 275,354.5C 282.214,333.434 288.547,312.101 294,290.5C 295.275,283.851 296.442,277.184 297.5,270.5C 296.527,264.133 295.36,257.8 294,251.5C 288.869,234.646 284.203,217.646 280,200.5C 278.738,196.091 279.572,192.257 282.5,189C 305.322,175.098 329.989,165.932 356.5,161.5C 363.889,160.775 369.055,163.775 372,170.5C 378.76,194.118 387.094,217.118 397,239.5C 399.966,244.798 403.966,249.132 409,252.5C 431.691,239.465 445.858,220.132 451.5,194.5C 450.003,185.867 449.17,177.2 449,168.5C 450.293,163.539 453.126,159.705 457.5,157C 462.135,154.347 466.801,151.681 471.5,149C 476.613,147.277 481.613,145.277 486.5,143C 491.744,141.352 497.077,140.685 502.5,141C 505.698,141.848 508.531,143.348 511,145.5C 516.421,152.58 521.421,159.914 526,167.5C 535.413,159.762 544.58,151.595 553.5,143C 557.093,139.711 561.093,137.211 565.5,135.5 Z"/></g>
<g><path style="opacity:0.991" fill="#fea923" d="M 600.5,236.5 C 602.5,236.5 604.5,236.5 606.5,236.5C 606.657,237.873 606.49,239.207 606,240.5C 602.041,246.918 598.207,253.418 594.5,260C 586.208,261.433 577.875,262.099 569.5,262C 568.978,261.439 568.645,260.772 568.5,260C 571.92,253.157 575.587,246.49 579.5,240C 586.734,239.393 593.734,238.226 600.5,236.5 Z"/></g>
<g><path style="opacity:0.998" fill="#feaa24" d="M 517.5,290.5 C 520.244,291.072 521.077,292.738 520,295.5C 516.041,301.918 512.207,308.418 508.5,315C 500.201,316.246 491.868,317.079 483.5,317.5C 483.523,315.073 484.023,312.74 485,310.5C 487.457,305.133 490.29,299.967 493.5,295C 501.756,294.143 509.756,292.643 517.5,290.5 Z"/></g>
<g><path style="opacity:0.999" fill="#ffa922" d="M 608.5,298.5 C 611.97,297.875 614.804,298.875 617,301.5C 622.667,310.5 628.333,319.5 634,328.5C 634.749,329.635 634.583,330.635 633.5,331.5C 607.6,342.2 582.766,354.866 559,369.5C 550.349,359.842 542.016,349.842 534,339.5C 533.405,338.101 533.572,336.768 534.5,335.5C 549.13,326.037 564.13,317.203 579.5,309C 589.426,305.945 599.093,302.445 608.5,298.5 Z"/></g>
<g><path style="opacity:0.998" fill="#fea922" d="M 691.5,271.5 C 698.921,271.109 706.254,271.609 713.5,273C 730.832,283.79 741.666,299.29 746,319.5C 746.667,331.5 746.667,343.5 746,355.5C 743.777,357.723 742.444,360.389 742,363.5C 738.672,366.658 735.172,369.658 731.5,372.5C 718.327,380.251 705.327,388.251 692.5,396.5C 690.971,396.471 689.804,395.804 689,394.5C 684.716,386.653 679.883,379.153 674.5,372C 675.5,371 676.5,370 677.5,369C 699.451,359.691 720.451,348.691 740.5,336C 741.059,335.275 741.392,334.442 741.5,333.5C 740.78,328.863 740.28,324.197 740,319.5C 727.456,328.529 714.29,336.696 700.5,344C 669.309,359.239 638.642,375.239 608.5,392C 600.494,398.008 592.494,404.008 584.5,410C 576.973,416.194 570.14,423.027 564,430.5C 535.04,468.491 516.207,511.158 507.5,558.5C 512.459,558.735 517.292,558.735 522,558.5C 528.631,530.607 537.631,503.607 549,477.5C 556.845,461.591 566.678,447.091 578.5,434C 597.475,416.354 618.142,401.021 640.5,388C 646.708,384.482 653.042,381.149 659.5,378C 661.754,376.85 664.087,376.516 666.5,377C 671.333,383.833 676.167,390.667 681,397.5C 682.59,399.65 683.257,401.983 683,404.5C 650.671,426.831 623.004,453.831 600,485.5C 583.219,512.168 572.553,541.168 568,572.5C 570.787,575.124 573.954,577.124 577.5,578.5C 578.086,578.291 578.586,577.957 579,577.5C 587.646,523.267 612.813,478.601 654.5,443.5C 654.833,444.167 655.167,444.833 655.5,445.5C 651.746,459.446 651.579,473.446 655,487.5C 662.287,510.909 674.787,531.076 692.5,548C 705.261,558.442 718.261,568.442 731.5,578C 743.793,588.419 754.627,600.253 764,613.5C 773.688,628.899 779.188,645.733 780.5,664C 777.346,716.425 768.846,767.925 755,818.5C 741.363,859.446 721.196,896.779 694.5,930.5C 681.297,946.531 665.297,959.031 646.5,968C 634.711,971.281 622.711,972.281 610.5,971C 593.893,969.923 577.56,967.256 561.5,963C 516.243,950.704 473.91,931.871 434.5,906.5C 407.746,888.453 382.079,868.953 357.5,848C 340.003,831.832 323.836,814.332 309,795.5C 298.657,780.139 288.324,764.806 278,749.5C 256.681,708.839 248.681,665.506 254,619.5C 256.15,608.569 257.816,597.569 259,586.5C 263.433,573.634 269.433,561.634 277,550.5C 283.714,542.241 290.548,534.074 297.5,526C 317.239,509.599 337.572,493.932 358.5,479C 387.564,455.334 415.897,431.001 443.5,406C 470.008,384.5 496.842,363.333 524,342.5C 525.656,343.765 527.323,345.099 529,346.5C 535.848,356.011 542.681,365.511 549.5,375C 532.795,387.365 517.295,401.199 503,416.5C 480.079,444.815 463.079,476.482 452,511.5C 446.859,530.73 442.026,550.064 437.5,569.5C 437.833,570.167 438.167,570.833 438.5,571.5C 442.613,569.109 446.946,567.276 451.5,566C 452.701,565.097 453.535,563.931 454,562.5C 460.692,515.365 477.692,472.698 505,434.5C 513.154,424.476 521.987,414.976 531.5,406C 553.187,388.342 576.52,373.008 601.5,360C 634.579,346.255 667.246,331.588 699.5,316C 710.374,309.791 720.708,302.791 730.5,295C 728.959,292.084 727.293,289.251 725.5,286.5C 724.635,285.417 723.635,285.251 722.5,286C 711.43,293.736 700.097,301.069 688.5,308C 675.167,314 661.833,320 648.5,326C 646.421,326.808 644.421,326.641 642.5,325.5C 637.251,316.248 631.584,307.248 625.5,298.5C 624.572,297.232 624.405,295.899 625,294.5C 636.645,291.919 648.145,288.752 659.5,285C 669.829,279.668 680.496,275.168 691.5,271.5 Z M 490.5,560.5 C 495.544,560.173 500.544,560.506 505.5,561.5C 495.916,603.253 490.749,645.587 490,688.5C 488.957,731.2 489.457,773.867 491.5,816.5C 486.464,816.412 481.464,815.912 476.5,815C 465.956,812.941 455.79,809.775 446,805.5C 444.574,800.948 443.574,796.281 443,791.5C 441.298,773.035 440.132,754.535 439.5,736C 440.887,680.518 445.721,625.351 454,570.5C 454.5,568.667 455.667,567.5 457.5,567C 462.565,565.971 467.565,564.638 472.5,563C 478.689,562.483 484.689,561.65 490.5,560.5 Z M 523.5,562.5 C 537.129,564.128 550.129,567.961 562.5,574C 563.728,574.779 564.728,575.779 565.5,577C 553.708,653.424 549.708,730.258 553.5,807.5C 539.312,812.712 524.646,815.712 509.5,816.5C 506.244,753.453 507.078,690.453 512,627.5C 514.776,605.606 518.61,583.94 523.5,562.5 Z M 433.5,577.5 C 434.043,577.56 434.376,577.893 434.5,578.5C 425.375,640.479 421.542,702.812 423,765.5C 423.853,774.721 424.686,783.888 425.5,793C 425.167,793.167 424.833,793.333 424.5,793.5C 375.691,757.264 358.858,709.264 374,649.5C 385.298,618.375 405.132,594.375 433.5,577.5 Z M 580.5,585.5 C 605.454,602.325 622.287,625.325 631,654.5C 642.865,706.562 629.032,750.396 589.5,786C 583.859,790.98 577.692,795.146 571,798.5C 569.376,775.884 569.042,753.217 570,730.5C 572.575,682.087 576.075,633.753 580.5,585.5 Z"/></g>
<g><path style="opacity:0.999" fill="#fea923" d="M 746.5,377.5 C 754.238,377.144 761.905,377.644 769.5,379C 774.144,381.641 777.311,385.475 779,390.5C 781.7,413.432 783.033,436.432 783,459.5C 781.891,463.719 780.225,467.719 778,471.5C 765.736,484.224 762.07,499.224 767,516.5C 782.772,549.76 788.605,584.76 784.5,621.5C 783.178,621.67 782.011,621.337 781,620.5C 778.414,615.213 775.747,609.879 773,604.5C 765.555,594.152 757.055,584.652 747.5,576C 726.153,561.014 706.487,544.18 688.5,525.5C 671.719,505.654 664.219,482.654 666,456.5C 669.331,440.674 677.164,427.507 689.5,417C 691.112,416.28 692.612,416.446 694,417.5C 695.333,419.5 696.667,421.5 698,423.5C 698.667,425.167 698.667,426.833 698,428.5C 691.787,438.422 685.954,448.589 680.5,459C 695.408,459.823 710.241,459.657 725,458.5C 732.2,445.313 739.367,432.147 746.5,419C 733.504,419.359 720.504,419.692 707.5,420C 704.063,416.896 701.396,413.229 699.5,409C 701.833,406.667 704.167,404.333 706.5,402C 720.138,394.029 733.471,385.863 746.5,377.5 Z"/></g>
<g><path style="opacity:0.996" fill="#feaa26" d="M 729.5,426.5 C 730.5,426.5 731.5,426.5 732.5,426.5C 732.66,428.199 732.494,429.866 732,431.5C 727.926,437.307 724.093,443.307 720.5,449.5C 711.92,451.366 703.253,451.866 694.5,451C 694.043,450.586 693.709,450.086 693.5,449.5C 697.626,442.749 701.626,435.915 705.5,429C 713.71,428.758 721.71,427.925 729.5,426.5 Z"/></g>
</svg>