<?xml version="1.0" encoding="utf-8"?>
<!-- Generator: Adobe Illustrator 16.0.0, SVG Export Plug-In . SVG Version: 6.00 Build 0)  -->
<!DOCTYPE svg PUBLIC "-//W3C//DTD SVG 1.1//EN" "http://www.w3.org/Graphics/SVG/1.1/DTD/svg11.dtd">
<svg version="1.1" id="圖層_1" xmlns="http://www.w3.org/2000/svg" xmlns:xlink="http://www.w3.org/1999/xlink" x="0px" y="0px"
	 width="606.794px" height="612.996px" viewBox="0 0 606.794 612.996" enable-background="new 0 0 606.794 612.996"
	 xml:space="preserve">
<g>
	<path fill="#EBEBEB" d="M57.629,502c16.568,0,30,13.431,30,30v16.616c0,16.569-13.432,30-30,30H40.966c-16.568,0-30-13.431-30-30
		V532c0-16.569,13.432-30,30-30H57.629z M51.835,572.845c16.568,0,30-13.433,30-30v-5.054c0-16.568-13.432-30-30-30H46.76
		c-16.568,0-30,13.432-30,30v5.054c0,16.567,13.432,30,30,30H51.835z"/>
	<path fill="#455A64" d="M102,394h125c27.614,0,50,22.386,50,50v92c0,27.613-22.386,50-50,50H102c-27.614,0-50-22.387-50-50v-92
		C52,416.386,74.386,394,102,394z"/>
	<path fill="#263238" d="M233.509,592.281H108.725c-0.525-4.762,18.587-106.141,41.044-138.717
		c2.547-3.692,24.362-6.394,32.372,2.819C224.585,505.09,234.54,591.115,233.509,592.281z"/>
	<path fill="#EB9481" d="M146.813,461.98c-3.538,9.174-16.895,41.341-24.167,64.412c-4.88,15.491-6.727,28.494-7.797,31.895
		c0,0,36.845-11.837,45.147-11.855c12.774-0.039,33.267,26.646,28.25,29.99c-7.893,5.248-45.574,23.129-75.671,28.745
		c-16.352,3.053-47.169-17.726-44.739-34.246c3.422-23.188,45.322-84.295,61.265-101.633
		C137.403,460.288,151.13,450.804,146.813,461.98z"/>
	<path fill="#263238" d="M65.601,575.819c0.778,16.695,21.679,30.768,33.792,31.506c20.901,1.264,83.605-16.987,83.605-16.987
		l-24.382-46.938c0,0-42.677,14.48-43.746,14.888v-0.019c0.369-1.244,10.888-40.739,15.593-53.839
		c0.253-0.719,0.544-1.458,0.817-2.235c1.361-3.635,3.208-8.416,5.249-13.586l0.02-0.039c1.127-2.856,2.333-5.85,3.519-8.804v-0.021
		c5.152-12.789,10.169-24.975,10.169-24.975c-7.175,1.185-14.272,4.956-25.918,17.181
		C112.711,484.138,64.337,548.277,65.601,575.819z"/>
	<path fill="#37474F" d="M166.762,580.172c-1.73-3.323-3.5-6.627-5.25-9.951c-1.711-3.246-3.441-6.492-5.191-9.718
		c-1.808-3.344-3.694-6.687-5.172-10.186c-0.019-0.058,0.059-0.116,0.117-0.058c2.197,2.896,4.005,6.084,5.794,9.231
		c1.866,3.266,3.694,6.55,5.483,9.835c1.769,3.227,3.461,6.492,5.152,9.758c1.731,3.361,3.461,6.86,4.705,10.437
		c0.059,0.136-0.155,0.292-0.233,0.136C170.145,586.645,168.415,583.379,166.762,580.172z"/>
	<path fill="#37474F" d="M101.823,565.205l13.026-6.898l0.02-0.021v-0.019c0.369-1.244,10.888-40.739,15.593-53.839
		c0.253-0.719,0.545-1.457,0.817-2.235c1.361-3.634,3.208-8.416,5.249-13.586L101.823,565.205z"/>
	<path fill="#37474F" d="M91.032,570.94c3.617-2.702,7.524-5.112,11.452-7.347c1.963-1.108,3.966-2.139,6.027-3.052
		c2.197-0.972,4.511-1.69,6.688-2.662c0.175-0.078,0.292,0.175,0.117,0.253c-2.041,0.913-3.966,2.195-5.93,3.265
		c-2.042,1.108-4.083,2.196-6.163,3.265c-4.064,2.08-8.05,4.296-12.094,6.435C91.051,571.154,90.954,570.997,91.032,570.94z"/>
	<path fill="#EB9481" d="M100.52,560.814c3.266,0.039,23.02-5.229,25.898-2.527c17.518,16.521,23.059,13.197,26.792,15.335
		c28.873,16.6,67.428,36.113,81.194,36.249c20.882,0.176,29.184-17.337,25.723-33.896c-6.864-32.711-50.979-96.481-70.947-113.43
		c-10.597-8.979-9.741,4.567-5.367,19.261c2.567,8.63,7.058,21.458,11.647,34.033c4.063,11.215,14.815,39.863,14.99,40.524v0.02
		c0.02,0.039,0.039,0.059,0.039,0.078c0.02,0.077-0.058,0.097-0.233,0.038c-0.914-0.175-25.607-11.798-50.435-18.191
		c-8.749-2.255-26.968-5.462-33.5-2.547c-3.889,1.729-3.947,4.043-3.947,4.043s-3.111-0.291-6.397,2.43
		c-2.178,1.788-2.858,4.334-2.858,4.334s-3.403,0.486-5.172,2.449c-2.119,2.352-2.294,4.84-2.294,4.84
		C101.006,555.138,100.52,560.814,100.52,560.814z"/>
	<path fill="#263238" d="M129.684,539.161c2.625,0.039,5.211,0.429,7.797,0.875c0.175,0.038,0.175,0.312-0.019,0.291
		c-2.548-0.271-5.114-0.33-7.661-0.428c-2.547-0.077-5.114-0.136-7.661-0.097c-0.019,0-0.019-0.02,0-0.02
		C124.668,539.356,127.118,539.122,129.684,539.161z"/>
	<path fill="#263238" d="M113.158,546.449c4.53-1.243,8.127-1.924,13.804-1.224c0.175,0.019,0.175,0.292-0.019,0.292
		c-5.386-0.331-8.905,0.213-13.785,1.03C113.119,546.567,113.119,546.47,113.158,546.449z"/>
	<path fill="#263238" d="M105.653,553.759c4.53-1.866,8.03-2.449,13.046-2.449c0.175,0,0.233,0.252,0.058,0.271
		c-4.821,0.467-8.36,1.146-13.046,2.371C105.614,553.991,105.556,553.797,105.653,553.759z"/>
	<path fill="#263238" d="M161.007,538.637c2.177,0.292,4.336,0.914,6.455,1.438c2.255,0.564,4.511,1.167,6.727,1.905
		c4.433,1.458,8.73,3.207,12.988,5.151c0.156,0.078,0.078,0.33-0.097,0.271c-4.317-1.516-8.691-2.935-13.066-4.314
		c-2.158-0.681-4.277-1.399-6.416-2.1c-2.197-0.719-4.491-1.263-6.65-2.08C160.812,538.851,160.851,538.617,161.007,538.637z"/>
	<path fill="#263238" d="M178.272,543.321c-4.569-1.555-6.63-1.555-6.63-1.555l-25.976,43.848c0,0,71.55,25.753,86.249,27.25
		c14.699,1.517,31.401-10.067,31.692-28.494c0.389-25.907-41.88-88.162-63.15-112.224c-9.741-11.04-21.115-19.048-24.012-17.24
		c-3.422,2.139,2.799,15.996,6.066,26.355c6.047,19.105,27.725,75.276,27.725,75.276S183.716,545.168,178.272,543.321z"/>
	<path fill="#37474F" d="M171.875,541.727c4.025,0.234,21.465,6.298,30.001,9.971c8.516,3.654,16.701,7.988,24.401,13.178
		c4.355,2.936,8.477,6.122,12.56,9.428c0.136,0.116-0.02,0.33-0.156,0.232c-7.505-5.364-15.535-10.165-23.662-14.558
		c-8.088-4.373-16.312-8.513-24.887-11.856c-4.88-1.904-13.26-4.742-18.043-6.006C170.748,541.785,171.759,541.707,171.875,541.727z
		"/>
	<path fill="#37474F" d="M189.044,503.38c1.088,1.749,2.197,3.498,3.13,5.363c0.039,0.078,0.078,0.176,0.136,0.253
		c-1.38-4.218-2.703-8.436-3.966-12.673c-0.078-0.252,0.35-0.408,0.447-0.154c6.144,15.567,11.86,31.331,17.382,47.112
		c1.555,4.412,2.916,8.883,4.316,13.333c0.058,0.156-0.194,0.234-0.272,0.078c-1.692-3.829-3.383-7.619-4.939-11.524
		c-1.555-3.889-2.974-7.833-4.433-11.76c-2.547-6.86-4.957-13.761-7.291-20.699c-0.738-1.205-1.477-2.431-2.158-3.654
		c-1.011-1.809-1.827-3.693-2.663-5.578C188.635,503.321,188.927,503.185,189.044,503.38z"/>
	<path fill="#37474F" d="M163.068,576.071c1.905-3.226,3.772-6.472,5.677-9.718c1.867-3.168,3.694-6.355,5.522-9.543
		c1.886-3.304,3.713-6.667,5.93-9.757c0.039-0.059,0.136-0.02,0.117,0.058c-1.303,3.382-3.053,6.609-4.764,9.796
		c-1.789,3.305-3.616,6.589-5.444,9.854c-1.808,3.207-3.675,6.375-5.561,9.523c-1.944,3.246-3.985,6.57-6.377,9.504
		c-0.097,0.117-0.311,0.021-0.253-0.136C159.374,582.368,161.24,579.161,163.068,576.071z"/>
	<path fill="#37474F" d="M144.636,585.712c2.158-4.258,5.502-8.416,7.991-12.459c0.097-0.156,0.33,0,0.233,0.154
		c-2.255,3.79-4.316,7.872-6.474,11.74c9.818,4.063,20.259,7.677,30.292,11.215c10.285,3.654,20.648,7.094,31.128,10.126
		c5.872,1.691,11.743,3.519,17.654,5.073c0.369,0.097,0.272,0.408-0.117,0.33c-10.615-2.002-21.037-5.073-31.322-8.319
		c-10.48-3.322-20.824-7.035-31.128-10.884C157.079,590.512,144.461,586.061,144.636,585.712z"/>
	<path fill="#EB9481" d="M161.668,538.656c13.513,3.46,29.067,9.155,36.028,11.876c0.194,0.059,0.35,0.137,0.525,0.194
		c6.144,2.41,9.935,4.199,10.849,4.354c0.078-0.038,0.136-0.097,0.194-0.116v-0.02c0.642-0.466,1.264-0.815,1.906-1.049
		c1.73-0.622,18.354-2.702,17.945-7.854c-0.408-5.092-7.174-4.78-8.185-4.702c1.069-0.234,10.11-2.353,7.155-6.861
		c-2.08-3.188-11.005-2.721-11.919-2.683c0.914-0.291,9.197-2.993,6.358-7.6c-2.041-3.285-12.015-2.856-13.163-2.663
		c0.934-0.35,8.322-1.594,4.881-5.559c-2.392-2.76-21.174,0.039-29.534,4.218C172.264,526.392,161.668,538.656,161.668,538.656z"/>
	<path fill="#263238" d="M197.696,550.551c0.194,0.059,0.35,0.136,0.525,0.194c2.877-2.234,13.804-8.008,22.359-9.115
		c0.525-0.078,0.564-0.369,0-0.351C210.003,541.746,200.496,547.986,197.696,550.551z"/>
	<path fill="#263238" d="M215.758,532.145c-11.84,2.352-17.187,4.956-27.356,11.429c-0.136,0.098-0.311-0.117-0.175-0.214
		c9.488-7.094,15.379-10.612,27.415-11.506C216.205,531.795,216.303,532.029,215.758,532.145z"/>
	<path fill="#263238" d="M208.992,521.785c-11.355,3.013-17.343,5.637-26.481,13.022c-0.214,0.175-0.486-0.097-0.272-0.291
		c8.613-8.358,16.059-11.662,26.656-13.063C209.595,521.378,209.692,521.591,208.992,521.785z"/>
	<path fill="#EB9481" d="M152.141,476.266c6.727,2.41,19.773-6.783,25.431-14.811c0.389-0.545,0.195-6.842,0.311-14.479
		c0.097-4.646,0.311-9.796,0.836-14.5l-30.292,3.81c0,0,1.789,10.185,0.797,18.367c-0.097,0.68-0.233,1.322-0.427,1.905
		c-0.02,0.077-0.059,0.194-0.078,0.311C147.727,460.464,145.647,473.934,152.141,476.266z"/>
	<path fill="#263238" d="M148.719,456.868c-0.059,0.194-0.117,0.408-0.156,0.66c18.14-0.758,25.023-8.746,29.495-16.384
		c0.136-2.916,0.331-5.87,0.661-8.669l-30.292,3.81c0,0,1.789,10.185,0.797,18.367c-0.077,0.68-0.233,1.302-0.427,1.905
		C148.777,456.635,148.758,456.752,148.719,456.868z"/>
	<path fill="#EB9481" d="M191.143,400.717c1.653,10.864-8.282,40.117-16.662,45.733c-12.171,8.124-29.865,6.473-36.222-7.639
		c-6.164-13.683,7.446-51.564,16.604-56.423C168.356,375.197,188.713,384.662,191.143,400.717z"/>
	<path fill="#263238" d="M163.126,413.876c0.039-0.078,0.117,0.136,0.097,0.232c-0.719,1.943-1.225,4.315,0.35,5.56
		c0.039,0.037,0.02,0.136-0.058,0.097C161.454,418.715,162.135,415.605,163.126,413.876z"/>
	<path fill="#263238" d="M165.595,412.398c3.247,0.817,1.381,7.271-1.633,6.512C160.987,418.152,162.854,411.718,165.595,412.398z"
		/>
	<path fill="#263238" d="M150.974,410.201c0-0.078-0.175,0.059-0.214,0.137c-0.525,2.021-1.458,4.236-3.441,4.373
		c-0.058,0-0.078,0.097-0.02,0.116C149.613,415.157,150.819,412.203,150.974,410.201z"/>
	<path fill="#263238" d="M149.808,407.598c-3.15-1.187-5.269,5.188-2.353,6.277C150.313,414.964,152.432,408.589,149.808,407.598z"
		/>
	<path fill="#263238" d="M168.998,410.183c-0.817-0.486-1.478-1.05-2.236-1.614c-0.856-0.622-1.595-1.03-1.983-2.079
		c-0.195-0.563,0.175-1.341,0.7-1.594c1.225-0.583,2.449-0.058,3.519,0.641c1.147,0.778,1.827,1.652,2.236,2.975
		C171.603,409.832,170.067,410.823,168.998,410.183z"/>
	<path fill="#263238" d="M148.252,403.633c0.933,0.115,1.828,0.058,2.761,0.077c1.05,0.02,1.906,0.136,2.819-0.447
		c0.506-0.312,0.681-1.166,0.409-1.691c-0.623-1.185-1.906-1.535-3.189-1.612c-1.38-0.078-2.469,0.214-3.597,1.011
		C146.386,401.746,147.027,403.477,148.252,403.633z"/>
	<path fill="#263238" d="M158.518,432.379c-0.622,0.33-1.283,0.836-2.022,0.68c-0.719-0.136-1.439-0.7-2.003-1.127
		c-0.058-0.039-0.136,0-0.116,0.078c0.291,0.913,1.244,1.71,2.216,1.827c0.953,0.097,1.633-0.546,2.081-1.304
		C158.751,432.418,158.596,432.34,158.518,432.379z"/>
	<path fill="#263238" d="M158.149,425.789c-1.614,1.399-3.539,1.886-5.425,1.711c-0.836-0.077-1.691-0.291-2.489-0.603
		c-0.155-0.058-0.311-0.117-0.447-0.195c-0.136-0.058-0.272-0.115-0.408-0.193c-0.214-0.098-0.292-0.33-0.272-0.564v-0.019
		c0.019-0.078,0.039-0.137,0.077-0.194c0,0,0,0,0-0.02l0.059-0.176c0.408-1.555,1.244-3.848,1.244-3.848
		c-0.641,0.117-3.888,0.564-3.597-0.214c2.333-6.53,4.919-13.8,8.633-19.805c0.117-0.215,0.428-0.06,0.35,0.154
		c-2.003,6.375-5.094,12.342-7.194,18.717c1.011-0.077,2.703-0.29,3.5-0.038c0.194,0.136-1.692,4.411-1.808,5.111
		c0,0,0,0.039,0,0.078c2.488,1.088,4.666,0.874,7.679-0.136C158.207,425.479,158.324,425.673,158.149,425.789z"/>
	<path opacity="0.2" fill="#263238" enable-background="new    " d="M187.955,421.32c-1.711-1.399-3.889-8.591-4.88-11.564
		c-1.05-3.091,2.061-15.607,3.072-19.319c2.566,2.896,4.355,6.413,4.996,10.398C191.863,405.363,190.443,413.39,187.955,421.32z"/>
	<path fill="#263238" d="M159.315,394.031c1.459,3.129,4.394,5.384,7.855,5.792c3.364,0.408,7.194-0.894,9.255-3.692
		c0.058-0.077,0.195,0.02,0.136,0.097c-2.197,2.974-5.677,4.937-9.469,4.393c-3.538-0.505-6.766-3.129-7.991-6.491
		C159.024,393.973,159.238,393.876,159.315,394.031z"/>
	<path fill="#263238" d="M176.114,373.137c5.541,1.729,9.78,6.277,10.732,10.671c0.584,2.663,0.078,5.053-0.972,7.327
		c-0.039,0.098-0.233,0.02-0.194-0.077c1.4-3.693,0.778-8.514-2.508-12.323c-3.169-3.654-8.088-5.909-13.046-5.5
		c-2.586,0.213-4.9,1.146-6.397,2.682c-0.175,0.176-0.545-0.077-0.389-0.253C165.829,372.593,171.098,371.563,176.114,373.137z"/>
	<path fill="#263238" d="M140.222,375.916c1.673-2.487,4.258-4.296,7.136-5.111c4.025-1.127,7.816,0.291,11.549,1.788
		c0.097,0.039,0.039,0.193-0.058,0.154c-3.169-1.263-6.475-2.351-9.916-1.671c-2.819,0.544-5.464,2.061-7.291,4.276
		c-3.772,4.626-3.519,11.759,0.68,16.035c2.372,2.41,5.775,3.79,9.158,3.673c0.136,0,0.175,0.195,0.039,0.214
		c-6.241,0.369-12.152-4.12-13.144-10.359C137.87,381.824,138.492,378.521,140.222,375.916z"/>
	<path fill="#263238" d="M191.202,406.937c0,0,8.127-8.494,5.327-15.53c-1.594-3.983-10.052-5.908-10.052-5.908
		s-1.341-5.559-7.797-9.076c-6.532-3.576-15.982-1.827-15.982-1.827s-5.56-5.656-12.774-3.868
		c-10.052,2.507-12.696,15.996-5.171,22.682c5.269,4.704,15.107,1.633,15.107,1.633c0.777,0.33,7.563,7.58,15.807,2.021
		c0,0,3.772,5.889,9.157,4.024C184.863,401.087,185.855,406.257,191.202,406.937z"/>
	<path fill="#EB9481" d="M181.111,424.255c0,0,8.399-8.553,12.385-5.404c3.986,3.149-3.461,16.346-8.944,17.396
		c-5.483,1.05-6.552-4.004-6.552-4.004L181.111,424.255z"/>
	<path fill="#263238" d="M191.28,422.582c0.077,0,0.077,0.117,0,0.137c-3.87,0.854-6.339,3.887-8.264,7.152
		c1.303-1.167,2.897-1.651,4.472-0.059c0.078,0.078-0.039,0.214-0.136,0.175c-1.439-0.563-2.547-0.485-3.752,0.525
		c-0.856,0.719-1.517,1.71-2.178,2.585c-0.233,0.292-0.778,0.019-0.603-0.33c0.02-0.021,0.02-0.059,0.039-0.078
		C181.558,428.082,186.244,422.214,191.28,422.582z"/>
	<path fill="#EBEBEB" d="M148.816,456.227l6.436,17.823l22.553-21.264l5.872,7.328c0,0-22.573,34.306-22.651,32.711l-6.63-15.315
		l-10.791,10.067l1.847-26.258L148.816,456.227z"/>
	<path fill="#263238" d="M143.819,474.517c0.447-4.335,0.778-8.688,1.439-13.003c0.019-0.156,0.272-0.214,0.292-0.039
		c0.7,4.218-1.089,20.758-1.225,24.723c0.019-0.02,0.039-0.039,0.039-0.039c0.447-0.428,9.974-8.843,10.071-8.707
		c1.478,2.449,6.338,13.605,6.669,14.616c3.577-5.441,17.207-25.229,21.387-30.36c0.117-0.154,0.35-0.019,0.253,0.156
		c-3.189,5.772-21.251,32.419-21.523,32.342c-0.175,0.137-6.242-13.625-6.922-16.19c-1.633,1.847-11.296,11.39-11.296,10.729
		C142.944,484.429,143.372,478.851,143.819,474.517z"/>
	<path fill="#FFC727" d="M342,305h130c27.614,0,50,22.386,50,50v88c0,27.613-22.386,50-50,50H342c-27.614,0-50-22.387-50-50v-88
		C292,327.386,314.386,305,342,305z"/>
	<path fill="#A6A6A6" d="M547.533,326.821c16.567,0,30,13.432,30,30v61.749c0,16.568-13.433,29.999-30,29.999h-61.791
		c-16.568,0-30-13.431-30-30v-61.748c0-16.568,13.432-30,30-30H547.533z M538.336,439.396c16.569,0,30-13.432,30-30v-43.362
		c0-16.568-13.431-30-30-30h-43.396c-16.569,0-30,13.432-30,30v43.362c0,16.568,13.431,30,30,30H538.336z"/>
	<path fill="#263238" d="M370.311,322.719c-6.027-1.438-21.68,2.663-27.006,10.65c-5.329,7.989-5.095,21.069-2.432,22.392
		c2.664,1.321,14.213,0.505,22.186-3.732C371.029,347.791,373.285,323.438,370.311,322.719z"/>
	<path fill="#263238" d="M370.329,322.758c0.194-0.039,0.233-0.369,0-0.39c-5.288-0.213-11.004,1.479-16.079,2.858
		c-4.083,1.107-8.302,2.449-11.627,5.17c-3.344,2.721-5.113,6.355-5.327,10.651c-0.234,4.664,0.33,10.319,2.565,14.499
		c0.06,0.116,0.293,0.097,0.254-0.078c-2.314-8.863-4.278-19.669,4.588-25.559C352.229,324.935,361.755,324.488,370.329,322.758z"/>
	<path fill="#263238" d="M341.787,353.487c-5.308,0.604-19.229,10.457-21.679,20.486c-2.469,10.029,5.483,25.034,8.05,26.142
		c2.586,1.127,14.426-8.357,18.354-15.374c2.625-4.704,0.7-10.243-0.369-15.763C344.548,360.854,342.604,353.39,341.787,353.487z"/>
	<path fill="#263238" d="M349.701,383.535c1.73-10.224-3.928-20.467-7.271-29.796c-0.039-0.097-0.195-0.058-0.176,0.039
		c1.809,8.921,7.038,16.987,7.038,26.278c0,5.519-2.002,10.903-6.61,14.207c-3.986,2.877-8.964,4.14-13.552,5.676
		c-0.311,0.097-0.117,0.544,0.194,0.466C338.482,397.588,347.912,394.09,349.701,383.535z"/>
	<path fill="#263238" d="M340.621,354.42c0.271-0.116,0.097-0.544-0.176-0.428c-7.583,3.44-16.72,8.514-20.881,16.073
		c-4.491,8.183-0.253,16.91,3.519,24.412c0.039,0.098,0.195,0.039,0.156-0.058c-3.714-7.619-7.622-17.084-2.528-25.054
		C325.086,362.506,333.466,357.782,340.621,354.42z"/>
	<path fill="#263238" d="M328.761,399.862c3.324,2.177,7.854,8.708,8.302,15.899c0.777,12.284,5.58,10.379,18.451,14.927
		c10.889,3.848,11.996,16.579,5.405,22.138c0,0,4.239-7.347-2.897-11.876c-8.535-5.422-30.039,1.944-39.001-11.797
		C307.451,411.367,328.761,399.862,328.761,399.862z"/>
	<path fill="#263238" d="M332.941,405.926c-0.136-0.175,0.175-0.408,0.311-0.233c1.361,1.71,2.43,3.558,3.091,5.617
		c0.875,2.682,0.642,5.442,1.322,8.144c1.731,6.881,9.761,7.444,15.517,8.454c7.719,1.343,13.492,6.726,13.143,14.966
		c0,0.117-0.194,0.117-0.194,0c0.116-5.131-2.489-10.087-7.058-12.574c-4.355-2.371-9.586-1.886-14.193-3.498
		c-3.15-1.108-6.222-2.799-7.408-6.104c-0.642-1.808-0.642-3.81-0.894-5.676C336.168,411.581,334.963,408.743,332.941,405.926z"/>
	<path fill="#263238" d="M326.583,401.125c0.078-0.059,0.175,0.077,0.097,0.136c-4.841,3.907-9.955,7.794-11.88,14.033
		c-2.06,6.706,0.778,13.917,5.736,18.601c5.561,5.248,12.249,3.673,19.112,3.051c4.957-0.447,9.994-0.523,14.602,1.614
		c0.136,0.058,0.039,0.291-0.117,0.252c-7.504-2.565-14.796-0.991-22.476-0.525c-6.28,0.37-10.907-2.273-14.407-7.463
		C309.551,419.337,316.142,407.811,326.583,401.125z"/>
	<path fill="#FFC727" d="M365.76,317.121c-1.652-2.157-4.977,0.447-3.324,2.604C364.088,321.884,367.413,319.279,365.76,317.121z"/>
	<path fill="#FFC727" d="M367.335,320.698c-1.653-2.157-4.978,0.447-3.325,2.604C365.663,325.479,368.988,322.875,367.335,320.698z"
		/>
	<path fill="#FFC727" d="M369.532,324.002c-1.653-2.157-4.978,0.446-3.325,2.604C367.859,328.764,371.186,326.179,369.532,324.002z"
		/>
	<path fill="#FFC727" d="M372.079,326.898c-1.652-2.157-4.978,0.447-3.324,2.605C370.407,331.68,373.732,329.074,372.079,326.898z"
		/>
	<path fill="#FFC727" d="M375.15,329.386c-1.651-2.157-4.977,0.446-3.323,2.604C373.479,334.148,376.805,331.543,375.15,329.386z"/>
	<path fill="#FFC727" d="M378.477,331.194c-1.653-2.158-4.978,0.447-3.326,2.604C376.805,335.955,380.129,333.351,378.477,331.194z"
		/>
	<path fill="#AD6359" d="M381.665,370.377c9.118,11.215,57.938,46.608,99.12,45.947c13.998-0.233,52.884-59.941,60.078-82.643
		c5.152-16.307-29.476-24.548-39.275-22.177c-12.21,2.935-36.027,54.169-40.732,54.499c-13.979,0.972-38.011-7.464-67.525-10.438
		C378.204,353.992,374.626,361.728,381.665,370.377z"/>
	<path fill="#AD6359" d="M539.521,337.413c2.605-5.676,14.836-37.2,15.826-45.325c0.992-8.124,2.158-31.7-3.985-33.08
		c-6.144-1.4-7.038,5.48-7.038,5.48s-1.089-10.028-7.408-10.864s-7.349,9.912-7.349,9.912s-1.867-10.224-8.225-10.612
		s-5.581,10.593-5.581,10.593s-1.263-9.427-6.648-7.541c-6.455,2.274-2.158,19.378-3.908,28.26
		c-0.408,2.021-11.044,40.291-11.044,40.291L539.521,337.413z"/>
	<path fill="#263238" d="M515.704,262.564c3.13,12.596,2.333,18.641-1.672,30.769c-0.078,0.232,0.253,0.407,0.369,0.175
		c4.997-11.526,7.115-18.97,1.905-31.118C516.054,261.787,515.568,261.962,515.704,262.564z"/>
	<path fill="#263238" d="M529.295,262.526c2.119,13.353,1.302,19.922-1.964,32.944c-0.039,0.175,0.253,0.272,0.33,0.097
		c4.258-12.497,6.203-19.979,2.334-33.041C529.82,261.923,529.197,261.904,529.295,262.526z"/>
	<path fill="#263238" d="M544.13,265.149c1.108,13.081,0.525,20.331-4.258,32.556c-0.117,0.292,0.291,0.486,0.447,0.195
		c6.085-11.992,6.883-21.03,4.219-32.751C544.343,264.353,544.052,264.314,544.13,265.149z"/>
	<path fill="#AD6359" d="M485.529,330.454c0,0-1.81-16.15-1.031-23.421c0.778-7.269,13.63-33.313,19.424-30.863
		c7.466,3.168,3.013,19.669-0.234,27.463c0,0,17.285,7.328,16.644,19.844C519.69,336.014,485.529,330.454,485.529,330.454z"/>
	<path fill="#263238" d="M505.691,277.724c4.725,7.814-0.194,17.765-2.762,25.559c-0.193,0.583,0.215,0.952,0.7,1.012
		c7.038,3.557,15.943,10.611,17.11,18.853c0.039,0.233,0.389,0.233,0.389-0.02c-0.059-8.999-8.225-16.656-16.177-20.059
		c2.761-7.948,7.252-18.152,0.855-25.402C505.71,277.627,505.652,277.666,505.691,277.724z"/>
	<path fill="#EBEBEB" d="M440.013,362.001L423.02,401.34c0,0-25.703-12.227-41.336-28.027
		c-15.632-15.822,1.731-21.089,16.877-18.795C413.707,356.811,440.013,362.001,440.013,362.001z"/>
	<path fill="#C7C7C7" d="M381.684,373.312c15.633,15.802,41.336,28.027,41.336,28.027l5.173-11.953l-51.777-30.01
		C374.51,362.525,375.561,367.112,381.684,373.312z"/>
	<path fill="#263238" d="M416.604,395.82c8.38-15.783,13.338-30.729,14.68-33.761c0.058-0.136-0.175-0.233-0.233-0.078
		c-1.167,3.052-9.235,19.747-14.719,33.741C416.273,395.897,416.506,395.975,416.604,395.82z"/>
	<path fill="#EBEBEB" d="M420.628,439.668l6.98,53.216H316.2c0,0,14.738-99.806,38.536-130.438
		c11.898-15.335,27.843-14.927,39.119-3.207c2.449,2.547,27.356,38.096,31.73,52.771
		C429.417,424.974,420.628,439.668,420.628,439.668z"/>
	<path fill="#263238" d="M388.197,364.566l7.039,18.873c2.332,6.297,4.568,12.614,6.688,18.95c1.983,6.375,4.375,12.73,3.422,19.242
		c-0.699,6.472-3.091,12.866-6.318,18.542l-0.155,0.271l0.039,0.272c0.972,8.455,2.099,16.89,3.149,25.345
		c1.069,8.455,2.217,16.89,3.402,25.325c-0.72-8.493-1.479-16.967-2.314-25.442c-0.854-8.474-1.633-16.948-2.565-25.403
		l-0.117,0.545c3.441-5.929,5.949-12.361,6.806-19.223c0.408-3.4,0.155-6.997-0.739-10.301c-0.855-3.304-1.886-6.511-2.976-9.699
		c-2.158-6.375-4.705-12.613-7.252-18.813C393.758,376.79,391.018,370.649,388.197,364.566z"/>
	<path fill="#263238" d="M403.732,389.133c0.136,0.894-0.408,1.769-1.226,1.925c-0.815,0.155-1.594-0.447-1.729-1.342
		c-0.137-0.895,0.408-1.769,1.225-1.925C402.818,387.637,403.596,388.239,403.732,389.133z"/>
	<path fill="#263238" d="M410.499,407.52c0.136,0.894-0.409,1.769-1.226,1.924c-0.816,0.156-1.594-0.447-1.73-1.341
		c-0.136-0.894,0.409-1.769,1.225-1.924C409.564,406.004,410.343,406.607,410.499,407.52z"/>
	<path fill="#263238" d="M411.335,426.257c0.136,0.894-0.409,1.768-1.226,1.924c-0.816,0.155-1.594-0.447-1.73-1.341
		c-0.136-0.895,0.409-1.77,1.225-1.926C410.421,424.74,411.199,425.343,411.335,426.257z"/>
	<path fill="#263238" d="M406.124,441.767c0.136,0.894-0.408,1.769-1.226,1.924c-0.816,0.155-1.594-0.447-1.729-1.341
		c-0.137-0.895,0.408-1.77,1.226-1.924C405.21,440.251,405.988,440.853,406.124,441.767z"/>
	<path fill="#263238" d="M408.165,458.696c0.137,0.895-0.408,1.769-1.224,1.924c-0.817,0.155-1.596-0.446-1.731-1.341
		c-0.136-0.894,0.408-1.769,1.226-1.924C407.252,457.18,408.01,457.781,408.165,458.696z"/>
	<path fill="#263238" d="M410.014,475.41c0.135,0.895-0.41,1.77-1.226,1.925c-0.817,0.155-1.595-0.447-1.731-1.342
		c-0.136-0.894,0.409-1.769,1.226-1.924C409.079,473.913,409.857,474.517,410.014,475.41z"/>
	<path fill="#AD6359" d="M387.672,551.173c-5.599,3.81-15.048-12.983-18.275-16.579c-3.209-3.615-4.588-3.498-4.414-0.738
		l-7.311-29.019c3.791,2.935,11.821,9.271,16.1,13.41C379.506,523.825,393.291,547.364,387.672,551.173z"/>
	<path fill="#AD6359" d="M345.676,366.703c-23.798,19.185-53.799,52.926-59.904,74.732c-4.725,16.832,18.957,75.316,26.015,88.96
		c3.072,5.948,43.824-12.167,45.632-19.086c1.789-6.939-26.617-57.298-26.909-62.644c-0.291-5.345,18.297-40.642,30.973-64.509
		C376.805,355.237,365.916,350.397,345.676,366.703z"/>
	<path fill="#AD6359" d="M383.688,567.829c-3.754,4.082-11.355-0.854-11.355-0.854s6.747,8.338,1.479,11.584
		c-5.309,3.246-12.502-3.887-12.502-3.887s5.793,8.007,0.291,10.863c-5.521,2.858-12.619-3.361-12.619-3.361s0.39,3.07-4.412,3.343
		c-6.883,0.389-16.702-10.769-20.454-17.784c-3.753-7.036-12.288-35.607-13.513-40l44.991-24.451c0,0,0.797,0.604,2.08,1.595
		l7.311,29.018c0.117,1.808,5.27,12.945,7.136,16.132C376.357,557.237,387.886,563.242,383.688,567.829z"/>
	<path fill="#263238" d="M372.1,566.567c-10.092-7.639-13.184-12.73-17.558-24.393c-0.078-0.233-0.446-0.155-0.37,0.097
		c3.247,11.818,6.203,18.756,17.596,24.801C372.313,567.363,372.585,566.916,372.1,566.567z"/>
	<path fill="#263238" d="M361.813,574.905c-9.778-8.844-13.182-14.344-18.664-26.22c-0.078-0.175-0.369-0.058-0.312,0.117
		c4.414,12.108,7.524,18.95,18.451,26.511C361.773,575.662,362.261,575.293,361.813,574.905z"/>
	<path fill="#263238" d="M348.941,581.98c-8.846-9.252-12.851-15.102-16.682-27.328c-0.097-0.291-0.525-0.175-0.447,0.117
		c2.703,12.828,7.641,20.175,16.837,27.444C349.253,582.718,349.506,582.563,348.941,581.98z"/>
	<path fill="#EBEBEB" d="M350.128,419.2l-34.336-25.636c0,0,17.848-22.177,36.844-33.703c19.015-11.545,20.124,6.57,14.388,20.758
		C361.288,394.827,350.128,419.2,350.128,419.2z"/>
	<path fill="#263238" d="M322.655,388.608c13.416,11.818,26.812,20.098,29.457,22.099c0.117,0.099,0.271-0.115,0.136-0.213
		c-2.702-1.827-17.071-13.566-29.436-22.118C322.655,388.278,322.519,388.491,322.655,388.608z"/>
	<path fill="#263238" d="M356.175,404.662c2.101-4.684,4.958-11.525,7.31-16.093c0.039-0.059,0.137-0.02,0.117,0.038
		c-0.933,2.663-1.982,5.307-3.091,7.93c0.097-0.136,0.175-0.271,0.253-0.407c0.855-1.225,1.75-2.43,2.702-3.596
		c0.039-0.039,0.097,0.02,0.078,0.059c-0.72,1.341-1.497,2.624-2.353,3.887c-0.525,0.778-1.09,1.555-1.633,2.313
		c-0.604,1.38-1.983,4.819-2.586,6.181c-1.012,2.313-5.951,15.315-6.164,15.18c-0.312-0.214-2.158-1.478-3.461-2.585
		c-0.175-0.137,0.098-0.448,0.252-0.311c0.604,0.505,2.159,1.554,2.411,1.749c1.128-2.353,2.042-4.841,3.054-7.25
		C354.094,409.425,355.125,407.033,356.175,404.662z"/>
	<path fill="#AD6359" d="M370.641,355.062c0.584,1.982,10.83,14.46,19.948,13.547c2.976-0.311,2.042-16.599,2.042-16.599
		l0.213-1.225l2.879-17.064l-20.474-11.644l-2.956-1.534c0,0-0.486,4.723-1.011,10.593c-0.019,0.271-0.058,0.544-0.078,0.835
		c-0.038,0.331-0.077,0.642-0.097,0.953c-0.098,0.874-0.176,1.769-0.254,2.663c-0.058,0.68-0.115,1.341-0.154,2.06
		c-0.059,0.719-0.078,1.419-0.137,2.138C370.193,346.918,370.407,354.226,370.641,355.062z"/>
	<path fill="#263238" d="M371.264,331.155c5.541,13.159,16.545,18.057,21.58,19.631l2.879-17.064l-20.474-11.644l-2.956-1.534
		C372.273,320.562,371.807,325.284,371.264,331.155z"/>
	<path fill="#AD6359" d="M417.09,303.711c6.163,29.718-10.947,36.772-17.363,38.095c-5.813,1.205-25.801,4.548-34.996-24.373
		c-9.217-28.921,2.664-41.185,15.826-44.645C393.739,269.328,410.926,273.974,417.09,303.711z"/>
	<path fill="#263238" d="M407.057,296.714c-0.719,0.039-1.38-0.039-2.1-0.078c-0.797-0.039-1.438,0-2.119-0.486
		c-0.369-0.271-0.447-0.933-0.214-1.302c0.524-0.874,1.536-1.069,2.508-1.049c1.05,0.019,1.867,0.291,2.664,0.952
		C408.574,295.373,408.01,296.656,407.057,296.714z"/>
	<path fill="#263238" d="M386.604,301.262c0.681-0.194,1.282-0.505,1.943-0.777c0.739-0.311,1.361-0.467,1.848-1.166
		c0.252-0.37,0.116-1.03-0.213-1.303c-0.799-0.641-1.789-0.505-2.703-0.174c-0.992,0.349-1.653,0.894-2.197,1.788
		C384.736,300.504,385.709,301.515,386.604,301.262z"/>
	<path fill="#263238" d="M391.872,307.696c-0.039-0.078-0.136,0.136-0.117,0.214c0.448,2.021,0.642,4.412-1.069,5.422
		c-0.058,0.039-0.019,0.138,0.039,0.117C392.902,312.691,392.63,309.523,391.872,307.696z"/>
	<path fill="#263238" d="M389.656,305.927c-3.307,0.389-2.314,6.978,0.758,6.628C393.447,312.204,392.436,305.597,389.656,305.927z"
		/>
	<path fill="#263238" d="M388.411,306.471c-0.525,0.467-0.991,1.205-1.672,1.38c-0.798,0.195-1.497-0.389-2.14-0.972
		c-0.058-0.059-0.115,0-0.097,0.098c0.175,1.263,0.856,2.487,2.236,2.468c1.264-0.019,1.983-1.263,2.1-2.585
		C388.878,306.607,388.625,306.277,388.411,306.471z"/>
	<path fill="#263238" d="M404.374,304.838c0-0.078,0.175,0.077,0.175,0.155c0.233,2.061,0.836,4.373,2.801,4.781
		c0.058,0.02,0.076,0.117,0,0.117C405.035,309.892,404.257,306.821,404.374,304.838z"/>
	<path fill="#263238" d="M405.891,302.428c3.246-0.719,4.471,5.831,1.459,6.511C404.374,309.6,403.148,303.05,405.891,302.428z"/>
	<path fill="#263238" d="M407.329,302.603c0.584,0.253,1.206,0.797,1.847,0.719c0.721-0.077,1.129-0.894,1.459-1.651
		c0.038-0.077,0.098-0.039,0.116,0.059c0.272,1.243,0.097,2.623-1.069,3.09c-1.05,0.428-2.061-0.505-2.586-1.69
		C406.979,302.895,407.096,302.506,407.329,302.603z"/>
	<path fill="#263238" d="M396.52,323.244c0.543,0.428,1.107,1.03,1.866,1.03c0.72-0.02,1.536-0.428,2.158-0.758
		c0.058-0.039,0.136,0.039,0.097,0.097c-0.447,0.855-1.517,1.458-2.488,1.399c-0.952-0.059-1.498-0.816-1.809-1.652
		C396.286,323.244,396.441,323.186,396.52,323.244z"/>
	<path fill="#263238" d="M403.83,314.479c0,0,0.913,2.974,1.166,4.412c0.02,0.136-0.311,0.252-0.797,0.369
		c-0.02,0.019-0.039,0.02-0.059,0.02c-2.47,0.816-5.172,0.35-7.058-1.458c-0.117-0.117,0.039-0.311,0.175-0.232
		c2.119,1.068,4.277,1.088,6.533,0.758c0.039-0.409-1.75-5.054-1.536-5.093c0.777-0.194,2.411,0.077,3.384,0.194
		c-1.75-6.259-4.473-12.187-6.125-18.444c-0.059-0.234,0.252-0.351,0.369-0.156c3.305,6.006,5.463,13.158,7.428,19.572
		C407.582,315.217,404.452,314.634,403.83,314.479z"/>
	<path fill="#263238" d="M394.458,276.539c0,0,1.614,4.412,0.369,7.813c-2.566,7.017-10.829,6.025-13.337,8.94
		c-2.354,2.741-0.953,7.794-3.072,10.515c-2.917,3.752-7.466,2.838-7.777,5.209c-0.312,2.372-1.147,9.893-4.024,11.118
		c-2.878,1.224-21.136-46.589,17.673-48.746c0,0,5.094-2.663,13.727,0.68c9.527,3.712,14.894,18.251,14.894,18.251
		s-0.214-0.194-1.652-1.225c-2.022-1.457-2.897-2.915-4.354-3.848c-2.314-1.478-3.422-0.72-5.814-2.139
		C397.452,280.99,394.458,276.539,394.458,276.539z"/>
	<path fill="#263238" d="M393.661,274.46c0.778,1.866,1.36,3.829,1.69,5.792c0.351,1.963,0.428,4.022-0.271,5.831
		c-0.719,1.749-2.372,3.051-4.102,3.868c-1.771,0.854-3.793,1.243-5.679,2.215c-0.933,0.524-1.827,1.186-2.411,2.196
		c-0.563,0.991-0.719,2.061-0.854,3.071c-0.214,2.021-0.447,4.022-1.634,5.558c-1.166,1.536-2.993,2.566-4.978,2.663
		c-1.944,0.194-4.159-0.154-5.969,0.895c1.905-0.895,3.946-0.39,6.008-0.428c2.101,0,4.181-1.03,5.522-2.683
		c1.438-1.671,1.652-3.945,1.925-5.889c0.136-0.991,0.312-1.963,0.778-2.74c0.446-0.758,1.224-1.36,2.061-1.808
		c1.691-0.913,3.732-1.341,5.619-2.274c0.933-0.466,1.847-1.049,2.605-1.769c0.758-0.699,1.478-1.593,1.807-2.623
		c0.701-2.041,0.486-4.199,0.039-6.182C395.333,278.172,394.594,276.268,393.661,274.46z"/>
	<path fill="#263238" d="M394.575,276.151c0.544,1.808,1.36,3.537,2.372,5.15c1.011,1.614,2.469,3.071,4.277,3.888
		c0.914,0.408,1.924,0.583,2.78,0.777c0.815,0.214,1.711,0.622,2.216,1.205c0.564,0.661,1.129,1.516,1.905,2.119
		c0.778,0.602,1.673,1.01,2.586,1.205c-0.854-0.39-1.651-0.875-2.274-1.556c-0.662-0.641-1.069-1.419-1.633-2.234
		c-0.662-0.895-1.595-1.283-2.566-1.595c-0.953-0.271-1.828-0.407-2.625-0.776c-1.614-0.739-2.955-1.983-4.045-3.46
		C396.461,279.397,395.508,277.784,394.575,276.151z"/>
	<path fill="#AD6359" d="M372.682,315.898c0,0-7.972-8.377-11.88-5.384c-3.888,2.974,3.093,15.821,8.361,16.909
		c5.269,1.107,6.397-3.751,6.397-3.751L372.682,315.898z"/>
	<path fill="#263238" d="M362.922,314.129c-0.078,0-0.078,0.116,0,0.136c3.713,0.894,6.046,3.848,7.855,7.017
		c-1.245-1.128-2.762-1.633-4.317-0.137c-0.077,0.078,0.021,0.214,0.117,0.175c1.38-0.523,2.45-0.427,3.597,0.564
		c0.817,0.7,1.439,1.672,2.061,2.526c0.215,0.291,0.759,0.039,0.584-0.311c-0.02-0.021-0.02-0.059-0.039-0.078
		C372.195,319.571,367.782,313.857,362.922,314.129z"/>
	<path fill="#EBEBEB" d="M392.864,353.351l-4.298,13.839l-18.023-15.607l-4.277,5.83c0,0,18.471,25.617,18.49,24.394l4.59-11.992
		l8.631,7.386l-2.274-20.117L392.864,353.351z"/>
	<path fill="#263238" d="M397.374,367.17c-0.485-3.305-0.894-6.666-1.536-9.951c-0.02-0.117-0.213-0.155-0.232-0.02
		c-0.408,3.266,1.535,15.918,1.75,18.97c-0.02-0.02-0.02-0.02-0.039-0.039c-0.369-0.33-7.971-6.473-8.03-6.355
		c-1.05,1.924-4.433,10.67-4.647,11.467c-2.916-4.062-14.057-18.834-17.439-22.624c-0.098-0.115-0.272,0-0.194,0.137
		c2.644,4.335,17.401,24.236,17.615,24.159c0.136,0.098,4.336-10.671,4.782-12.673c1.322,1.361,9.061,8.377,9.041,7.892
		C398.366,374.77,397.861,370.493,397.374,367.17z"/>
	<path fill="#DBDBDB" d="M75.179,100.719H226.75c27.615,0,50,22.385,50,50v151.484c0,27.615-22.385,50-50,50H75.179
		c-27.614,0-50-22.385-50-50V150.719C25.179,123.105,47.564,100.719,75.179,100.719z"/>
	<path fill="#263238" d="M139.484,36.988c16.568,0,30,13.432,30,30v109.426c0,16.568-13.432,30-30,30H30c-16.568,0-30-13.432-30-30
		V66.988c0-16.568,13.432-30,30-30H139.484z M9.196,167.22c0,16.568,13.432,30,30,30h91.091c16.569,0,30-13.432,30-30V76.181
		c0-16.568-13.431-30-30-30H39.196c-16.568,0-30,13.432-30,30V167.22z"/>
	<path fill="#263238" d="M193.554,250.145c-1.089,0.077-6.183,0.427-13.61,0.952c-2.819-4.626-6.261-12.886-5.483-24.82
		c0.136-1.982-4.005,9.543-1.419,25.307c-14.369,1.011-33.928,2.352-51.018,3.382c-0.642-6.667-1.536-12.81-1.536-12.81
		c-0.37,4.841-1.206,9.233-2.197,13.042c-2.334,0.156-4.628,0.272-6.825,0.39c0.02-10.379-2.566-28.358-2.566-28.358
		c-0.973,12.634-4.531,22.838-7.155,28.883c-10.85,0.524-18.004,0.681-17.577,0.155c15.574-19.572,3.033-29.874,6.961-46.666
		c4.705-20.117,21.679-24.062,20.493-38.951c-0.934-12.128-3.461-34.07,11.665-39.494c0,0,11.861-14.227,31.79-7.6
		c24.673,8.183,16.779,46.045,18.781,53.586c2.859,10.769,8.205,14.363,12.638,26.589c4.531,12.381-0.816,20.973-1.069,29.524
		C185.213,241.787,196.276,250.009,193.554,250.145z"/>
	<path fill="#263238" d="M83.585,253.604c2.042-3.459,3.83-7.094,4.783-10.864c1.07-3.752,0.37-7.521-0.563-11.39
		c-0.914-3.849-2.003-7.794-2.547-11.895c-0.505-4.102-0.544-8.436,0.623-12.557c1.108-4.14,3.286-7.93,6.046-11.059
		c2.722-3.168,5.911-5.773,8.963-8.338c3.033-2.585,6.047-5.151,8.263-8.377c2.256-3.168,3.558-7.036,3.85-11.061
		c0.35,4.004-0.544,8.223-2.605,11.837c-2.042,3.636-4.997,6.608-7.913,9.368c-2.917,2.78-5.872,5.443-8.303,8.455
		c-2.411,2.993-4.297,6.356-5.23,10.01c-0.933,3.654-1.069,7.502-0.622,11.37c0.408,3.868,1.303,7.755,2.002,11.759
		c0.331,2.003,0.642,4.043,0.681,6.161c0.039,2.119-0.389,4.296-1.089,6.239C88.446,247.113,86.229,250.553,83.585,253.604z"/>
	<path fill="#263238" d="M169.445,136.851c2.1,4.509,3.033,9.465,3.966,14.344c0.836,4.897,1.439,9.815,1.984,14.732l0.855,7.328
		c0.292,2.449,0.7,4.742,1.439,6.977c1.419,4.49,4.141,8.338,7.194,12.245c1.477,1.983,2.994,4.043,4.258,6.297
		c1.263,2.255,2.294,4.646,3.033,7.135c0.661,2.507,1.127,4.975,1.419,7.521c0.292,2.527,0.272,5.151-0.078,7.697
		c-0.33,2.546-0.933,4.976-1.419,7.347c-0.505,2.371-0.778,4.781-0.817,7.172c-0.136,4.742,2.567,9.35,6.533,12.265
		c-4.355-2.313-7.68-6.958-8.069-12.187c-0.194-2.546-0.038-5.073,0.292-7.58c0.311-2.508,0.836-4.897,0.992-7.27
		c0.369-4.703-0.448-9.543-1.77-14.071c-0.738-2.236-1.652-4.393-2.838-6.434c-1.167-2.041-2.606-3.966-4.103-5.929
		c-1.477-1.963-3.013-3.983-4.336-6.2c-1.322-2.195-2.469-4.587-3.208-7.074c-0.719-2.488-1.108-5.093-1.322-7.561
		c-0.252-2.487-0.408-4.957-0.564-7.425c-0.33-4.937-0.583-9.854-1.05-14.752C171.428,146.491,170.845,141.593,169.445,136.851z"/>
	<path fill="#FFC727" d="M50.746,345.305c0.039-0.292,0.097-0.583,0.155-0.875c-0.078,0.369-0.136,0.719-0.175,1.089
		C50.727,345.46,50.727,345.383,50.746,345.305z"/>
	<path fill="#FFC727" d="M99.431,353.914c-0.156,0.098-0.331,0.176-0.505,0.272l-0.078-0.136l-0.019-0.02
		c0.175-0.039,0.35-0.078,0.525-0.117C99.392,353.934,99.412,353.934,99.431,353.914z"/>
	<path fill="#D3766A" d="M168.998,217.861c30.564,34.364,67.564,105.248,59.281,118.795c-9.235,15.082-53.331-33.857-51.815-36.074
		c1.283-1.885-13.046-44.275-23.448-75.276C142.614,194.324,161.435,209.368,168.998,217.861z"/>
	<path fill="#455A64" d="M168.998,217.861c30.564,34.364,67.564,105.248,59.281,118.795c-9.235,15.082-53.331-33.857-51.815-36.074
		c1.283-1.885-13.046-44.275-23.448-75.276C142.614,194.324,161.435,209.368,168.998,217.861z"/>
	<path fill="#EBEBEB" d="M164.876,260.874c2.975,9.038,5.716,17.53,7.797,24.314c4.724,0.214,18.529-0.544,32.897-14.344
		c-4.316-7.658-8.983-15.335-13.804-22.663C188.149,251.972,179.4,259.377,164.876,260.874z"/>
	<path fill="#455A64" d="M198.473,352.321l-7.68-51.992c0,0,12.308-21.477,5.172-36.89c-3.597-7.813-28.309-45.946-41.608-55.606
		c-12.482-9.058-29.592-0.797-35.405,7.074c-16.721,22.663-24.868,63.44-34.2,137.396h113.721V352.321z"/>
	<path fill="#263238" d="M176.095,231.816c2.527,3.46,4.977,6.979,7.388,10.516c-0.661-1.38-1.322-2.761-1.964-4.141
		c-0.039-0.097,0.097-0.175,0.156-0.077c0.894,1.729,1.73,3.498,2.527,5.268c3.228,4.762,6.339,9.601,9.372,14.499
		c1.283,2.08,2.45,4.198,3.325,6.492c0.836,2.216,1.361,4.548,1.633,6.899c0.272,2.353,0.291,4.724,0.116,7.075
		c-0.194,2.429-0.486,4.839-1.03,7.21c-0.622,2.683-1.458,5.365-2.547,7.893c-0.525,1.243-1.108,2.486-1.711,3.691
		c-0.564,1.107-1.711,3.344-1.692,3.44c0.234,1.244,0.467,2.118,0.623,3.169c0.155,1.068,0.33,2.138,0.486,3.206
		c0.33,2.139,3.091,22.896,3.402,25.034c0.622,4.237,1.147,8.475,1.692,12.73c0.311,2.449,0.466,4.897,0.797,7.328
		c0.019,0.097-0.136,0.136-0.156,0.039c-0.35-2.119-0.875-4.219-1.263-6.317c-0.389-2.119-0.778-4.237-1.167-6.356
		c-0.797-4.275-3.889-27.21-4.569-31.506c-0.195-1.185-0.37-2.371-0.564-3.557c-0.175-1.186-0.505-2.76-0.447-3.965
		c0,0,3.811-7.813,5.288-13.314c0.623-2.293,1.264-4.702,1.517-7.073c0.253-2.333,0.272-4.685,0.078-7.018
		c-0.195-2.332-0.623-4.664-1.342-6.899c-0.739-2.313-1.808-4.451-2.994-6.569c-2.489-4.412-5.133-8.746-7.816-13.061
		c-3.033-4.88-6.105-9.738-9.255-14.539C175.9,231.816,176.036,231.758,176.095,231.816z"/>
	<path fill="#D3766A" d="M228.26,336.656c-7.797,10.009-27.667,10.962-77.48,18.036c-6.883,0.972-26.909-45.771-19.599-47.21
		c9.197-1.788,45.303-6.764,47.986-6.803C201.837,300.446,233.548,329.871,228.26,336.656z"/>
	<path fill="#D3766A" d="M141.175,305.771c0,0-21.057,2.061-31.77,6.57c-14.368,6.045-24.264,17.162-28.133,22.079
		c-8.088,10.263-20.532,40.621-12.405,45.733c7.35,4.626,18.51-27.075,18.51-27.075s-16.701,30.438-6.824,34.384
		c9.877,3.945,20.746-33.586,20.746-33.586s-16.468,31.661-5.639,34.11c8.186,1.846,19.929-31.584,19.929-31.584
		s-13.96,27.309-5.619,29.582c9.216,2.507,21.99-27.677,21.99-27.677c22.165,2.196,33.617-5.813,41.083-12.479
		C174.85,344.216,141.175,305.771,141.175,305.771z"/>
	<path fill="#263238" d="M92.471,342.195c-2.1,3.499-4.239,7.036-6.008,10.71c-1.769,3.673-3.422,7.424-4.841,11.253
		c-3.48,9.389-4.2,15.803-4.122,15.413c2.061-9.271,8.205-22.526,9.994-26.219c1.769-3.674,3.363-7.425,5.113-11.099
		C92.646,342.156,92.509,342.116,92.471,342.195z"/>
	<path fill="#263238" d="M105.867,348.356c-2.47,4.587-5.114,9.058-7.389,13.761c-2.256,4.685-4.005,9.311-5.93,14.13
		c-0.156,0.37,0.097,0.331,0.272-0.039c2.119-4.741,4.453-8.96,6.649-13.683c2.177-4.703,4.18-9.522,6.533-14.13
		C106.022,348.337,105.905,348.279,105.867,348.356z"/>
	<path fill="#263238" d="M118.31,351.564c-4.141,6.822-7.019,14.402-9.682,21.904c-0.137,0.37,0.174,0.292,0.349-0.098
		c3.072-7.347,5.444-13.118,9.566-21.671C118.621,351.582,118.407,351.428,118.31,351.564z"/>
	<path fill="#455A64" d="M125.271,306.12l41.005,48.241c0,0,56.015-3.887,62.451-18.639c6.455-14.753-36.203-36.249-49.483-35.103
		C165.965,301.786,125.271,306.12,125.271,306.12z"/>
	<path fill="#263238" d="M200.826,307.015c-3.228-2.196-12.366-7.424-21.582-6.395c-0.097,0.02-0.116,0.155,0,0.155
		c7.544,0.233,18.199,4.49,21.504,6.356C200.826,307.19,200.904,307.073,200.826,307.015z"/>
	<path fill="#263238" d="M174.948,346.024c-16.119-17.064-30.468-37.434-33.209-40.816c-0.136-0.155,0.136-0.35,0.272-0.175
		c2.528,3.46,21.446,24.956,33.248,40.797C175.375,346.005,175.103,346.179,174.948,346.024z"/>
	<path fill="#FFC727" d="M217.459,240.709l18.172,88.99l-68.371,13.951l-18.172-88.99L217.459,240.709z"/>
	<path fill="#EBEBEB" d="M165.839,246.516l32.398-6.647l2.017,9.823l-32.398,6.649L165.839,246.516z"/>
	<path fill="#EBEBEB" d="M173.217,245.014l3.986-0.817l-0.933-4.527l9.702-2.002l0.933,4.527l3.986-0.815l-1.692-8.241
		l-17.732,3.635L173.217,245.014z"/>
	<path fill="#D3766A" d="M110.766,225.713c-32.936,41.905-45.36,117.162-27.084,123.031c16.702,5.364,85.394-11.816,105.867-18.774
		c6.008-2.041-12.56-48.747-18.976-46.589c-7.777,2.624-50.26,12.691-51.077,12.711c-1.769,0.039,7.68-46.297,11.724-67.288
		C136.839,199.552,123.132,209.97,110.766,225.713z"/>
	<path fill="#D3766A" d="M225.48,265.83c3.48,3.944,0.661,8.609,0.661,8.609s4.063,1.088,6.124,4.548
		c2.372,3.966-2.819,9.428-2.819,9.428s3.889,1.942,5.697,5.831c1.886,4.022-2.567,10.262-2.567,10.262s2.625,3.79,1.789,8.279
		c-1.439,7.658-12.502,11.992-19.521,14.83c-7.019,2.837-29.553,4.295-33.83,5.015l-18.568-44.839c0,0,27.822-21.652,36.552-23.811
		C206.328,262.156,221.572,261.398,225.48,265.83z"/>
	<path fill="#263238" d="M225.538,273.837c-8.263,0.059-16.079,2.565-24.012,4.626c-0.175,0.039-0.097,0.331,0.078,0.271
		c7.855-2.138,16.06-2.682,23.992-4.509C225.81,274.168,225.752,273.837,225.538,273.837z"/>
	<path fill="#263238" d="M229.057,287.87c-1.866,0.077-3.713,0.758-5.483,1.321c-1.905,0.603-3.811,1.225-5.696,1.886
		c-3.772,1.321-7.525,2.721-11.219,4.236c-0.156,0.06-0.097,0.331,0.078,0.272c3.772-1.302,7.544-2.565,11.374-3.712
		c1.905-0.583,3.83-1.127,5.755-1.691c1.789-0.505,3.714-0.894,5.347-1.788C229.446,288.259,229.349,287.851,229.057,287.87z"/>
	<path fill="#263238" d="M232.421,304.547c-1.633,0-3.364,0.874-4.88,1.438c-1.711,0.643-3.422,1.263-5.133,1.885
		c-3.422,1.244-6.864,2.47-10.324,3.597c-0.175,0.058-0.098,0.331,0.077,0.271c3.539-1.107,7.078-2.177,10.597-3.343
		c1.73-0.563,3.461-1.146,5.172-1.73c1.458-0.505,3.344-0.951,4.549-1.963C232.557,304.644,232.499,304.547,232.421,304.547z"/>
	<path fill="#455A64" d="M120.099,294.187c-0.525-0.311,9.333-45.033,12.657-68.376c3.306-23.343-7.116-21.089-22.126-1.146
		c-16.079,21.38-44.68,79.222-34.764,122.06c3.208,13.877,102.62-5.56,102.62-5.56l-13.396-57.122
		C165.07,284.042,120.916,294.673,120.099,294.187z"/>
	<path fill="#EBEBEB" d="M79.58,289.95c16.215,4.762,33.792,2.332,40.966,0.99c1.031-5.616,3.558-17.783,6.125-30.923
		c-17.032,1.886-28.601-0.544-34.919-2.663C87.144,267.326,82.827,278.444,79.58,289.95z"/>
	<path fill="#263238" d="M165.459,335.295c-6.046-19.884-9.391-41.71-10.227-45.461c-0.039-0.175,0.253-0.214,0.292-0.039
		c0.642,3.731,7.155,28.26,10.266,45.461C165.809,335.45,165.518,335.49,165.459,335.295z"/>
	<path fill="#263238" d="M101.395,300.796c1.925-0.331,52.671-14.616,63.773-16.346c0.175-0.021,0.019-0.604-0.156-0.583
		c-34.103,6.005-62.12,15.12-64.259,15.976C98.187,300.872,97.837,301.418,101.395,300.796z"/>
	<path fill="#263238" d="M120.585,294.654c-0.039-0.097,3.344-17.221,3.947-18.29c0.622-1.106,1.944-3.575,2.489-4.723
		c1.088-2.313,2.061-4.684,3.072-7.016c0.077-0.194-0.214-0.351-0.292-0.156c-1.089,2.274-2.372,4.432-3.675,6.589
		c-0.641,1.05-1.283,2.119-1.944,3.168c-0.058,0.078,3.13-16.733,3.558-19.688c0.039-0.214-0.194-0.273-0.272-0.099
		c-0.953,2.975-7.602,36.639-8.516,40.351C118.952,294.79,119.574,294.79,120.585,294.654z"/>
	<path fill="#263238" d="M157.993,344.701c3.306-0.913,16.585-3.07,19.832-3.518c-0.311-1.166-1.264-5.928-1.166-7.27
		c0-0.136,0.194-0.193,0.272-0.097c0.758,1.108,2.041,6.958,2.43,8.338c0.078,0.253-17.887,2.527-21.329,2.702
		C157.935,344.877,157.896,344.74,157.993,344.701z"/>
	<path fill="#D3766A" d="M162.446,212.011c0,0-1.342,13.139-12.23,15.18c-10.908,2.041-31.264-12.264-31.264-12.264
		s8.185-11.001,22.962-11.04C156.127,203.867,162.446,212.011,162.446,212.011z"/>
	<path fill="#D3766A" d="M131.162,208.337c0.583,1.982,10.888,14.422,20.007,13.47c2.975-0.311,1.983-16.599,1.983-16.599
		l0.194-1.225l2.8-17.065l-20.532-11.564l-2.955-1.516c0,0-0.466,4.723-0.972,10.612c-0.019,0.271-0.058,0.544-0.078,0.836
		c-0.039,0.33-0.078,0.641-0.097,0.951c-0.097,0.875-0.175,1.77-0.233,2.663c-0.059,0.681-0.117,1.342-0.136,2.061
		c-0.059,0.719-0.078,1.419-0.137,2.138C130.657,200.193,130.909,207.501,131.162,208.337z"/>
	<path fill="#263238" d="M131.687,184.431c5.6,13.139,16.624,17.998,21.659,19.553l2.8-17.064l-20.532-11.565l-2.955-1.516
		C132.659,173.819,132.193,178.542,131.687,184.431z"/>
	<path fill="#D3766A" d="M175.861,155.063c7.991,29.29-8.652,37.376-14.971,39.086c-5.735,1.556-25.47,6.122-36.436-22.177
		c-10.966-28.299,0.117-41.282,13.046-45.539C150.449,122.196,167.89,125.772,175.861,155.063z"/>
	<path fill="#263238" d="M165.323,149.329c-0.719,0.077-1.38,0.039-2.1,0.058c-0.797,0.02-1.438,0.117-2.158-0.35
		c-0.369-0.252-0.505-0.895-0.311-1.282c0.467-0.914,1.458-1.166,2.43-1.226c1.05-0.058,1.867,0.156,2.722,0.778
		C166.743,147.91,166.256,149.212,165.323,149.329z"/>
	<path fill="#263238" d="M144.441,152.244c0.681-0.233,1.264-0.563,1.906-0.874c0.739-0.351,1.341-0.544,1.769-1.265
		c0.234-0.388,0.058-1.029-0.292-1.281c-0.816-0.604-1.827-0.408-2.722-0.039c-0.972,0.407-1.613,0.972-2.099,1.904
		C142.536,151.603,143.547,152.555,144.441,152.244z"/>
	<path fill="#263238" d="M151.13,161.613c-0.039-0.077-0.136,0.137-0.117,0.215c0.564,1.981,0.875,4.373-0.777,5.48
		c-0.059,0.039-0.02,0.136,0.038,0.116C152.413,166.55,151.985,163.401,151.13,161.613z"/>
	<path fill="#263238" d="M148.816,159.961c-3.286,0.544-1.944,7.094,1.108,6.568C152.938,166.025,151.577,159.494,148.816,159.961z"
		/>
	<path fill="#263238" d="M147.611,160.563c-0.486,0.486-0.914,1.265-1.595,1.458c-0.777,0.253-1.516-0.311-2.177-0.875
		c-0.058-0.058-0.117,0.021-0.097,0.099c0.233,1.263,0.991,2.448,2.372,2.351c1.263-0.077,1.905-1.38,1.963-2.701
		C148.077,160.68,147.805,160.369,147.611,160.563z"/>
	<path fill="#263238" d="M163.204,157.629c0-0.078,0.175,0.058,0.194,0.136c0.37,2.041,1.148,4.295,3.111,4.567
		c0.059,0,0.078,0.117,0,0.117C164.215,162.624,163.223,159.611,163.204,157.629z"/>
	<path fill="#263238" d="M164.545,155.121c3.189-0.952,4.861,5.52,1.906,6.395C163.534,162.371,161.862,155.918,164.545,155.121z"/>
	<path fill="#263238" d="M166.004,155.199c0.602,0.214,1.263,0.698,1.886,0.582c0.719-0.136,1.069-0.972,1.341-1.748
		c0.02-0.078,0.097-0.039,0.117,0.037c0.35,1.226,0.272,2.624-0.856,3.169c-1.03,0.486-2.099-0.369-2.702-1.516
		C165.673,155.51,165.77,155.121,166.004,155.199z"/>
	<path fill="#263238" d="M156.302,176.928c0.564,0.408,1.166,0.972,1.905,0.933c0.72-0.058,1.497-0.505,2.119-0.854
		c0.059-0.039,0.136,0.019,0.098,0.097c-0.409,0.875-1.439,1.536-2.411,1.517c-0.953-0.02-1.536-0.738-1.886-1.556
		C156.068,176.928,156.224,176.87,156.302,176.928z"/>
	<path fill="#263238" d="M163.165,167.774c0,0,1.069,2.915,1.38,4.354c0.02,0.136-0.311,0.271-0.777,0.408
		c-0.02,0.019-0.039,0.019-0.059,0.019c-2.43,0.933-5.152,0.622-7.116-1.088c-0.136-0.117,0.02-0.312,0.175-0.253
		c2.178,0.972,4.336,0.875,6.572,0.428c0.019-0.409-2.003-4.957-1.789-5.015c0.759-0.233,2.411-0.039,3.383,0.02
		c-2.061-6.162-5.094-11.934-7.057-18.096c-0.059-0.213,0.233-0.35,0.35-0.175c3.616,5.831,6.143,12.867,8.438,19.165
		C166.937,168.318,163.787,167.89,163.165,167.774z"/>
	<path fill="#263238" d="M163.204,172.089c0,0-0.856,2.157-2.528,3.304c-0.602,0.428-1.322,0.719-2.138,0.719
		c-1.673,0-2.1-1.419-2.139-2.721c-0.039-1.069,0.194-2.079,0.194-2.079S159.471,172.828,163.204,172.089z"/>
	<path fill="#FF9CBD" d="M160.676,175.393c-0.602,0.428-1.322,0.719-2.138,0.719c-1.673,0-2.1-1.418-2.139-2.721
		C158.129,173.1,160.112,173.799,160.676,175.393z"/>
	<path fill="#263238" d="M126.087,171.486c3.131-1.107,8.886-12.206,4.744-27.618c0,0,2.761,14.092,2.314,16.424
		c-0.466,2.313,3.208-6.239,0.039-18.717c0,0,8.283,2.974,14.582,2.935c6.3-0.039,9.877-1.128,10.169-1.652
		c0.292-0.545-9.08-0.777-12.171-2.799c0,0,17.615,2.76,24.945,1.263c0.855-0.175-3.053-17.491-16.216-21.555
		c-13.143-4.062-28.464,8.786-31.866,14.694c0,0-5.308,2.371-8.983,12.303C109.969,156.637,122.724,172.672,126.087,171.486z"/>
	<path fill="#D3766A" d="M130.618,172.127c0,0-8.205-8.144-12.016-5.053c-3.811,3.09,3.558,15.724,8.846,16.656
		c5.308,0.952,6.281-3.945,6.281-3.945L130.618,172.127z"/>
	<path fill="#263238" d="M120.799,170.65c-0.078,0-0.078,0.117,0,0.137c3.733,0.777,6.163,3.674,8.049,6.782
		c-1.263-1.107-2.799-1.555-4.316,0c-0.078,0.078,0.039,0.215,0.136,0.176c1.381-0.563,2.45-0.506,3.616,0.467
		c0.837,0.68,1.478,1.632,2.139,2.468c0.214,0.272,0.759,0.021,0.564-0.33c-0.019-0.02-0.039-0.059-0.039-0.078
		C130.229,175.82,125.64,170.222,120.799,170.65z"/>
	<path fill="#D3766A" d="M99.373,353.935c-0.175,0.038-0.331,0.077-0.506,0.136l-0.02-0.02
		C99.003,354.012,99.198,353.973,99.373,353.935z"/>
	<path fill="#FFC727" d="M50.901,344.43c-0.078,0.369-0.136,0.719-0.175,1.089c0.02-0.078,0.02-0.136,0.02-0.214
		C50.785,345.013,50.843,344.74,50.901,344.43z"/>
	<path fill="#FFC727" d="M50.901,344.43c-0.078,0.369-0.136,0.719-0.175,1.089c0.02-0.078,0.02-0.136,0.02-0.214
		C50.785,345.013,50.843,344.74,50.901,344.43z"/>
	<path fill="#FFC727" d="M101.667,359.221c-0.544,0.136-1.05,0.271-1.575,0.389C100.598,359.474,101.142,359.338,101.667,359.221z"
		/>
	<path fill="#DBDBDB" d="M50.901,344.43c-0.078,0.369-0.136,0.719-0.175,1.089c0.02-0.078,0.02-0.136,0.02-0.214
		C50.785,345.013,50.843,344.74,50.901,344.43z"/>
	<path fill="#EBEBEB" d="M576.794,19.573c16.569,0,30,13.432,30,30V66.19c0,16.568-13.431,30-30,30h-16.663
		c-16.568,0-30-13.432-30-30V49.573c0-16.568,13.432-30,30-30H576.794z M571,90.398c16.569,0,30-13.432,30-30v-5.053
		c0-16.568-13.431-30-30-30h-5.075c-16.568,0-30,13.432-30,30v5.053c0,16.568,13.432,30,30,30H571z"/>
	<path fill="#37474F" d="M342.227,0h160.089c27.613,0,50,22.386,50,50v139.435c0,27.614-22.387,50-50,50H342.227
		c-27.614,0-50-22.386-50-50V50C292.227,22.386,314.613,0,342.227,0z"/>
	<path fill="#F7A9A0" d="M375.813,118.736c-31.692,32.109-71.55,99.65-64.123,113.353c8.282,15.258,52.398-29.757,52.244-32.38
		c-0.137-1.983,15.398-43.014,27.162-72.849C402.857,97.026,383.648,110.806,375.813,118.736z"/>
	<path fill="#FFC727" d="M364.225,199.747c1.342-4.394,22.476-58.484,28.504-75.607c6.026-17.124,0.446-22.41-16.799-6.725
		c-17.246,15.665-55.044,68.025-63.677,95.801c-8.302,26.764,5.483,26.764,23.662,14.422
		C350.809,217.55,364.225,199.747,364.225,199.747z"/>
	<path opacity="0.1" enable-background="new    " d="M378.904,119.183c0.175,1.244,0.582,2.371,1.068,3.46
		c0.525,1.088,1.09,2.138,1.926,3.071c-0.176-1.244-0.584-2.372-1.069-3.46C380.323,121.185,379.74,120.116,378.904,119.183z
		 M326.661,193.585c0.486,1.089,0.913,2.216,1.069,3.46c-0.836-0.934-1.419-1.983-1.925-3.071c-0.486-1.089-0.914-2.216-1.069-3.46
		C325.572,191.447,326.136,192.497,326.661,193.585z M345.346,165.15c0.485,1.088,0.913,2.217,1.069,3.459
		c-0.836-0.932-1.42-1.981-1.925-3.069c-0.486-1.089-0.914-2.217-1.07-3.46C344.256,163.031,344.82,164.081,345.346,165.15z
		 M364.749,158.017c1.089-0.486,2.217-0.914,3.461-1.069c-0.933,0.837-1.983,1.42-3.071,1.925c-1.09,0.485-2.217,0.913-3.462,1.068
		C362.611,159.125,363.66,158.542,364.749,158.017z M347.251,186.763c1.088-0.486,2.216-0.914,3.46-1.069
		c-0.934,0.836-1.982,1.419-3.07,1.925c-1.09,0.485-2.218,0.913-3.461,1.068C345.111,187.851,346.182,187.288,347.251,186.763z
		 M361.482,137.531c1.09-0.485,2.217-0.913,3.461-1.068c-0.934,0.836-1.982,1.419-3.071,1.924c-1.089,0.486-2.218,0.914-3.461,1.069
		C359.344,138.639,360.395,138.056,361.482,137.531z M372.332,175.918c-0.428,1.127-0.934,2.215-1.691,3.207
		c0.077-1.244,0.408-2.411,0.816-3.538c0.428-1.108,0.934-2.216,1.691-3.207C373.051,173.624,372.721,174.79,372.332,175.918z
		 M335.721,210.164c-0.428,1.128-0.933,2.216-1.692,3.207c0.078-1.244,0.409-2.41,0.817-3.537c0.428-1.128,0.933-2.216,1.692-3.207
		C336.46,207.871,336.129,209.037,335.721,210.164z M360.375,204.392c0.038,0,0.059,0.02,0.077,0.02
		c-0.213,0.253-0.408,0.505-0.642,0.758c-1.05-0.408-2.061-0.895-2.975-1.594C358.08,203.653,359.227,204.003,360.375,204.392z
		 M316.997,224.839c-1.127-0.428-2.216-0.934-3.208-1.691c1.245,0.077,2.411,0.408,3.539,0.816c1.108,0.428,2.216,0.933,3.208,1.69
		C319.272,225.577,318.125,225.247,316.997,224.839z M382.073,145.558c0.797,0.312,1.555,0.643,2.294,1.069
		c-0.059,0.156-0.116,0.331-0.176,0.485c-0.836-0.136-1.651-0.389-2.43-0.68c-1.128-0.428-2.217-0.933-3.228-1.69
		C379.798,144.82,380.945,145.169,382.073,145.558z"/>
	<path fill="#FFC727" d="M367.996,239.494h120.488c0,0-19.151-94.46-65.349-135.354c-5.716-5.054-18.587-3.907-26.987,0.272
		c-2.994,1.496-13.765,16.56-16.856,30.806C376.24,149.446,367.666,239.066,367.996,239.494z"/>
	<path fill="#263238" d="M378.242,141.108c-0.952,3.188-1.73,6.473-2.372,9.796c0-0.136-0.019-0.253-0.019-0.389
		c-0.039-1.866-0.059-3.751-0.254-5.617c-0.019-0.097-0.175-0.117-0.175-0.02c-0.272,1.847-0.253,3.79-0.155,5.656
		c0.059,0.894,0.098,1.787,0.176,2.662c-0.254,1.497-0.486,2.975-0.661,4.451c-0.351,2.818-1.304,13.275-1.382,15.355
		c-0.019,0.447,0.486,0.505,0.604,0.058c0.564-2.099,2.061-12.886,2.547-15.666c0.914-5.325,1.575-10.865,1.905-16.268
		C378.456,141.011,378.281,141.011,378.242,141.108z"/>
	<path opacity="0.1" enable-background="new    " d="M415.573,128.805c0.175,1.243,0.583,2.371,1.069,3.459
		c0.524,1.089,1.088,2.138,1.924,3.071c-0.174-1.244-0.582-2.371-1.068-3.459C416.992,130.807,416.409,129.738,415.573,128.805z
		 M431.905,176.773c0.485,1.089,0.914,2.216,1.068,3.46c-0.836-0.933-1.419-1.982-1.924-3.07c-0.487-1.088-0.914-2.217-1.069-3.46
		C430.816,174.635,431.38,175.685,431.905,176.773z M471.044,193.955c0.486,1.088,0.913,2.216,1.069,3.46
		c-0.836-0.934-1.419-1.983-1.926-3.071c-0.485-1.089-0.913-2.216-1.068-3.46C469.935,191.817,470.52,192.866,471.044,193.955z
		 M442.268,224.703c0.486,1.088,0.914,2.216,1.069,3.46c-0.836-0.934-1.419-1.983-1.924-3.071c-0.486-1.089-0.914-2.216-1.07-3.46
		C441.179,222.565,441.743,223.615,442.268,224.703z M392.047,165.286c0.486,1.089,0.914,2.216,1.069,3.46
		c-0.837-0.934-1.419-1.982-1.925-3.071c-0.486-1.088-0.914-2.216-1.069-3.46C390.939,163.148,391.521,164.198,392.047,165.286z
		 M376.221,197.92c0.486,1.088,0.913,2.216,1.069,3.46c-0.836-0.934-1.419-1.983-1.925-3.071c-0.486-1.089-0.914-2.216-1.069-3.46
		C375.111,195.781,375.695,196.831,376.221,197.92z M414.504,221.418c0.486,1.089,0.913,2.216,1.069,3.46
		c-0.837-0.934-1.419-1.983-1.925-3.071c-0.486-1.088-0.914-2.216-1.069-3.46C413.415,219.3,413.998,220.349,414.504,221.418z
		 M451.212,157.803c0.486,1.089,0.914,2.216,1.069,3.46c-0.836-0.933-1.419-1.982-1.925-3.071c-0.486-1.088-0.913-2.216-1.069-3.459
		C450.123,155.665,450.706,156.734,451.212,157.803z M405.677,147.075c1.089-0.486,2.216-0.914,3.46-1.069
		c-0.933,0.835-1.982,1.419-3.072,1.924c-1.088,0.486-2.215,0.913-3.459,1.069C403.538,148.163,404.588,147.599,405.677,147.075z
		 M398.074,185.831c1.089-0.486,2.217-0.914,3.461-1.069c-0.934,0.835-1.983,1.418-3.072,1.924
		c-1.089,0.486-2.216,0.913-3.461,1.069C395.936,186.919,396.986,186.355,398.074,185.831z M468.924,226.899
		c1.089-0.485,2.217-0.913,3.461-1.068c-0.933,0.836-1.982,1.419-3.072,1.925c-1.089,0.484-2.216,0.913-3.461,1.069
		C466.786,227.988,467.836,227.405,468.924,226.899z M396.83,234.752c1.089-0.486,2.236-0.914,3.48-1.069
		c-0.934,0.835-2.002,1.399-3.072,1.924c-0.252,0.116-0.486,0.214-0.739,0.33c-0.642,0.039-1.283,0.098-1.924,0.117
		C395.275,235.51,396.052,235.101,396.83,234.752z M441.84,195.529c1.089-0.485,2.217-0.912,3.461-1.068
		c-0.933,0.836-1.982,1.419-3.072,1.924c-1.089,0.486-2.216,0.914-3.461,1.069C439.702,196.618,440.752,196.035,441.84,195.529z
		 M405.677,112.77c1.089-0.485,2.216-0.914,3.46-1.068c-0.933,0.835-1.982,1.419-3.072,1.924c-1.088,0.485-2.215,0.913-3.459,1.068
		C403.538,113.858,404.588,113.275,405.677,112.77z M397.861,130.748c-0.428,1.128-0.935,2.216-1.692,3.207
		c0.078-1.244,0.408-2.41,0.817-3.537c0.427-1.108,0.933-2.216,1.69-3.207C398.6,128.455,398.27,129.621,397.861,130.748z
		 M378.729,220.388c-0.428,1.128-0.934,2.216-1.691,3.207c0.078-1.244,0.408-2.41,0.816-3.537c0.428-1.128,0.934-2.216,1.691-3.207
		C379.467,218.095,379.137,219.261,378.729,220.388z M430.408,153.275c-0.428,1.127-0.934,2.217-1.692,3.207
		c0.078-1.244,0.409-2.41,0.817-3.538c0.428-1.127,0.933-2.215,1.691-3.207C431.147,151.001,430.816,152.148,430.408,153.275z
		 M415.534,192.73c-0.429,1.128-0.933,2.216-1.691,3.207c0.077-1.244,0.408-2.41,0.816-3.537c0.428-1.107,0.933-2.216,1.692-3.207
		C416.273,190.456,415.941,191.603,415.534,192.73z M484.576,239.008c0,0.175-0.021,0.331-0.039,0.505h-0.312
		C484.343,239.339,484.459,239.164,484.576,239.008z M450.648,238.853c0.446-1.128,0.933-2.216,1.691-3.227
		c-0.078,1.264-0.409,2.41-0.816,3.538c-0.039,0.115-0.098,0.232-0.137,0.33h-0.972C450.512,239.28,450.57,239.066,450.648,238.853z
		 M457.589,211.039c-0.428,1.128-0.933,2.216-1.69,3.207c0.076-1.244,0.407-2.41,0.815-3.537c0.428-1.127,0.933-2.216,1.692-3.207
		C458.328,208.746,457.979,209.912,457.589,211.039z M428.405,118.173c-0.428,1.127-0.934,2.216-1.691,3.207
		c0.078-1.244,0.408-2.41,0.816-3.537c0.428-1.128,0.934-2.216,1.691-3.207C429.144,115.899,428.814,117.046,428.405,118.173z
		 M396.169,209.193c-1.128-0.428-2.217-0.933-3.208-1.69c1.244,0.078,2.411,0.408,3.538,0.815c1.108,0.429,2.217,0.934,3.209,1.691
		C398.443,209.932,397.297,209.582,396.169,209.193z M427.705,238.192c-1.127-0.428-2.216-0.933-3.208-1.69
		c1.245,0.078,2.411,0.408,3.539,0.815c1.128,0.429,2.216,0.934,3.208,1.691C430,238.93,428.833,238.6,427.705,238.192z
		 M481.348,211.933c0.078,0.273,0.176,0.564,0.253,0.817c-0.563-0.292-1.128-0.604-1.633-1.012
		C480.435,211.778,480.882,211.836,481.348,211.933z M453.837,178.523c-1.128-0.428-2.217-0.933-3.208-1.69
		c1.244,0.077,2.411,0.407,3.538,0.815c1.128,0.428,2.217,0.934,3.208,1.691C456.131,179.261,454.984,178.931,453.837,178.523z
		 M428.561,210.437c-1.128-0.428-2.217-0.933-3.208-1.69c1.244,0.078,2.411,0.407,3.538,0.815c1.128,0.428,2.218,0.934,3.208,1.691
		C430.836,211.175,429.689,210.845,428.561,210.437z M413.531,164.664c-1.127-0.428-2.217-0.933-3.208-1.69
		c1.245,0.077,2.411,0.408,3.538,0.816c1.109,0.427,2.218,0.933,3.209,1.69C415.826,165.403,414.68,165.053,413.531,164.664z
		 M381.742,146.433c-1.127-0.427-2.217-0.933-3.208-1.69c1.245,0.077,2.411,0.407,3.539,0.816c1.108,0.427,2.216,0.934,3.208,1.691
		C384.037,147.172,382.889,146.841,381.742,146.433z M438.593,135.781c-1.127-0.427-2.216-0.933-3.208-1.69
		c1.245,0.078,2.411,0.408,3.539,0.817c1.108,0.427,2.216,0.933,3.208,1.69C440.888,136.521,439.721,136.19,438.593,135.781z"/>
	<path fill="#F7A9A0" d="M527.467,67.016c0.253-5.792-0.914-32.399-2.896-39.728c-1.983-7.327-9.217-28.026-14.99-27.074
		c-5.775,0.952-4.143,7.172-4.143,7.172s-4.433-8.261-10.168-6.764c-5.717,1.477-2.858,11.078-2.858,11.078
		s-5.171-8.144-10.79-6.258c-5.6,1.885-1.109,11.059-1.109,11.059s-4.394-7.657-8.341-4.179c-4.763,4.198,4.919,17.435,6.494,25.695
		c0.35,1.885,4.569,38.542,4.569,38.542L527.467,67.016z"/>
	<path fill="#263238" d="M480.143,15.724c7.098,9.737,8.517,15.219,9.313,27.056c0.02,0.233,0.37,0.252,0.37,0.02
		c0.271-11.662-0.506-18.795-9.216-27.444C480.182,14.927,479.813,15.258,480.143,15.724z"/>
	<path fill="#263238" d="M491.828,10.943c6.494,10.768,8.089,16.695,9.818,29.038c0.02,0.175,0.332,0.155,0.312-0.02
		c-0.7-12.245-1.653-19.358-9.546-29.252C492.063,10.242,491.537,10.437,491.828,10.943z"/>
	<path fill="#263238" d="M505.497,8.008c5.521,10.864,7.563,17.298,7.718,29.504c0,0.292,0.428,0.311,0.448,0.02
		c1.05-12.439-1.42-20.486-7.816-29.641C505.419,7.249,505.146,7.327,505.497,8.008z"/>
	<path fill="#F7A9A0" d="M483.604,84.14c0,0-11.005-10.341-14.834-15.957c-3.83-5.617-10.402-31.778-4.822-33.509
		c7.193-2.255,13.96,12.109,16.351,19.572c0,0,16.645-5.209,23.722,4.043C511.135,67.541,483.604,84.14,483.604,84.14z"/>
	<path fill="#263238" d="M466.145,34.694c8.029,2.683,10.558,12.692,13.415,19.747c0.215,0.545,0.72,0.545,1.108,0.312
		c7.116-1.711,17.654-2.061,23.448,3.052c0.175,0.155,0.408-0.078,0.253-0.253c-5.464-6.336-15.846-6.842-23.526-4.471
		c-2.818-7.288-5.794-17.221-14.679-18.483C466.105,34.616,466.086,34.674,466.145,34.694z"/>
	<path fill="#F7A9A0" d="M416.486,118.231c7.233,12.518,49.035,51.099,85.49,57.784c4.939,0.913,23.779-3.071,27.706-15.569
		c7.02-22.234,1.4-68.143-2.177-95.781c-0.7-5.403-50.824,5.695-49.521,13.936c1.438,9.136,6.805,42.663,5.987,43.032
		c-2.994,1.38-35.035-12.439-56.072-16.968C412.986,101.457,410.907,108.59,416.486,118.231z"/>
	<path fill="#455A64" d="M534.564,78.348L477.46,90.709c0,0,5.191,29.174,4.18,28.999c-1.011-0.175-41.083-14.772-56.54-16.308
		c-15.457-1.534-15.457,5.248-7.621,17.998s59.164,55.452,84.459,55.433c12.872,0,24.85-8.241,27.183-12.187
		C536.372,152.419,534.564,78.348,534.564,78.348z"/>
	<path fill="#FFC727" d="M534.564,78.348L477.46,90.709c0,0,5.191,29.174,4.18,28.999c-1.011-0.175-41.083-14.772-56.54-16.308
		c-15.457-1.534-15.457,5.248-7.621,17.998s59.164,55.452,84.459,55.433c12.872,0,24.85-8.241,27.183-12.187
		C536.372,152.419,534.564,78.348,534.564,78.348z"/>
	<path opacity="0.1" enable-background="new    " d="M452.709,118.989c0.486,1.089,0.914,2.217,1.069,3.461
		c-0.836-0.934-1.419-1.983-1.925-3.071c-0.485-1.108-0.913-2.216-1.069-3.479C451.62,116.851,452.204,117.92,452.709,118.989z
		 M498.108,169.951c0.485,1.088,0.895,2.216,1.069,3.459c-0.836-0.933-1.399-1.982-1.925-3.07c-0.486-1.089-0.895-2.216-1.07-3.46
		C497.02,167.813,497.583,168.882,498.108,169.951z M531.745,135.004c0.486,1.089,0.913,2.216,1.069,3.46
		c-0.836-0.934-1.42-1.982-1.926-3.071c-0.485-1.088-0.894-2.216-1.068-3.459C530.656,132.866,531.239,133.935,531.745,135.004z
		 M482.01,135.16c0.486,1.088,0.913,2.216,1.069,3.46c-0.836-0.934-1.419-1.983-1.925-3.071c-0.486-1.089-0.895-2.216-1.069-3.46
		C480.921,133.022,481.504,134.072,482.01,135.16z M507.033,149.543c0.486,1.088,0.913,2.216,1.068,3.459
		c-0.836-0.934-1.419-1.982-1.925-3.07c-0.485-1.089-0.914-2.216-1.068-3.46C505.944,147.405,506.527,148.454,507.033,149.543z
		 M504.836,114.441c0.486,1.088,0.895,2.216,1.069,3.46c-0.836-0.933-1.4-1.982-1.925-3.07c-0.486-1.089-0.895-2.217-1.069-3.46
		C503.747,112.303,504.311,113.372,504.836,114.441z M530.247,88.358c0.487,1.088,0.895,2.216,1.07,3.459
		c-0.836-0.933-1.419-1.982-1.926-3.07c-0.485-1.108-0.913-2.216-1.068-3.479C529.159,86.219,529.723,87.288,530.247,88.358z
		 M427.531,117.842c0.427-1.108,0.933-2.215,1.69-3.207c-0.078,1.244-0.407,2.41-0.816,3.538c-0.447,1.107-0.934,2.215-1.691,3.207
		C426.792,120.136,427.122,118.97,427.531,117.842z M461.361,141.185c0.446-1.107,0.933-2.216,1.691-3.207
		c-0.078,1.244-0.408,2.41-0.816,3.538c-0.429,1.107-0.914,2.215-1.691,3.207C460.622,143.479,460.953,142.332,461.361,141.185z
		 M486.754,114.888c0.427-1.108,0.934-2.196,1.691-3.207c-0.078,1.244-0.408,2.41-0.816,3.537c-0.448,1.108-0.934,2.216-1.691,3.207
		C486.034,117.181,486.365,116.035,486.754,114.888z M490.059,152.944c0.429-1.107,0.934-2.216,1.692-3.207
		c-0.078,1.244-0.409,2.41-0.817,3.538c-0.446,1.107-0.933,2.215-1.691,3.207C489.32,155.238,489.651,154.071,490.059,152.944z
		 M522.626,148.843c0.428-1.108,0.933-2.216,1.691-3.207c-0.077,1.244-0.408,2.391-0.816,3.537
		c-0.428,1.107-0.933,2.216-1.692,3.207C521.887,151.117,522.237,149.97,522.626,148.843z M512.36,95.043
		c0.428-1.107,0.933-2.216,1.691-3.227c-0.078,1.264-0.409,2.41-0.816,3.538c-0.447,1.107-0.934,2.196-1.692,3.207
		C511.621,97.318,511.952,96.171,512.36,95.043z M516.21,125.578c0.447-1.127,0.933-2.217,1.691-3.228
		c-0.078,1.244-0.408,2.411-0.816,3.538c-0.428,1.127-0.934,2.216-1.692,3.226C515.471,127.852,515.801,126.686,516.21,125.578z
		 M438.924,134.906c1.108,0.447,2.217,0.934,3.208,1.691c-1.244-0.078-2.391-0.408-3.538-0.816c-1.108-0.428-2.217-0.933-3.209-1.69
		C436.63,134.169,437.796,134.499,438.924,134.906z M499.333,133.508c1.108,0.447,2.217,0.933,3.208,1.691
		c-1.244-0.078-2.391-0.408-3.538-0.817c-1.108-0.427-2.217-0.932-3.208-1.69C497.058,132.769,498.206,133.119,499.333,133.508z
		 M493.636,97.628c1.109,0.447,2.218,0.934,3.209,1.691c-1.245-0.078-2.392-0.408-3.539-0.816c-1.107-0.428-2.217-0.913-3.208-1.691
		C491.362,96.89,492.509,97.24,493.636,97.628z M526.067,108.902c1.108,0.428,2.217,0.934,3.208,1.691
		c-1.244-0.078-2.411-0.409-3.538-0.817c-1.109-0.427-2.218-0.933-3.208-1.69C523.773,108.163,524.92,108.493,526.067,108.902z
		 M472.152,157.57c1.107,0.447,2.217,0.934,3.208,1.691c-1.244-0.078-2.392-0.408-3.538-0.816c-1.109-0.428-2.217-0.933-3.209-1.69
		C469.858,156.831,471.024,157.162,472.152,157.57z M515.568,167.055c1.107,0.427,2.217,0.933,3.208,1.691
		c-1.244-0.078-2.411-0.408-3.538-0.817c-1.109-0.427-2.217-0.932-3.209-1.69C513.274,166.316,514.44,166.647,515.568,167.055z
		 M468.77,118.736c1.107,0.447,2.216,0.934,3.207,1.691c-1.243-0.077-2.391-0.408-3.539-0.816c-1.107-0.428-2.216-0.914-3.207-1.69
		C466.494,117.998,467.641,118.348,468.77,118.736z"/>
	<path fill="#263238" d="M481.193,119.961c0.311,4.373,1.321,8.668,2.274,12.925c0.973,4.315,2.313,8.493,3.598,12.711
		c0.019,0.097,0.175,0.039,0.154-0.058c-1.107-4.237-1.886-8.572-2.838-12.849c-0.934-4.275-1.595-8.609-2.684-12.827
		C481.621,119.572,481.173,119.689,481.193,119.961z"/>
	<path fill="#263238" d="M480.824,101.457c6.609-1.652,13.317-2.935,20.006-4.198c6.708-1.264,13.416-2.565,20.143-3.674
		c3.812-0.621,7.603-1.263,11.434-1.769c0.097-0.02,0.154,0.155,0.039,0.175c-6.611,1.652-13.299,2.975-19.988,4.276
		c-6.688,1.321-13.415,2.565-20.143,3.751c-3.791,0.661-7.603,1.263-11.433,1.77C480.707,101.827,480.629,101.516,480.824,101.457z"
		/>
	<path fill="#263238" d="M461.964,159.786c-1.05-0.934-2.216-1.711-3.325-2.585c-1.068-0.837-2.158-1.673-3.227-2.509
		c-2.197-1.69-4.414-3.382-6.611-5.072c-4.394-3.401-8.71-6.899-13.064-10.359c-2.489-1.963-4.939-3.965-7.39-5.986
		c-0.097-0.078-0.232,0.059-0.136,0.155c2.994,2.818,6.027,5.617,9.138,8.299c-0.389-0.193-0.797-0.369-1.186-0.563
		c-1.187-0.604-2.372-1.244-3.538-1.887c-0.098-0.058-0.175,0.098-0.078,0.156c1.089,0.777,2.236,1.478,3.422,2.1
		c0.583,0.311,1.166,0.602,1.77,0.875c0.292,0.136,0.583,0.271,0.875,0.368h0.02c0.699,0.603,1.419,1.205,2.139,1.788
		c4.316,3.498,8.711,6.9,13.221,10.146c1.245,0.894,2.509,1.788,3.771,2.624c1.361,0.894,2.646,1.865,4.064,2.643
		C461.945,160.038,462.061,159.883,461.964,159.786z"/>
	<path fill="#263238" d="M405.268,132.983l-6.668-10.127l-6.281,8.515l2.567,7.541l7.116,0.154L405.268,132.983z"/>
	<path fill="#263238" d="M402.002,139.066l11.821,78.601l-12.015,27.696l-10.83-28.57l3.907-77.881L402.002,139.066z"/>
	<path fill="#F7A9A0" d="M396.208,122.118c6.94,1.69,18.937-8.863,23.72-17.435c0.331-0.583-0.544-6.822-1.244-14.422
		c-0.408-4.626-0.738-9.776-0.72-14.499l-29.708,7.017c0,0,2.858,9.932,2.741,18.173c-0.019,0.68-0.097,1.321-0.214,1.943
		c-0.02,0.098-0.039,0.194-0.039,0.33C390.122,106.861,389.48,120.486,396.208,122.118z"/>
	<path fill="#263238" d="M415.865,76.229c-0.895,6.259-5.153,26.861-22.088,27.133c-1.108,0.02-2.139-0.039-3.053-0.175
		c0.02-0.117,0.039-0.214,0.039-0.311c0.137-0.622,0.215-1.264,0.215-1.944c0.097-8.24-2.742-18.172-2.742-18.172L415.865,76.229z"
		/>
	<path fill="#F7A9A0" d="M424.809,42.584c2.274,10.749-5.949,40.525-13.998,46.608c-11.666,8.824-29.438,8.183-36.611-5.539
		c-6.941-13.295,4.451-51.895,13.318-57.298C400.602,18.425,421.464,26.686,424.809,42.584z"/>
	<path fill="#263238" d="M398.288,60.233c0.039-0.077,0.136,0.137,0.098,0.214c-0.603,1.982-0.973,4.373,0.661,5.54
		c0.059,0.038,0.02,0.136-0.039,0.116C396.889,65.19,397.395,62.021,398.288,60.233z"/>
	<path fill="#263238" d="M400.66,58.619c3.306,0.622,1.789,7.172-1.264,6.589C396.383,64.645,397.898,58.095,400.66,58.619z"/>
	<path fill="#263238" d="M386.195,57.221c0-0.078-0.176,0.058-0.194,0.136c-0.409,2.041-1.206,4.314-3.188,4.567
		c-0.059,0-0.078,0.116,0,0.116C385.105,62.235,386.156,59.222,386.195,57.221z"/>
	<path fill="#263238" d="M384.873,54.694c-3.208-0.991-4.958,5.481-1.982,6.414C385.807,62.002,387.557,55.51,384.873,54.694z"/>
	<path fill="#A6A6A6" d="M403.927,56.229c-0.836-0.427-1.536-0.972-2.333-1.477c-0.895-0.583-1.652-0.934-2.08-1.963
		c-0.234-0.545,0.096-1.342,0.603-1.633c1.186-0.642,2.45-0.214,3.538,0.446c1.187,0.7,1.925,1.556,2.412,2.838
		C406.514,55.704,405.035,56.793,403.927,56.229z"/>
	<path fill="#A6A6A6" d="M383.104,50.806c0.934,0.059,1.828-0.038,2.761-0.077c1.05-0.039,1.905,0.039,2.8-0.622
		c0.486-0.35,0.604-1.205,0.311-1.71c-0.68-1.147-2.002-1.419-3.266-1.438c-1.381,0-2.45,0.35-3.52,1.225
		C381.12,49.037,381.859,50.729,383.104,50.806z"/>
	<path fill="#263238" d="M395.216,78.931c-0.602,0.369-1.225,0.913-1.983,0.797c-0.719-0.098-1.478-0.603-2.061-1.011
		c-0.058-0.039-0.136,0.019-0.115,0.077c0.35,0.895,1.34,1.633,2.313,1.691c0.953,0.058,1.595-0.642,2.003-1.419
		C395.43,78.969,395.294,78.892,395.216,78.931z"/>
	<path fill="#263238" d="M394.479,72.38c-1.537,1.497-3.422,2.08-5.309,2.021c-0.836-0.02-1.691-0.194-2.508-0.447
		c-0.156-0.038-0.331-0.097-0.467-0.155c-0.137-0.058-0.272-0.097-0.428-0.175c-0.233-0.097-0.312-0.311-0.312-0.544v-0.02
		c0.021-0.078,0.039-0.136,0.058-0.194c0,0,0,0,0-0.02l0.039-0.175c0.312-1.574,1.012-3.906,1.012-3.906
		c-0.642,0.155-3.85,0.796-3.616,0c1.944-6.667,4.122-14.072,7.466-20.272c0.097-0.214,0.428-0.078,0.35,0.136
		c-1.613,6.473-4.375,12.614-6.104,19.087c1.011-0.137,2.664-0.447,3.479-0.233c0.215,0.116-1.418,4.489-1.516,5.209
		c0,0,0,0.039,0,0.077c2.547,0.934,4.705,0.603,7.66-0.583C394.497,72.07,394.633,72.244,394.479,72.38z"/>
	<path fill="#263238" d="M387.73,73.624c0,0,1.051,2.138,2.84,3.168c0.66,0.389,1.398,0.622,2.234,0.544
		c1.711-0.136,2.022-1.613,1.965-2.954c-0.059-1.107-0.369-2.099-0.369-2.099S391.6,74.072,387.73,73.624z"/>
	<path fill="#FF9CBD" d="M390.57,76.792c0.66,0.389,1.398,0.622,2.234,0.544c1.711-0.136,2.022-1.613,1.965-2.954
		C392.98,74.246,391.036,75.102,390.57,76.792z"/>
	<g opacity="0.2">
		<path d="M395.158,46.278c-1.069-0.116-2.158-0.194-3.208-0.466c-1.07-0.272-2.062-0.758-3.13-1.011
			c-2.043-0.486-4.064-0.292-6.203-0.039c-0.176,0.02-0.176,0.136,0,0.116c2.178-0.194,4.375-0.194,6.475,0.525
			c1.75,0.622,3.344,1.127,5.21,1.244c4.122,0.291,8.108,1.107,11.375,3.79c0.019,0.019,0.058-0.02,0.019-0.039
			C402.779,47.891,398.949,46.705,395.158,46.278z"/>
		<path d="M395.857,43.459c-1.03-0.116-2.041-0.194-3.053-0.446c-1.011-0.253-1.963-0.72-2.974-0.953
			c-1.925-0.446-3.851-0.271-5.872-0.038c-0.175,0.019-0.175,0.136,0,0.116c2.061-0.175,4.141-0.194,6.145,0.505
			c1.672,0.584,3.168,1.069,4.957,1.187c3.908,0.271,7.699,1.049,10.791,3.596c0.02,0.019,0.039-0.02,0.02-0.039
			C403.07,44.995,399.455,43.867,395.857,43.459z"/>
	</g>
	<path fill="#A6A6A6" d="M421.853,68.24c0,0,10.402-17.162,9.449-27.074c-0.427-4.49-6.552-7.503-6.552-7.503
		s1.828-5.462-3.189-10.204c-5.307-4.995-18.158-3.887-18.158-3.887s-8.322-12.031-20.104-7.27s-4.122,18.114-4.122,18.114
		s-4.336,6.123,6.223,10.943c10.285,4.684,31.303,0.097,31.303,0.097s-1.711,10.768,0.311,21.769
		C417.77,67.288,421.853,68.24,421.853,68.24z"/>
	<path fill="#A6A6A6" d="M401.38,19.708c2.604-1.127,5.463-1.516,8.282-1.516c2.508,0,5.094,0.311,7.466,1.166
		c4.239,1.516,8.011,4.646,8.711,9.31c0.351,2.333-0.253,4.626-1.653,6.512c-0.058,0.077-0.175-0.02-0.115-0.098
		c2.722-3.362,1.302-8.61-1.518-11.448c-3.188-3.188-8.049-4.411-12.424-4.606c-2.936-0.116-5.833,0.331-8.691,0.914
		C401.282,20,401.225,19.786,401.38,19.708z"/>
	<path fill="#A6A6A6" d="M374.859,17.959c0.973-3.305,3.811-5.423,6.98-6.434c3.616-1.146,7.621-0.933,11.16,0.389
		c3.616,1.36,6.708,3.79,9.119,6.764c0.058,0.059-0.059,0.156-0.117,0.098c-4.434-5.248-11.355-8.222-18.218-6.783
		c-3.072,0.642-6.125,2.216-7.544,5.15c-1.303,2.683-1.03,6.103,0.253,8.746c1.594,3.266,4.53,5.734,7.563,7.6
		c0.077,0.039,0.02,0.155-0.059,0.117c-2.955-1.594-5.697-3.596-7.544-6.453C374.725,24.49,373.926,21.088,374.859,17.959z"/>
	<path fill="#F7A9A0" d="M416.156,66.666c0,0,7.894-9.019,12.055-6.103c4.161,2.915-2.508,16.521-7.934,17.881
		c-5.404,1.361-6.784-3.614-6.784-3.614L416.156,66.666z"/>
	<path fill="#263238" d="M426.208,64.412c0.078,0,0.098,0.116,0.02,0.136c-3.811,1.088-6.104,4.257-7.835,7.619
		c1.225-1.225,2.8-1.808,4.452-0.331c0.078,0.078-0.02,0.214-0.117,0.175c-1.458-0.485-2.565-0.35-3.714,0.739
		c-0.815,0.777-1.418,1.788-2.021,2.701c-0.213,0.312-0.777,0.078-0.602-0.291c0.019-0.02,0.019-0.059,0.039-0.078
		C416.837,70.456,421.153,64.334,426.208,64.412z"/>
	<path fill="#455A64" d="M398.872,70.826c4.063,0.544,8.127-1.711,9.721-5.676c1.886-4.704-0.407-10.049-5.094-11.934
		c-4.705-1.886-10.052,0.408-11.938,5.092c-1.886,4.685,0.408,10.049,5.094,11.915C397.395,70.534,398.133,70.729,398.872,70.826z
		 M401.127,53.858c0.643,0.078,1.283,0.253,1.905,0.506c4.063,1.633,6.047,6.259,4.413,10.34c-1.633,4.063-6.26,6.045-10.323,4.412
		s-6.047-6.259-4.414-10.32C394.089,55.335,397.607,53.392,401.127,53.858z"/>
	<path fill="#455A64" d="M378.496,65.52c3.48,0.467,7.115-2.683,8.281-7.327c0.604-2.333,0.486-4.724-0.291-6.687
		c-0.816-2.041-2.256-3.421-4.063-3.887c-1.808-0.467-3.733,0.058-5.425,1.477c-1.633,1.36-2.857,3.401-3.46,5.734
		c-1.245,4.897,0.719,9.64,4.354,10.573C378.107,65.461,378.301,65.5,378.496,65.52z M381.665,48.746
		c0.155,0.02,0.312,0.059,0.466,0.097c1.42,0.351,2.567,1.478,3.229,3.149c0.699,1.729,0.777,3.848,0.252,5.928
		c-1.088,4.237-4.394,7.095-7.389,6.316c-2.994-0.758-4.549-4.839-3.479-9.076c0.524-2.1,1.614-3.907,3.053-5.093
		C379.021,49.019,380.382,48.572,381.665,48.746z"/>
	<path fill="#455A64" d="M391.6,59.417l0.992-0.72c-1.07-1.477-3.792-3.79-6.553-2.021l0.661,1.03
		C389.189,56.132,391.503,59.281,391.6,59.417z"/>
	<path fill="#455A64" d="M430.641,71.779l1.187-0.272c-0.136-0.563-1.341-5.481-3.888-6.569c-2.372-1.03-18.686-3.576-19.385-3.693
		l-0.195,1.205c4.687,0.72,17.247,2.799,19.094,3.596C429.144,66.764,430.33,70.417,430.641,71.779z"/>
	<path fill="#EBEBEB" d="M390.764,102.546l8.303,17.025l20.162-23.557l6.63,6.647c0,0-18.781,36.502-19.034,34.927l-8.225-14.538
		l-9.664,11.176l-0.972-26.297L390.764,102.546z"/>
	<path fill="#263238" d="M387.73,121.263c-0.02-4.354-0.155-8.727,0.039-13.081c0-0.155,0.233-0.232,0.291-0.058
		c1.148,4.12,1.109,20.758,1.4,24.723c0.02-0.02,0.039-0.039,0.039-0.039c0.408-0.486,8.982-9.854,9.08-9.718
		c1.73,2.273,7.758,12.866,8.186,13.838c2.975-5.792,14.427-26.919,18.023-32.458c0.097-0.156,0.35-0.059,0.271,0.136
		c-2.565,6.083-17.692,34.499-17.945,34.441c-0.176,0.155-7.641-12.886-8.613-15.374c-1.419,2.021-10.013,12.517-10.091,11.875
		C387.906,131.214,387.75,125.616,387.73,121.263z"/>
	<path fill="#F7A9A0" d="M311.69,232.088c7.135,10.204,26.539,12.147,74.972,21.633c6.707,1.322,28.697-43.479,21.602-45.248
		c-8.926-2.235-44.039-8.939-46.664-9.115C339.436,197.958,306.848,225.169,311.69,232.088z"/>
	<path fill="#F7A9A0" d="M398.58,206.258c0,0,20.512,3.09,30.798,8.066c13.765,6.646,22.903,18.056,26.442,23.051
		c7.388,10.457,18.043,40.854,9.818,45.441c-7.446,4.16-16.76-27.463-16.76-27.463s14.815,30.67,4.938,34.033
		c-9.877,3.362-18.607-33.955-18.607-33.955s14.524,31.856,3.772,33.702c-8.107,1.399-17.927-31.953-17.927-31.953
		s12.288,27.463,4.005,29.271c-9.156,1.981-20.143-28.223-20.143-28.223c-21.834,1.03-32.645-7.404-39.624-14.324
		C363.641,242.215,398.58,206.258,398.58,206.258z"/>
	<path fill="#263238" d="M444.446,244.431c1.866,3.537,3.791,7.113,5.347,10.806c1.555,3.693,2.974,7.444,4.16,11.273
		c2.936,9.368,3.306,15.705,3.247,15.316c-1.556-9.193-6.902-22.488-8.438-26.182c-1.555-3.692-2.916-7.443-4.452-11.137
		C444.251,244.392,444.387,244.353,444.446,244.431z"/>
	<path fill="#263238" d="M430.991,249.775c2.196,4.626,4.531,9.136,6.533,13.858c1.982,4.704,3.441,9.33,5.094,14.15
		c0.136,0.368-0.116,0.311-0.253-0.059c-1.848-4.762-3.908-8.999-5.813-13.742c-1.886-4.723-3.616-9.543-5.677-14.169
		C430.855,249.756,430.952,249.717,430.991,249.775z"/>
	<path fill="#263238" d="M418.626,252.302c3.713,6.9,6.144,14.461,8.36,21.944c0.116,0.368-0.194,0.271-0.33-0.098
		c-2.646-7.347-4.667-13.139-8.283-21.711C418.334,252.302,418.548,252.147,418.626,252.302z"/>
	<path fill="#FFC727" d="M402.857,206.257l-42.424,47.229c0,0-42.912-9.854-49.23-20.854c-4.16-7.249,28.134-36.579,52.535-33.158
		L402.857,206.257z"/>
	<path opacity="0.1" enable-background="new    " d="M365.177,235.742c0.175,1.243,0.583,2.371,1.069,3.46
		c0.525,1.088,1.089,2.138,1.925,3.07c-0.175-1.244-0.583-2.371-1.069-3.46C366.596,237.725,366.014,236.675,365.177,235.742z
		 M335.702,233.099c0.486,1.088,0.913,2.216,1.069,3.46c-0.836-0.933-1.419-1.982-1.925-3.071c-0.486-1.089-0.914-2.216-1.069-3.46
		C334.613,230.961,335.196,232.011,335.702,233.099z M356.739,223.167c1.089-0.486,2.216-0.913,3.461-1.069
		c-0.935,0.836-1.983,1.419-3.072,1.924c-1.089,0.486-2.217,0.914-3.461,1.069C354.6,224.255,355.65,223.692,356.739,223.167z
		 M335.721,210.164c-0.428,1.127-0.933,2.216-1.691,3.207c0.077-1.244,0.408-2.41,0.816-3.537c0.428-1.128,0.933-2.216,1.692-3.207
		C336.46,207.871,336.129,209.037,335.721,210.164z M378.729,220.388c-0.428,1.127-0.933,2.215-1.691,3.207
		c0.078-1.244,0.408-2.41,0.816-3.538c0.429-1.127,0.934-2.216,1.691-3.207C379.468,218.094,379.137,219.26,378.729,220.388z
		 M396.169,209.192c-1.128-0.427-2.216-0.933-3.208-1.69c1.244,0.078,2.411,0.409,3.539,0.816c1.107,0.428,2.216,0.934,3.208,1.691
		C398.443,209.931,397.297,209.581,396.169,209.192z M360.044,205.286c-1.128-0.429-2.216-0.934-3.208-1.691
		c1.244,0.077,2.411,0.408,3.539,0.816c1.127,0.428,2.216,0.933,3.208,1.69C362.318,206.024,361.172,205.674,360.044,205.286z
		 M346.667,246.802c-1.127-0.428-2.216-0.933-3.208-1.691c1.245,0.077,2.411,0.408,3.539,0.816c1.107,0.427,2.216,0.933,3.208,1.691
		C348.962,247.54,347.795,247.21,346.667,246.802z M314.781,223.264c0.875,0.156,1.711,0.408,2.547,0.7
		c1.128,0.447,2.217,0.933,3.228,1.69c-1.264-0.077-2.411-0.428-3.539-0.815c-0.875-0.331-1.711-0.7-2.508-1.206
		C314.587,223.517,314.684,223.381,314.781,223.264z"/>
	<path fill="#263238" d="M334.632,207.19c3.929-2.856,15.011-9.483,29.126-7.716c0.116,0.021,0.137,0.214,0,0.214
		c-10.654-0.291-25.023,5.268-29.029,7.677C334.632,207.424,334.535,207.249,334.632,207.19z"/>
	<path fill="#263238" d="M348.825,245.597c4.396-5.443,9.061-10.652,13.747-15.841c4.685-5.19,9.371-10.398,14.193-15.471
		c2.721-2.877,5.424-5.754,8.262-8.533c0.078-0.078,0.215,0.039,0.137,0.117c-4.374,5.441-9.041,10.67-13.688,15.879
		c-4.666,5.229-9.371,10.398-14.136,15.549c-2.683,2.896-5.424,5.753-8.263,8.533C348.962,245.946,348.709,245.752,348.825,245.597z
		"/>
	<path fill="#263238" d="M402.936,205.655c-2.586-0.854-5.27-1.302-7.953-1.807c-2.683-0.506-5.365-0.953-8.049-1.38
		c-5.347-0.856-16.584-3.285-26.461-3.266c-0.117,0,0.446,0.524,0.563,0.524c4.705-0.253,38.399,6.453,41.18,6.647
		c-0.116,0.175-0.214,0.37-0.292,0.563c-0.058,0.137,0.078,0.312,0.233,0.214c0.35-0.233,0.603-0.524,0.913-0.777
		C403.324,206.141,403.266,205.752,402.936,205.655z"/>
</g>
</svg>
