<svg width="15" height="15" viewBox="0 0 15 15" fill="none" xmlns="http://www.w3.org/2000/svg">
<path d="M0 7.5C0 3.35786 3.35786 0 7.5 0C11.6421 0 15 3.35786 15 7.5C15 11.6421 11.6421 15 7.5 15C3.35786 15 0 11.6421 0 7.5Z" fill="url(#paint0_linear_40_30)"/>
<g clip-path="url(#clip0_40_30)">
<path d="M11.5714 11.1136C11.5628 11.1365 11.5531 11.1589 11.5456 11.1821C11.4208 11.5667 10.9559 11.6968 10.6496 11.4327C10.6243 11.4108 10.6008 11.3868 10.5773 11.3634C9.50634 10.2933 8.43559 9.22324 7.36511 8.15266C7.34163 8.12919 7.32337 8.10051 7.29754 8.0674C7.26153 8.10156 7.23753 8.12346 7.21457 8.1464C6.13574 9.22428 5.05639 10.3016 3.97886 11.3811C3.80118 11.5589 3.59533 11.6171 3.36078 11.5331C2.99891 11.4038 2.88437 10.9511 3.13327 10.6586C3.15858 10.6289 3.18676 10.6018 3.21441 10.5741C4.28516 9.50379 5.3559 8.43373 6.42717 7.36393C6.45065 7.34047 6.47987 7.32274 6.52396 7.28858C6.47856 7.2539 6.44673 7.23461 6.42143 7.20932C5.34442 6.13378 4.26742 5.05799 3.19093 3.98167C2.92351 3.71416 2.93734 3.32436 3.23033 3.11837C3.31356 3.05997 3.42261 3.03859 3.51967 3C3.54211 3 3.56428 3 3.58672 3C3.79049 3.02477 3.93137 3.14914 4.07017 3.28837C5.11744 4.3394 6.16783 5.3873 7.21744 6.43598C7.23857 6.4571 7.26101 6.47743 7.30249 6.5168C7.32363 6.48578 7.3385 6.45423 7.36172 6.43102C8.40846 5.38312 9.45703 4.33757 10.5025 3.28837C10.641 3.14914 10.7816 3.02451 10.9857 3C11.0081 3 11.0303 3 11.0527 3C11.1539 3.04146 11.262 3.07118 11.3543 3.12698C11.4785 3.20181 11.5291 3.33531 11.5716 3.46854C11.5716 3.52982 11.5716 3.59135 11.5716 3.65262C11.5307 3.8221 11.4216 3.94465 11.3013 4.06432C10.2468 5.11483 9.19482 6.16794 8.14104 7.21923C8.11834 7.24191 8.0852 7.25416 8.04528 7.27841C8.09642 7.32196 8.12147 7.34021 8.14312 7.36185C9.19821 8.41574 10.2523 9.47068 11.3089 10.523C11.4274 10.6411 11.5325 10.7629 11.5716 10.9298C11.5714 10.9908 11.5714 11.0523 11.5714 11.1136Z" fill="#272727"/>
</g>
<defs>
<linearGradient id="paint0_linear_40_30" x1="5.06493" y1="0" x2="5.06493" y2="27.8571" gradientUnits="userSpaceOnUse">
<stop stop-color="#F8E79A"/>
<stop offset="0.442708" stop-color="#CFB287"/>
<stop offset="1" stop-color="#CFB185"/>
</linearGradient>
<clipPath id="clip0_40_30">
<rect width="8.57143" height="8.57143" fill="white" transform="translate(3 3)"/>
</clipPath>
</defs>
</svg>
