<svg width="292" height="163" viewBox="0 0 292 163" fill="none" xmlns="http://www.w3.org/2000/svg">
<circle cx="55.5" cy="107.5" r="55.5" fill="#5CA980"/>
<path opacity="0.7" d="M49.4 133.7H54.38V135.1H49.4V133.7ZM53.78 133.7H55.24C55.24 133.7 55.24 134.14 55.24 134.34C55.14 138.86 55.02 140.54 54.6 141.1C54.28 141.46 53.96 141.6 53.4 141.66C52.88 141.72 51.98 141.7 51 141.66C50.96 141.22 50.8 140.64 50.58 140.26C51.48 140.34 52.36 140.34 52.7 140.34C52.98 140.34 53.18 140.32 53.32 140.14C53.62 139.78 53.72 138.28 53.78 133.96V133.7ZM59.42 127.22L60.32 126.28C61.56 126.92 63.14 127.88 63.92 128.58L62.98 129.6C62.22 128.9 60.68 127.88 59.42 127.22ZM62.28 132.64L63.78 133C62.08 138.22 59.1 142.08 55 144.5C54.78 144.2 54.22 143.58 53.9 143.28C57.96 141.12 60.78 137.46 62.28 132.64ZM49.52 129.6H65V131.08H49.52V129.6ZM48.56 129.6H50.12V135.24C50.12 138.08 49.8 142.12 47.98 144.74C47.72 144.44 47.08 143.92 46.72 143.74C48.38 141.28 48.56 137.84 48.56 135.22V129.6ZM56.86 126.24H58.42C58.38 135.44 60.34 142.94 62.94 142.94C63.5 142.94 63.76 141.9 63.88 139.24C64.22 139.58 64.78 139.92 65.18 140.06C64.9 143.48 64.34 144.46 62.82 144.46C58.74 144.46 56.94 135.82 56.86 126.24ZM67.24 131.96H84.82V133.48H67.24V131.96ZM76.98 132.56C78.28 137.4 81 141.44 85.16 143.16C84.78 143.5 84.28 144.14 84.02 144.56C79.7 142.52 76.98 138.3 75.48 132.92L76.98 132.56ZM75.22 126.22H76.84C76.76 131.46 76.72 140.58 67.98 144.58C67.74 144.18 67.26 143.64 66.84 143.34C75.34 139.64 75.18 131.02 75.22 126.22ZM89.6 143.18H102.62V144.1H89.6V143.18ZM89.6 141.5H102.62V142.38H89.6V141.5ZM87.34 135.88H104.72V136.92H87.34V135.88ZM88.52 137.84H103.72V144.6H102.3V138.74H89.9V144.6H88.52V137.84ZM90.82 127.9L91.78 128.12C91.48 128.98 90.94 129.86 90.36 130.44C90.18 130.32 89.76 130.06 89.5 129.94C90.12 129.38 90.56 128.66 90.82 127.9ZM96.8 130.52H102.7V131.5H96.8V130.52ZM90.72 128.88H95.32V129.7H90.72V128.88ZM89.52 130.6H95.76V131.46H89.52V130.6ZM98.08 126.72H101.84V127.82H98.08V126.72ZM102.4 130.52H102.66L102.9 130.48L103.64 130.76C102.58 133.5 99.86 134.84 96.9 135.48C96.78 135.18 96.52 134.74 96.3 134.48C98.96 134.04 101.52 132.84 102.4 130.7V130.52ZM98.5 131.4C99.52 133.16 101.9 134.26 104.9 134.62C104.62 134.88 104.28 135.38 104.12 135.72C100.94 135.2 98.52 133.84 97.34 131.7L98.5 131.4ZM97.48 126.72H98.68V127.82C98.68 128.84 98.28 129.94 96.6 130.72C96.44 130.46 96 129.98 95.76 129.8C97.22 129.2 97.48 128.48 97.48 127.76V126.72ZM101.24 126.72H102.46V128.6C102.46 128.9 102.46 129.04 102.54 129.1C102.58 129.16 102.68 129.16 102.82 129.16C102.94 129.16 103.2 129.16 103.36 129.16C103.5 129.16 103.68 129.16 103.74 129.12C103.82 129.1 103.9 129.02 103.94 128.88C104 128.72 104.02 128.36 104.02 127.92C104.26 128.12 104.64 128.3 104.96 128.4C104.92 128.9 104.86 129.44 104.74 129.64C104.64 129.84 104.46 129.98 104.24 130.08C104.04 130.16 103.7 130.18 103.44 130.18C103.24 130.18 102.74 130.18 102.56 130.18C102.22 130.18 101.78 130.1 101.56 129.88C101.32 129.66 101.24 129.38 101.24 128.52V126.72ZM92.18 129.22H93.2V130.6C93.2 131.64 92.82 133.02 90.24 133.92C90.1 133.68 89.8 133.34 89.56 133.14C91.9 132.52 92.18 131.4 92.18 130.58V129.22ZM93.56 136.42H94.78V138.2C94.78 139.42 94.18 140.66 90.94 141.42C90.78 141.14 90.46 140.74 90.2 140.52C93.16 140.04 93.56 139.02 93.56 138.2V136.42ZM97.06 136.44H98.26V139.38C98.26 139.78 98.38 139.84 99.08 139.84C99.4 139.84 101.28 139.84 101.72 139.84C102.1 139.84 102.22 139.84 102.26 139.76C102.5 139.9 102.94 139.98 103.24 140.04C103.14 140.5 102.8 140.66 101.88 140.66C101.58 140.66 99.28 140.66 98.96 140.66C97.42 140.66 97.06 140.44 97.06 139.36V136.44ZM92.14 132L92.76 131.36C93.74 131.84 94.96 132.58 95.6 133.12L94.96 133.82C94.34 133.3 93.12 132.52 92.14 132ZM96.06 126.92V127.9H89.1V134.06H96.18V135.02H87.9V126.92H96.06ZM107.24 139.42H124.76V140.66H107.24V139.42ZM110.78 135.9H120.02V137.04H110.78V135.9ZM115.24 138.3H116.72V143.04C116.72 143.82 116.56 144.2 115.9 144.4C115.3 144.6 114.26 144.62 112.66 144.62C112.58 144.22 112.36 143.7 112.16 143.34C113.38 143.38 114.52 143.36 114.84 143.34C115.16 143.32 115.24 143.26 115.24 143V138.3ZM119.68 135.9H120.04L120.36 135.82L121.26 136.58C119.94 137.64 118 138.68 116.34 139.34C116.16 139.1 115.8 138.72 115.6 138.54C117.06 137.98 118.8 136.96 119.68 136.16V135.9ZM107.48 133.38H124.56V137.04H123.08V134.54H108.92V137.04H107.48V133.38ZM108.68 127.08L110.54 127.54C110.5 127.64 110.38 127.72 110.14 127.76L110.52 133.96H109.14L108.68 127.08ZM122.02 126.96H123.44C123.32 129.26 123.12 132.24 122.92 134.02H121.48C121.72 132.2 121.92 129.2 122.02 126.96ZM118.74 126.96H122.58V128H118.74V126.96ZM112.58 126.38L113.36 127.22C112.28 127.72 110.76 128.1 109.66 128.34L109 127.52C110.1 127.3 111.66 126.74 112.58 126.38ZM109.56 129.1H113.2V130.12H109.56V129.1ZM109.66 131.22H113.3V132.26H109.66V131.22ZM118.82 129.1H122.42V130.12H118.82V129.1ZM118.74 131.22H122.28V132.26H118.74V131.22ZM116.92 126.4L117.98 126.72C117.06 127.92 115.58 129.06 114.24 129.8C114.06 129.6 113.62 129.24 113.38 129.06C114.74 128.4 116.12 127.44 116.92 126.4ZM113.94 127.24L114.68 126.6C115.86 127.18 117.3 128.14 118 128.84L117.22 129.54C116.54 128.84 115.12 127.88 113.94 127.24ZM117.12 129.72L118.2 130.04C117.26 131.3 115.68 132.5 114.3 133.26C114.12 133.08 113.68 132.7 113.42 132.52C114.84 131.84 116.3 130.82 117.12 129.72ZM114.08 130.64L114.82 130.02C116.02 130.62 117.48 131.62 118.2 132.34L117.4 133.06C116.72 132.34 115.28 131.32 114.08 130.64ZM131.96 138.12H139.76V139.28H131.96V138.12ZM131.22 141.1H140.04V142.26H131.22V141.1ZM132.8 138.54H134V141.66H132.8V138.54ZM132.34 127.76H139.1V131.32H137.84V128.88H132.34V127.76ZM131.7 130.62H140.3V131.84H131.7V130.62ZM134.64 126.2L135.94 126.3C135.7 127.96 135.32 130.06 135.04 131.34H133.7C134.04 129.98 134.4 127.82 134.64 126.2ZM133.58 133.9V135.8H138.12V133.9H133.58ZM132.42 132.84H139.38V136.86H132.42V132.84ZM136 136.66H137.36V144.6H136V136.66ZM140.24 127.44H144.9V128.82H140.24V127.44ZM139.9 132.82H145.26V134.2H139.9V132.82ZM142.1 133.4H143.52V142.84C143.52 143.66 143.36 144.1 142.8 144.34C142.26 144.58 141.38 144.6 140.06 144.6C140 144.2 139.82 143.58 139.64 143.16C140.64 143.18 141.5 143.18 141.76 143.18C142.04 143.16 142.1 143.1 142.1 142.84V133.4ZM129.96 126.2L131.32 126.72C130.34 128.32 128.78 130.12 127.36 131.32C127.18 131.02 126.78 130.46 126.54 130.2C127.82 129.16 129.24 127.52 129.96 126.2ZM130.38 130.22L131.7 130.68C130.56 133.04 128.82 135.56 127.2 137.2C127.04 136.9 126.58 136.2 126.32 135.9C127.82 134.46 129.38 132.32 130.38 130.22ZM128.94 133.86L130.3 132.48V132.52V144.58H128.94V133.86ZM148.44 134.4H154.48V135.62H148.44V134.4ZM147.62 128.3H154.16V129.62H147.62V128.3ZM146.82 131.58H156.52V132.9H146.82V131.58ZM150.26 126.2H151.68V132.28H150.26V126.2ZM155.58 126.66L156.98 127.08C154.96 132.04 151.66 135.8 147.48 138.18C147.26 137.88 146.72 137.3 146.4 137.04C150.58 134.9 153.78 131.28 155.58 126.66ZM151.06 137.08H152.48V143C152.48 143.78 152.32 144.16 151.78 144.38C151.22 144.58 150.36 144.6 149.08 144.6C149 144.22 148.8 143.66 148.6 143.28C149.6 143.3 150.44 143.3 150.72 143.3C151 143.28 151.06 143.22 151.06 143V137.08ZM154.18 134.4H154.48L154.76 134.32L155.64 134.96C154.7 136.12 153.32 137.36 152.14 138.14C151.96 137.88 151.6 137.54 151.36 137.34C152.38 136.66 153.58 135.5 154.18 134.64V134.4ZM146.72 139.3C149.16 139.08 152.96 138.7 156.6 138.3V139.62C153.12 140 149.44 140.4 146.9 140.68L146.72 139.3ZM158.08 129.94H165.2V131.34H158.08V129.94ZM158.62 126.2L160.12 126.44C159.44 130.2 158.24 133.76 156.58 136.04C156.32 135.78 155.68 135.26 155.34 135.02C156.96 132.94 158.02 129.64 158.62 126.2ZM162.46 130.7L163.98 130.86C163.02 137.78 160.9 142.06 155.86 144.66C155.7 144.32 155.26 143.64 154.96 143.32C159.72 141.08 161.64 137.06 162.46 130.7ZM158.84 131.12C159.72 136.64 161.62 141.38 165.36 143.34C165 143.64 164.52 144.22 164.3 144.62C160.38 142.32 158.48 137.42 157.48 131.34L158.84 131.12Z" fill="#152F2B"/>
<g clip-path="url(#clip0_9_93)">
<path d="M92.25 50.5402C92.25 52.1202 92.53 53.2102 93.09 53.8102C93.65 54.4102 94.68 54.7102 96.17 54.7102V55.0202H82.72V54.7102C83.72 54.7102 84.44 54.5902 84.9 54.3402C85.36 54.0902 85.66 53.6802 85.8 53.0902C85.94 52.5102 86.02 51.6602 86.02 50.5402V32.1202C86.02 28.7202 85.57 26.2502 84.68 24.7102C83.79 23.1802 82.49 22.4102 80.79 22.4102C78.92 22.4102 76.37 23.3002 73.13 25.0902C74 26.6302 74.44 28.7402 74.44 31.4402V50.5502C74.44 52.1302 74.72 53.2202 75.28 53.8202C75.84 54.4202 76.87 54.7202 78.36 54.7202V55.0302H64.92V54.7202C65.92 54.7202 66.64 54.6002 67.1 54.3502C67.56 54.1002 67.86 53.6902 68 53.1002C68.15 52.5202 68.22 51.6702 68.22 50.5502V32.1202C68.22 28.7202 67.77 26.2502 66.88 24.7102C65.99 23.1802 64.67 22.4102 62.93 22.4102C61.27 22.4102 59.07 23.1202 56.33 24.5302V50.5502C56.33 52.2502 56.64 53.3702 57.26 53.9102C57.88 54.4502 58.88 54.7202 60.25 54.7202V55.0302H46V54.7202C47.37 54.7202 48.37 54.4602 48.99 53.9402C49.61 53.4202 49.92 52.2902 49.92 50.5502V27.0802C49.92 25.7902 49.57 25.1502 48.86 25.1502C48.53 25.1502 48.04 25.2902 47.4 25.5602C46.76 25.8202 46.29 26.0002 46 26.0802V25.7702L56.33 21.4102V23.9602C60.27 22.2602 63.61 21.4102 66.35 21.4102C69.34 21.4102 71.52 22.4502 72.89 24.5202C77.29 22.4502 81.04 21.4102 84.16 21.4102C89.55 21.4102 92.25 24.7502 92.25 31.4302V50.5402Z" fill="white"/>
<path d="M100.59 38.3399C101.05 41.9099 101.95 44.8999 103.3 47.2999C104.65 49.7099 106.25 51.4899 108.09 52.6499C109.94 53.8099 111.88 54.3899 113.91 54.3899C116.36 54.3899 118.58 53.5799 120.57 51.9599C122.56 50.3399 123.91 48.1399 124.62 45.3599H124.93C124.27 48.5599 122.61 51.0699 119.95 52.8899C117.29 54.7199 114.29 55.6299 110.93 55.6299C107.98 55.6299 105.26 54.8599 102.74 53.3299C100.23 51.7999 98.24 49.7199 96.76 47.1099C95.29 44.4999 94.55 41.6299 94.55 38.5199C94.55 35.8599 95.0701 33.3799 96.1101 31.0799C97.1501 28.7799 98.5601 26.8299 100.34 25.2299C102.12 23.6299 104.14 22.5399 106.38 21.9599C107.83 21.5899 109.2 21.3999 110.49 21.3999C113.31 21.3999 115.84 22.1799 118.08 23.7299C120.32 25.2899 122.06 27.3599 123.31 29.9499C124.55 32.5399 125.18 35.3299 125.18 38.3199H100.59V38.3399ZM102.05 26.4199C100.91 28.7199 100.34 31.4699 100.34 34.6699C100.34 35.7899 100.4 36.9099 100.53 38.0299H118.77C118.81 37.5699 118.83 36.8699 118.83 35.9099C118.83 33.0899 118.43 30.6099 117.65 28.4699C116.86 26.3299 115.76 24.6799 114.35 23.5199C112.94 22.3599 111.32 21.7799 109.5 21.7799C108.84 21.7799 108.05 21.8799 107.13 22.0899C104.88 22.6799 103.19 24.1199 102.05 26.4199Z" fill="white"/>
<path d="M155.24 50.54C155.24 52.24 155.55 53.36 156.17 53.9C156.79 54.44 157.79 54.71 159.16 54.71V55.02H149.01V54.09C147.85 54.71 146.71 55.13 145.59 55.34C144.55 55.55 143.64 55.65 142.85 55.65C140.48 55.65 138.2 55.08 136 53.94C133.8 52.8 131.91 51.18 130.34 49.08C128.76 46.99 127.68 44.61 127.1 41.95C126.85 40.71 126.73 39.46 126.73 38.22C126.73 35.65 127.27 33.2 128.35 30.88C129.43 28.56 130.96 26.6 132.96 25C134.95 23.4 137.28 22.31 139.93 21.73C141.13 21.48 142.27 21.36 143.35 21.36C145.22 21.36 147.1 21.69 149.01 22.36V6.41C148.97 5.25 148.9 4.48 148.79 4.11C148.69 3.74 148.43 3.55 148.01 3.55C147.64 3.55 146.66 3.86 145.08 4.48V4.17L155.24 0V50.54ZM149.01 53.72V23.03C147.18 22.12 145.34 21.66 143.47 21.66C142.6 21.66 141.83 21.74 141.17 21.91C138.35 22.53 136.23 24.07 134.82 26.52C133.41 28.97 132.7 31.9 132.7 35.3C132.7 38.37 133.24 41.41 134.32 44.42C135.4 47.43 136.89 49.9 138.8 51.83C140.71 53.76 142.85 54.72 145.21 54.72C146.58 54.71 147.85 54.38 149.01 53.72Z" fill="white"/>
<path d="M158.85 55.02V54.71C160.22 54.71 161.22 54.44 161.84 53.9C162.46 53.36 162.77 52.24 162.77 50.54V27.82C162.73 26.66 162.66 25.89 162.55 25.52C162.45 25.15 162.19 24.96 161.77 24.96C161.4 24.96 160.42 25.27 158.84 25.89V25.58L168.99 21.41V50.54C168.99 52.24 169.3 53.36 169.92 53.9C170.54 54.44 171.54 54.71 172.91 54.71V55.02H158.85ZM162.86 11.7C163.67 10.91 164.63 10.52 165.75 10.52C166.91 10.52 167.89 10.91 168.68 11.7C169.47 12.49 169.86 13.46 169.86 14.63C169.86 15.75 169.46 16.71 168.68 17.52C167.89 18.33 166.92 18.73 165.75 18.73C164.63 18.73 163.66 18.33 162.86 17.52C162.05 16.71 161.65 15.75 161.65 14.63C161.65 13.47 162.05 12.49 162.86 11.7Z" fill="white"/>
<path d="M171.23 38.5298C171.23 35.3298 171.95 32.4298 173.38 29.8198C174.81 27.2098 176.79 25.1498 179.32 23.6598C181.85 22.1698 184.74 21.4198 187.97 21.4198C189.67 21.4198 191.31 21.6098 192.89 21.9798C194.3 22.3098 195.5 22.4798 196.5 22.4798C198.33 22.4798 199.49 21.9198 199.99 20.7998H200.36L201.6 31.7498H201.29C200.5 28.5998 198.89 26.1398 196.47 24.3698C194.04 22.6098 191.25 21.7198 188.1 21.7198C186.56 21.7198 185.11 21.9298 183.74 22.3398C179.18 23.6698 176.89 27.3398 176.89 33.3598C176.89 34.6498 176.99 36.0598 177.2 37.5898C177.7 41.3698 178.63 44.5198 180 47.0498C181.37 49.5798 182.98 51.4398 184.82 52.6198C186.67 53.7998 188.59 54.3898 190.58 54.3898C192.99 54.3898 195.19 53.5698 197.18 51.9298C199.17 50.2898 200.54 48.0998 201.29 45.3598H201.6C200.94 48.5598 199.28 51.0698 196.62 52.8898C193.96 54.7198 190.96 55.6298 187.6 55.6298C184.65 55.6298 181.93 54.8598 179.41 53.3298C176.9 51.7998 174.91 49.7198 173.43 47.1098C171.97 44.4998 171.23 41.6398 171.23 38.5298Z" fill="white"/>
<path d="M232.17 47.1201C231.46 49.7301 230.52 51.8101 229.34 53.3401C228.16 54.8801 227.03 55.6401 225.95 55.6401C225.08 55.6401 224.36 55.1101 223.8 54.0501C223.24 52.9901 222.94 51.4301 222.9 49.3501C222.24 51.0901 221.27 52.4901 220.01 53.5501C218.74 54.6101 216.91 55.2801 214.5 55.5701C213.67 55.6501 213.05 55.6901 212.63 55.6901C210.64 55.6901 208.9 55.3301 207.43 54.6001C205.96 53.8701 204.82 52.9001 204.01 51.6701C203.2 50.4501 202.8 49.0901 202.8 47.5901C202.8 45.4301 203.66 43.3301 205.38 41.2701C207.1 39.2201 209.68 37.5001 213.13 36.1401C216.03 34.9801 218.4 33.6901 220.23 32.2801C222.06 30.8701 222.99 29.5401 223.03 28.3001C222.99 26.3501 222.26 24.8001 220.85 23.6601C219.44 22.5201 217.8 21.9501 215.93 21.9501C214.15 21.9501 212.61 22.4701 211.32 23.5101C210.03 24.5501 209.39 26.0201 209.39 27.9301C209.39 29.8801 210.16 32.1201 211.69 34.6501L204.59 31.1001C204.92 29.1101 205.75 27.3801 207.08 25.9001C208.41 24.4301 210.04 23.3101 211.97 22.5401C213.9 21.7701 215.9 21.3901 217.98 21.3901C220.01 21.3901 221.89 21.7801 223.61 22.5701C225.33 23.3601 226.72 24.5501 227.78 26.1501C228.84 27.7501 229.37 29.7101 229.37 32.0301V46.9101C229.37 48.4501 229.4 49.5901 229.46 50.3301C229.52 51.0801 229.66 51.4501 229.86 51.4501C230.19 51.4501 230.86 50.0001 231.85 47.0901H232.17V47.1201ZM221.68 51.1901C222.65 49.6301 223.14 47.6101 223.14 45.1201V29.1201C223.14 29.7401 222.5 30.7301 221.21 32.0801C219.92 33.4301 217.14 34.9501 212.87 36.6601C211.42 37.2401 210.33 38.2301 209.6 39.6201C208.87 41.0101 208.51 42.6001 208.51 44.3801C208.51 46.0401 208.82 47.6701 209.44 49.2701C210.06 50.8701 210.93 52.1601 212.05 53.1601C213.17 54.1601 214.44 54.6501 215.85 54.6501C216.39 54.6501 217.01 54.5501 217.72 54.3401C219.39 53.8001 220.7 52.7501 221.68 51.1901Z" fill="white"/>
<path d="M241.07 53.9C241.69 54.44 242.69 54.71 244.06 54.71V55.02H229.99V54.71C231.36 54.71 232.36 54.44 232.98 53.9C233.6 53.36 233.91 52.24 233.91 50.54V6.41C233.87 5.25 233.8 4.48 233.69 4.11C233.59 3.74 233.33 3.55 232.91 3.55C232.54 3.55 231.56 3.86 229.98 4.48V4.17L240.13 0V50.54C240.13 52.24 240.45 53.36 241.07 53.9Z" fill="white"/>
<path d="M54.62 98.3199C55.08 101.89 55.98 104.88 57.33 107.28C58.68 109.69 60.28 111.47 62.12 112.63C63.97 113.79 65.91 114.37 67.94 114.37C70.39 114.37 72.61 113.56 74.6 111.94C76.59 110.32 77.94 108.12 78.65 105.34H78.96C78.3 108.54 76.64 111.05 73.98 112.87C71.32 114.7 68.32 115.61 64.96 115.61C62.01 115.61 59.29 114.84 56.77 113.31C54.26 111.78 52.27 109.7 50.79 107.09C49.32 104.48 48.58 101.61 48.58 98.4999C48.58 95.8399 49.1 93.3599 50.14 91.0599C51.18 88.7599 52.59 86.8099 54.37 85.2099C56.15 83.6099 58.17 82.5199 60.41 81.9399C61.86 81.5699 63.23 81.3799 64.52 81.3799C67.34 81.3799 69.87 82.1599 72.11 83.7099C74.35 85.2699 76.09 87.3399 77.34 89.9299C78.58 92.5199 79.21 95.3099 79.21 98.2999H54.62V98.3199ZM56.08 86.3999C54.94 88.6999 54.37 91.4499 54.37 94.6499C54.37 95.7699 54.43 96.8899 54.56 98.0099H72.8C72.84 97.5499 72.86 96.8499 72.86 95.8899C72.86 93.0699 72.46 90.5899 71.68 88.4499C70.89 86.3099 69.79 84.6599 68.38 83.4999C66.97 82.3399 65.35 81.7599 63.53 81.7599C62.87 81.7599 62.08 81.8599 61.16 82.0699C58.92 82.6599 57.22 84.0999 56.08 86.3999Z" fill="white"/>
<path d="M109.27 110.52C109.27 112.22 109.58 113.34 110.2 113.88C110.82 114.42 111.82 114.69 113.19 114.69V115H103.05V114.07C101.89 114.69 100.75 115.11 99.63 115.32C98.59 115.53 97.68 115.63 96.89 115.63C94.52 115.63 92.24 115.06 90.04 113.92C87.84 112.78 85.95 111.16 84.38 109.06C82.8 106.97 81.72 104.59 81.14 101.93C80.89 100.69 80.77 99.44 80.77 98.2C80.77 95.63 81.31 93.18 82.39 90.86C83.47 88.54 85 86.58 87 84.98C88.99 83.38 91.32 82.29 93.97 81.71C95.17 81.46 96.31 81.34 97.39 81.34C99.26 81.34 101.14 81.67 103.05 82.34V66.39C103.01 65.23 102.94 64.46 102.83 64.09C102.73 63.72 102.47 63.53 102.05 63.53C101.68 63.53 100.7 63.84 99.12 64.46V64.15L109.27 59.98V110.52ZM103.05 113.7V83.01C101.22 82.1 99.38 81.64 97.51 81.64C96.64 81.64 95.87 81.72 95.21 81.89C92.39 82.51 90.27 84.05 88.86 86.5C87.45 88.95 86.74 91.88 86.74 95.28C86.74 98.35 87.28 101.39 88.36 104.4C89.44 107.41 90.93 109.88 92.84 111.81C94.75 113.74 96.89 114.7 99.25 114.7C100.62 114.69 101.88 114.36 103.05 113.7Z" fill="white"/>
<path d="M143.5 115C141.26 115 139.18 114.79 137.28 114.38C135.37 113.96 134.08 113.61 133.42 113.32C130.18 114.86 127.32 115.62 124.83 115.62C121.43 115.62 118.93 114.36 117.33 111.82C115.73 109.29 114.93 106.34 114.93 102.98V87.0599C114.93 85.7699 114.58 85.1299 113.87 85.1299C113.54 85.1299 113.05 85.2699 112.41 85.5399C111.77 85.8099 111.3 85.9899 111.01 86.0699V85.7599L121.16 81.3999V104.99C121.16 107.85 121.49 110.24 122.16 112.15C122.82 114.06 124.32 115.01 126.64 115.01C128.47 115.01 130.71 114.28 133.36 112.83V87.0599C133.36 85.7699 133.01 85.1299 132.3 85.1299C131.97 85.1299 131.48 85.2699 130.84 85.5399C130.2 85.8099 129.73 85.9899 129.44 86.0699V85.7599L139.59 81.3999V110.53C139.59 112.23 139.9 113.35 140.52 113.89C141.14 114.43 142.14 114.7 143.51 114.7V115H143.5Z" fill="white"/>
<path d="M142.26 98.5098C142.26 95.3098 142.98 92.4098 144.41 89.7998C145.84 87.1898 147.82 85.1298 150.35 83.6398C152.88 82.1498 155.77 81.3998 159 81.3998C160.7 81.3998 162.34 81.5898 163.92 81.9598C165.33 82.2898 166.53 82.4598 167.53 82.4598C169.36 82.4598 170.52 81.8998 171.02 80.7798H171.39L172.63 91.7298H172.32C171.53 88.5798 169.92 86.1198 167.5 84.3498C165.07 82.5898 162.28 81.6998 159.13 81.6998C157.59 81.6998 156.14 81.9098 154.77 82.3198C150.21 83.6498 147.92 87.3198 147.92 93.3398C147.92 94.6298 148.02 96.0398 148.23 97.5698C148.73 101.35 149.66 104.5 151.03 107.03C152.4 109.56 154.01 111.42 155.85 112.6C157.7 113.78 159.62 114.37 161.61 114.37C164.02 114.37 166.22 113.55 168.21 111.91C170.2 110.27 171.57 108.08 172.32 105.34H172.63C171.97 108.54 170.31 111.05 167.65 112.87C164.99 114.7 161.99 115.61 158.63 115.61C155.68 115.61 152.96 114.84 150.44 113.31C147.93 111.78 145.94 109.7 144.46 107.09C142.99 104.48 142.26 101.62 142.26 98.5098Z" fill="white"/>
<path d="M203.19 107.1C202.48 109.71 201.54 111.79 200.36 113.32C199.18 114.86 198.05 115.62 196.97 115.62C196.1 115.62 195.38 115.09 194.82 114.03C194.26 112.97 193.96 111.41 193.92 109.33C193.26 111.07 192.29 112.47 191.03 113.53C189.76 114.59 187.93 115.26 185.52 115.55C184.69 115.63 184.07 115.67 183.65 115.67C181.66 115.67 179.92 115.31 178.45 114.58C176.98 113.85 175.84 112.88 175.03 111.65C174.22 110.43 173.82 109.07 173.82 107.57C173.82 105.41 174.68 103.31 176.4 101.25C178.12 99.2001 180.7 97.4801 184.15 96.1201C187.05 94.9601 189.42 93.6701 191.25 92.2601C193.08 90.8501 194.01 89.5201 194.05 88.2801C194.01 86.3301 193.28 84.7801 191.87 83.6401C190.46 82.5001 188.82 81.9301 186.95 81.9301C185.17 81.9301 183.63 82.4501 182.34 83.4901C181.05 84.5301 180.41 86.0001 180.41 87.9101C180.41 89.8601 181.18 92.1001 182.71 94.6301L175.61 91.0801C175.94 89.0901 176.77 87.3601 178.1 85.8801C179.43 84.4101 181.06 83.2901 182.99 82.5201C184.92 81.7501 186.92 81.3701 189 81.3701C191.03 81.3701 192.91 81.7601 194.63 82.5501C196.35 83.3401 197.74 84.5301 198.8 86.1301C199.86 87.7301 200.39 89.6901 200.39 92.0101V106.89C200.39 108.43 200.42 109.57 200.48 110.31C200.54 111.06 200.68 111.43 200.88 111.43C201.21 111.43 201.88 109.98 202.87 107.07H203.19V107.1ZM192.71 111.18C193.68 109.62 194.17 107.6 194.17 105.11V89.1101C194.17 89.7301 193.53 90.7201 192.24 92.0701C190.95 93.4201 188.17 94.9401 183.9 96.6501C182.45 97.2301 181.36 98.2201 180.63 99.6101C179.9 101 179.54 102.59 179.54 104.37C179.54 106.03 179.85 107.66 180.47 109.26C181.09 110.86 181.96 112.15 183.08 113.15C184.2 114.15 185.47 114.64 186.88 114.64C187.42 114.64 188.04 114.54 188.75 114.33C190.41 113.78 191.73 112.73 192.71 111.18Z" fill="white"/>
<path d="M218.75 108.47C214.85 113.24 211.69 115.63 209.29 115.63C207.63 115.63 206.43 114.61 205.68 112.58C204.93 110.55 204.56 107.87 204.56 104.55V81.7002H201.57V81.3902H204.56V74.1102L210.78 71.4302V81.3902H215.2V81.7002H210.78V104.85L210.72 107.9C210.72 109.56 210.84 110.87 211.09 111.82C211.34 112.78 211.82 113.25 212.52 113.25C213.81 113.25 215.82 111.57 218.56 108.21L218.75 108.47Z" fill="white"/>
<path d="M214.71 115V114.69C216.08 114.69 217.08 114.42 217.7 113.88C218.32 113.34 218.63 112.22 218.63 110.52V87.8C218.59 86.64 218.52 85.87 218.41 85.5C218.31 85.13 218.05 84.94 217.63 84.94C217.26 84.94 216.28 85.25 214.7 85.87V85.56L224.85 81.39V110.52C224.85 112.22 225.16 113.34 225.78 113.88C226.4 114.42 227.4 114.69 228.77 114.69V115H214.71ZM218.72 71.68C219.53 70.89 220.49 70.5 221.61 70.5C222.77 70.5 223.75 70.89 224.54 71.68C225.33 72.47 225.72 73.44 225.72 74.61C225.72 75.73 225.32 76.69 224.54 77.5C223.75 78.31 222.78 78.71 221.61 78.71C220.49 78.71 219.52 78.31 218.72 77.5C217.91 76.69 217.51 75.73 217.51 74.61C217.51 73.45 217.91 72.47 218.72 71.68Z" fill="white"/>
<path d="M240.29 81.7001C241.49 81.4501 242.68 81.3301 243.84 81.3301C246.45 81.3301 248.9 81.9001 251.18 83.0401C253.46 84.1801 255.39 85.7901 256.97 87.8601C258.55 89.9401 259.63 92.3001 260.21 94.9601C260.46 96.1201 260.58 97.3001 260.58 98.5101C260.58 101.08 260.02 103.55 258.9 105.92C257.78 108.29 256.22 110.3 254.23 111.96C252.24 113.62 249.96 114.72 247.38 115.26C246.18 115.51 244.99 115.63 243.83 115.63C241.22 115.63 238.77 115.05 236.49 113.89C234.21 112.73 232.28 111.11 230.7 109.03C229.12 106.96 228.04 104.59 227.46 101.93C227.21 100.69 227.09 99.4401 227.09 98.2001C227.09 95.6301 227.63 93.1801 228.71 90.8601C229.79 88.5401 231.32 86.5801 233.32 84.9801C235.31 83.3801 237.63 82.2901 240.29 81.7001ZM247.39 114.94C249.84 114.36 251.68 112.91 252.93 110.58C254.17 108.26 254.8 105.48 254.8 102.24C254.8 99.0901 254.25 95.9201 253.15 92.7501C252.05 89.5801 250.51 86.9601 248.54 84.9101C246.57 82.8601 244.38 81.8301 241.97 81.8301C241.39 81.8301 240.83 81.8901 240.29 82.0201C237.84 82.5601 236.01 84.0001 234.78 86.3501C233.56 88.6901 232.94 91.5301 232.94 94.8501C232.94 98.0501 233.48 101.22 234.56 104.37C235.64 107.52 237.13 110.12 239.04 112.15C240.95 114.18 243.11 115.2 245.51 115.2C245.93 115.19 246.56 115.11 247.39 114.94Z" fill="white"/>
<path d="M287.22 110.52C287.22 112.1 287.5 113.19 288.06 113.79C288.62 114.39 289.65 114.69 291.14 114.69V115H277.7V114.69C278.7 114.69 279.42 114.57 279.88 114.32C280.34 114.07 280.64 113.66 280.78 113.07C280.93 112.49 281 111.64 281 110.52V92.0999C281 88.6999 280.55 86.2299 279.66 84.6899C278.77 83.1599 277.45 82.3899 275.71 82.3899C274.05 82.3899 271.85 83.0999 269.11 84.5099V110.53C269.11 112.23 269.42 113.35 270.04 113.89C270.66 114.43 271.66 114.7 273.03 114.7V115H258.78V114.69C260.15 114.69 261.15 114.43 261.77 113.91C262.39 113.39 262.7 112.26 262.7 110.52V87.0599C262.7 85.7699 262.35 85.1299 261.64 85.1299C261.31 85.1299 260.82 85.2699 260.18 85.5399C259.54 85.8099 259.07 85.9899 258.78 86.0699V85.7599L269.11 81.3999V83.9499C273.05 82.2499 276.39 81.3999 279.13 81.3999C284.52 81.3999 287.22 84.7399 287.22 91.4199V110.52Z" fill="white"/>
</g>
<defs>
<clipPath id="clip0_9_93">
<rect width="245.14" height="115.69" fill="white" transform="translate(46)"/>
</clipPath>
</defs>
</svg>
