<svg xmlns="http://www.w3.org/2000/svg" style="background: rgba(0, 0, 0, 0);" preserveAspectRatio="xMidYMid" viewBox="158.85 64.29 182.31 22.24"><defs><filter id="editing-hole" x="-100%" y="-100%" width="300%" height="300%"><feFlood flood-color="rgba(0%,0%,0%,0.872)" result="black"/><feMorphology operator="dilate" radius="2" in="SourceGraphic" result="erode"/><feGaussianBlur in="erode" stdDeviation="4" result="blur"/><feOffset in="blur" dx="2" dy="2" result="offset"/><feComposite operator="atop" in="offset" in2="black" result="merge"/><feComposite operator="in" in="merge" in2="SourceGraphic" result="inner-shadow"/></filter></defs><g filter="url(#editing-hole)"><g transform="translate(159.1850012242794, 86.11999702453613)"><path d="M19.58-0.61L19.58 0L12.61 0L12.61-0.61L14.82-0.61L12.44-7.17L4.96-7.17L2.58-0.61L4.79-0.61L4.79 0L-0.34 0L-0.34-0.61L0.92-0.61L0.92-0.61Q1.39-0.61 1.56-1.09L1.56-1.09L9.04-21.42L10.20-21.42L17.68-1.09L17.68-1.09Q17.85-0.61 18.33-0.61L18.33-0.61L19.58-0.61ZM12.10-8.13L8.74-17.41L5.34-8.13L12.10-8.13ZM33.97-21.42L39.27-21.42L39.27-20.81L37.67-20.81L37.67-20.81Q37.20-20.81 37.20-20.40L37.20-20.40L37.20-6.63L37.20-6.63Q37.20-3.09 35.16-1.34L35.16-1.34L35.16-1.34Q33.12 0.41 29.68 0.41L29.68 0.41L29.68 0.41Q26.25 0.41 24.21-1.34L24.21-1.34L24.21-1.34Q22.17-3.09 22.17-6.63L22.17-6.63L22.17-20.40L22.17-20.40Q22.17-20.81 21.69-20.81L21.69-20.81L20.09-20.81L20.09-21.42L27.03-21.42L27.03-20.81L25.43-20.81L25.43-20.81Q24.96-20.81 24.96-20.40L24.96-20.40L24.96-6.39L24.96-6.39Q24.96-3.54 26.37-2.16L26.37-2.16L26.37-2.16Q27.78-0.78 30.21-0.78L30.21-0.78L30.21-0.78Q32.64-0.78 34.34-2.16L34.34-2.16L34.34-2.16Q36.04-3.54 36.04-6.63L36.04-6.63L36.04-20.40L36.04-20.40Q36.04-20.81 35.56-20.81L35.56-20.81L33.97-20.81L33.97-21.42ZM48.21 0.41L48.21 0.41L48.21 0.41Q45.97 0.41 43.72-0.82L43.72-0.82L43.72-0.82Q42.98-1.19 42.70-1.19L42.70-1.19L42.70-1.19Q42.19-1.19 42.16-0.48L42.16-0.48L42.13 0L41.48 0L41.48-5.68L42.09-5.68L42.09-5.68Q42.40-3.06 44.05-1.82L44.05-1.82L44.05-1.82Q45.70-0.58 47.96-0.58L47.96-0.58L47.96-0.58Q50.22-0.58 51.39-1.80L51.39-1.80L51.39-1.80Q52.56-3.03 52.56-4.69L52.56-4.69L52.56-4.69Q52.56-7.34 49.50-8.70L49.50-8.70L45.46-10.51L45.46-10.51Q43.62-11.32 42.70-12.73L42.70-12.73L42.70-12.73Q41.79-14.14 41.79-15.78L41.79-15.78L41.79-15.78Q41.79-18.26 43.45-20.04L43.45-20.04L43.45-20.04Q45.12-21.83 48.25-21.83L48.25-21.83L48.25-21.83Q50.08-21.83 52.02-20.60L52.02-20.60L52.02-20.60Q52.67-20.23 52.90-20.23L52.90-20.23L52.90-20.23Q53.35-20.23 53.38-20.94L53.38-20.94L53.41-21.62L54.06-21.62L54.06-15.74L53.45-15.74L53.45-15.74Q53.18-18.36 51.77-19.60L51.77-19.60L51.77-19.60Q50.35-20.84 48.33-20.84L48.33-20.84L48.33-20.84Q46.31-20.84 45.20-19.74L45.20-19.74L45.20-19.74Q44.10-18.63 44.10-17.22L44.10-17.22L44.10-17.22Q44.10-15.81 44.86-14.69L44.86-14.69L44.86-14.69Q45.63-13.57 47.12-12.92L47.12-12.92L51.20-11.12L51.20-11.12Q53.24-10.20 54.28-8.72L54.28-8.72L54.28-8.72Q55.32-7.24 55.32-5.54L55.32-5.54L55.32-5.54Q55.32-3.13 53.38-1.36L53.38-1.36L53.38-1.36Q51.44 0.41 48.21 0.41ZM69.12 0L57.87 0L57.87-0.61L59.47-0.61L59.47-0.61Q59.94-0.61 59.94-1.09L59.94-1.09L59.94-20.40L59.94-20.40Q59.94-20.81 59.47-20.81L59.47-20.81L57.87-20.81L57.87-21.42L68.65-21.42L68.65-21.42Q71.33-21.42 72.42-21.73L72.42-21.73L72.42-21.73Q72.11-20.33 72.11-17.85L72.11-17.85L72.11-16.25L71.33-16.25L70.82-19.72L70.82-19.72Q70.75-20.47 69.87-20.47L69.87-20.47L62.73-20.47L62.73-11.19L69.56-11.19L69.56-11.19Q69.97-11.19 70.04-11.66L70.04-11.66L70.21-13.77L70.82-13.77L70.82-7.65L70.21-7.65L70.04-9.76L70.04-9.76Q69.97-10.23 69.56-10.23L69.56-10.23L62.73-10.23L62.73-0.95L70.35-0.95L70.35-0.95Q71.23-0.95 71.30-1.70L71.30-1.70L71.81-5.68L72.59-5.68L72.59-4.08L72.59-4.08Q72.59-1.09 72.90 0.31L72.90 0.31L72.90 0.31Q71.81 0 69.12 0L69.12 0ZM81.19-20.81L79.49-20.81L84.01-12.72L89.18-20.81L87.48-20.81L87.48-21.42L92.14-21.42L92.14-20.81L90.88-20.81L90.88-20.81Q90.58-20.81 90.24-20.33L90.24-20.33L84.63-11.63L90.54-1.09L90.54-1.09Q90.78-0.61 91.19-0.61L91.19-0.61L92.45-0.61L92.45 0L85.85 0L85.85-0.61L87.55-0.61L82.72-9.21L77.21-0.61L78.91-0.61L78.91 0L74.26 0L74.26-0.61L75.51-0.61L75.51-0.61Q75.82-0.61 76.16-1.09L76.16-1.09L82.11-10.30L76.50-20.33L76.50-20.33Q76.26-20.81 75.85-20.81L75.85-20.81L74.60-20.81L74.60-21.42L81.19-21.42L81.19-20.81ZM106.73-20.47L102.34-20.47L102.34-1.02L102.34-1.02Q102.34-0.61 102.82-0.61L102.82-0.61L105.77-0.61L105.77 0L96.12 0L96.12-0.61L99.08-0.61L99.08-0.61Q99.55-0.61 99.55-1.02L99.55-1.02L99.55-20.47L95.17-20.47L95.17-20.47Q94.28-20.47 94.21-19.72L94.21-19.72L93.70-15.74L92.92-15.74L92.92-17.34L92.92-17.34Q92.92-20.33 92.62-21.73L92.62-21.73L92.62-21.73Q93.70-21.42 96.39-21.42L96.39-21.42L105.50-21.42L105.50-21.42Q108.19-21.42 109.28-21.73L109.28-21.73L109.28-21.73Q108.97-20.33 108.97-17.34L108.97-17.34L108.97-15.74L108.19-15.74L107.68-19.72L107.68-19.72Q107.61-20.47 106.73-20.47L106.73-20.47ZM112.71-1.09L112.71-1.09L112.71-20.40L112.71-20.40Q112.71-20.81 112.23-20.81L112.23-20.81L110.64-20.81L110.64-21.42L117.57-21.42L117.57-20.81L115.97-20.81L115.97-20.81Q115.50-20.81 115.50-20.40L115.50-20.40L115.50-1.09L115.50-1.09Q115.50-0.61 115.97-0.61L115.97-0.61L117.57-0.61L117.57 0L110.64 0L110.64-0.61L112.23-0.61L112.23-0.61Q112.71-0.61 112.71-1.09ZM136.37 0L135.73 0L135.69-0.48L135.69-0.48Q135.66-1.19 135.15-1.19L135.15-1.19L135.15-1.19Q134.88-1.19 134.16-0.82L134.16-0.82L134.16-0.82Q131.95 0.41 129.71 0.41L129.71 0.41L129.71 0.41Q125.43 0.41 122.69-2.55L122.69-2.55L122.69-2.55Q119.95-5.51 119.95-10.69L119.95-10.69L119.95-10.69Q119.95-15.88 122.66-18.85L122.66-18.85L122.66-18.85Q125.36-21.83 129.71-21.83L129.71-21.83L129.71-21.83Q131.92-21.83 134.13-20.71L134.13-20.71L134.13-20.71Q134.84-20.33 135.15-20.33L135.15-20.33L135.15-20.33Q135.66-20.33 135.69-21.05L135.69-21.05L135.73-21.62L136.37-21.62L136.37-15.74L135.76-15.74L135.76-15.74Q135.46-18.36 133.81-19.60L133.81-19.60L133.81-19.60Q132.16-20.84 129.71-20.84L129.71-20.84L129.71-20.84Q126.62-20.84 124.73-18.12L124.73-18.12L124.73-18.12Q122.84-15.40 122.84-10.68L122.84-10.68L122.84-10.68Q122.84-5.95 124.75-3.26L124.75-3.26L124.75-3.26Q126.65-0.58 129.71-0.58L129.71-0.58L129.71-0.58Q132.16-0.58 133.81-1.82L133.81-1.82L133.81-1.82Q135.46-3.06 135.76-5.68L135.76-5.68L136.37-5.68L136.37 0ZM141.17-1.09L141.17-1.09L141.17-20.40L141.17-20.40Q141.17-20.81 140.69-20.81L140.69-20.81L139.09-20.81L139.09-21.42L146.03-21.42L146.03-20.81L144.43-20.81L144.43-20.81Q143.96-20.81 143.96-20.40L143.96-20.40L143.96-1.09L143.96-1.09Q143.96-0.61 144.43-0.61L144.43-0.61L146.03-0.61L146.03 0L139.09 0L139.09-0.61L140.69-0.61L140.69-0.61Q141.17-0.61 141.17-1.09ZM161.50-20.47L157.11-20.47L157.11-1.02L157.11-1.02Q157.11-0.61 157.59-0.61L157.59-0.61L160.55-0.61L160.55 0L150.89 0L150.89-0.61L153.85-0.61L153.85-0.61Q154.33-0.61 154.33-1.02L154.33-1.02L154.33-20.47L149.94-20.47L149.94-20.47Q149.06-20.47 148.99-19.72L148.99-19.72L148.48-15.74L147.70-15.74L147.70-17.34L147.70-17.34Q147.70-20.33 147.39-21.73L147.39-21.73L147.39-21.73Q148.48-21.42 151.16-21.42L151.16-21.42L160.28-21.42L160.28-21.42Q162.96-21.42 164.05-21.73L164.05-21.73L164.05-21.73Q163.74-20.33 163.74-17.34L163.74-17.34L163.74-15.74L162.96-15.74L162.45-19.72L162.45-19.72Q162.38-20.47 161.50-20.47L161.50-20.47ZM177.34-20.81L177.34-21.42L181.97-21.42L181.97-20.81L180.71-20.81L180.71-20.81Q180.23-20.81 180.06-20.33L180.06-20.33L174.86-7.79L174.86-1.09L174.86-1.09Q174.86-0.61 175.34-0.61L175.34-0.61L177.79-0.61L177.79 0L169.15 0L169.15-0.61L171.60-0.61L171.60-0.61Q172.07-0.61 172.07-1.09L172.07-1.09L172.07-7.82L166.29-20.33L166.29-20.33Q166.06-20.81 165.65-20.81L165.65-20.81L164.39-20.81L164.39-21.42L170.88-21.42L170.88-20.81L169.18-20.81L174.39-9.52L179.04-20.81L177.34-20.81Z" fill="rgba(0%,0%,0%,0.762)"/></g></g><style>text {
  font-size: 64px;
  font-family: Arial Black;
  dominant-baseline: central;
  text-anchor: middle;
}</style></svg>