<svg width="29" height="30" viewBox="0 0 29 30" fill="none" xmlns="http://www.w3.org/2000/svg">
<g clip-path="url(#clip0_44_2053)">
<path d="M21.6741 6.62046C20.9427 5.30377 19.758 4.16603 18.1117 3.45575C15.4612 2.30936 11.7471 2.2721 8.70459 3.41479C6.2313 4.3463 4.4658 6.19584 3.52486 8.07127C1.74344 11.6213 2.05697 15.6812 3.03726 19.0754C3.46999 20.5755 4.01894 22.1404 5.02241 23.4365C5.33243 23.8338 5.63725 24.2547 6.06389 24.5749C7.11199 25.3605 8.42754 25.5283 9.8494 25.4267C10.9605 26.3634 12.5303 26.9554 14.4506 26.9344C17.5457 26.9018 20.6083 25.3736 22.4941 23.4161C23.8019 22.0605 24.4437 20.5105 24.8595 18.9565C24.9453 18.6392 24.955 18.3007 25.0084 17.9753C25.2615 17.3381 25.5032 16.6959 25.6976 16.0713C26.6922 12.8163 26.6811 8.5424 22.6892 6.86737C22.3784 6.75426 22.0262 6.68736 21.6741 6.62046Z" fill="#E06609"/>
</g>
<defs>
<clipPath id="clip0_44_2053">
<rect width="24.2801" height="24.5445" fill="white" transform="translate(0 5.13037) rotate(-12.0462)"/>
</clipPath>
</defs>
</svg>
