<?xml version="1.0" encoding="utf-8"?>
<!-- Generator: Adobe Illustrator 16.0.0, SVG Export Plug-In . SVG Version: 6.00 Build 0)  -->
<!DOCTYPE svg PUBLIC "-//W3C//DTD SVG 1.1//EN" "http://www.w3.org/Graphics/SVG/1.1/DTD/svg11.dtd">
<svg version="1.1" id="圖層_1" xmlns="http://www.w3.org/2000/svg" xmlns:xlink="http://www.w3.org/1999/xlink" x="0px" y="0px"
	 width="68px" height="64.115px" viewBox="0 0 68 64.115" enable-background="new 0 0 68 64.115" xml:space="preserve">
<path fill="#263238" d="M15.943,42.343L0,56.479l5.865,6.606l16.046-14.258l7.547,15.287l24.25-49.911L1.609,32.528L15.943,42.343z"
	/>
<path fill="#263238" d="M56.486,7.37c1.217-0.77,1.91-1.794,2.48-2.878c0.516-1.109,0.893-2.287,0.729-3.728
	c-1.232,0.762-1.926,1.786-2.479,2.878C56.717,4.759,56.34,5.937,56.486,7.37z"/>
<path fill="#263238" d="M61.039,12.498c1.422,0.323,2.619,0.083,3.795-0.295c1.16-0.43,2.258-0.999,3.166-2.113
	c-1.42-0.323-2.635-0.091-3.795,0.295C63.055,10.797,61.957,11.366,61.039,12.498z"/>
<path fill="#263238" d="M60.633,19.341c0.77,1.216,1.795,1.909,2.879,2.479c1.111,0.517,2.287,0.895,3.729,0.731
	c-0.762-1.234-1.787-1.926-2.879-2.479C63.26,19.581,62.064,19.195,60.633,19.341z"/>
<path fill="#263238" d="M55.504,23.892c-0.322,1.42-0.082,2.616,0.297,3.794c0.43,1.16,0.998,2.257,2.113,3.166
	c0.322-1.42,0.092-2.634-0.295-3.794C57.205,25.906,56.637,24.809,55.504,23.892z"/>
<path fill="#263238" d="M44.514,11.51c-0.771-1.216-1.795-1.909-2.879-2.479c-1.109-0.517-2.288-0.895-3.729-0.731
	c0.761,1.234,1.786,1.926,2.879,2.479C41.904,11.279,43.082,11.657,44.514,11.51z"/>
<path fill="#263238" d="M49.641,6.959c0.324-1.42,0.084-2.617-0.295-3.794C48.914,2.006,48.348,0.908,47.232,0
	c-0.322,1.42-0.092,2.634,0.295,3.794C47.959,4.954,48.51,6.042,49.641,6.959z"/>
</svg>
