<svg width="281" height="133" viewBox="0 0 281 133" fill="none" xmlns="http://www.w3.org/2000/svg">
<circle cx="55.5" cy="77.5" r="55.5" fill="#E06609"/>
<path opacity="0.7" d="M72.56 100.72H80.42V109.52H78.98V102.1H73.94V109.6H72.56V100.72ZM75.46 91.24H76.94V101.16H75.46V91.24ZM76.32 95.58H81.22V96.98H76.32V95.58ZM73.28 107.28H79.68V108.66H73.28V107.28ZM64.72 93.04V97.88H70.22V93.04H64.72ZM63.54 91.94H71.44V98.98H63.54V91.94ZM65 94.02L65.76 93.82C66.1 94.8 66.36 96.06 66.42 96.86L65.64 97.1C65.6 96.26 65.34 95 65 94.02ZM65.68 105.48L66.66 105.34C66.98 106.44 67.18 107.88 67.2 108.82L66.16 108.96C66.16 108.02 65.96 106.58 65.68 105.48ZM67.6 105.36L68.56 105.16C69.02 106.16 69.46 107.5 69.6 108.38L68.58 108.6C68.46 107.72 68.04 106.38 67.6 105.36ZM69.5 105.08L70.44 104.72C71.16 105.64 71.88 106.88 72.18 107.7L71.18 108.16C70.88 107.3 70.18 106.02 69.5 105.08ZM63.98 105.4L65.04 105.68C64.84 107.16 64.52 108.72 63.66 109.62L62.64 109.06C63.42 108.24 63.8 106.78 63.98 105.4ZM69.1 93.76L69.98 94.1C69.62 95.12 69.22 96.42 68.88 97.22L68.22 96.96C68.52 96.1 68.92 94.68 69.1 93.76ZM62.96 103.28C65.18 103.18 68.58 103.02 71.9 102.82L71.86 104.02C68.66 104.26 65.34 104.46 63.04 104.6L62.96 103.28ZM63.4 100.34H71.58V101.56H63.4V100.34ZM66.9 92.46H67.92V98.46H68.08V103.62H66.74V98.46H66.9V92.46ZM96.06 92.52L97.2 91.74C98.38 92.74 99.78 94.16 100.44 95.08L99.2 95.96C98.6 95 97.24 93.56 96.06 92.52ZM83.1 97.12H100.92V98.56H83.1V97.12ZM82.8 103C85.18 102.56 88.94 101.76 92.46 101L92.58 102.36C89.3 103.12 85.76 103.94 83.24 104.5L82.8 103ZM87.4 93.24H88.9V107.68C88.9 108.66 88.66 109.1 88.02 109.34C87.38 109.58 86.32 109.64 84.66 109.62C84.58 109.22 84.32 108.54 84.1 108.1C85.38 108.16 86.56 108.14 86.92 108.12C87.28 108.12 87.4 108.02 87.4 107.66V93.24ZM91.2 91.44L92.26 92.7C89.94 93.5 86.54 94.12 83.68 94.52C83.6 94.18 83.42 93.62 83.22 93.28C86.04 92.84 89.28 92.16 91.2 91.44ZM93.2 91.38H94.76C94.72 100.56 96.68 108.16 99.12 108.16C99.66 108.16 99.9 107.12 100.02 104.54C100.34 104.88 100.88 105.22 101.3 105.38C101.02 108.7 100.48 109.68 98.98 109.68C95.06 109.68 93.28 100.9 93.2 91.38ZM98.62 99.48L99.96 100.04C98 103.7 94.7 106.92 91.02 108.86C90.78 108.48 90.36 108 89.98 107.66C93.54 105.94 96.84 102.86 98.62 99.48ZM107.18 100.1H118.84V109.66H117.34V101.3H108.62V109.66H107.18V100.1ZM103.16 97.46H120.82V98.7H103.16V97.46ZM104.62 94.78H119.66V95.98H104.62V94.78ZM108.16 102.66H117.98V103.72H108.16V102.66ZM108.16 105.14H117.98V106.18H108.16V105.14ZM108.02 107.66H117.98V108.86H108.02V107.66ZM118.5 91.36L119.46 92.46C115.74 93.2 109.6 93.5 104.66 93.52C104.62 93.18 104.48 92.66 104.34 92.34C109.22 92.3 115.32 92.02 118.5 91.36ZM110.3 92.74L111.86 93.06C110.52 97.9 108.08 102.48 103.6 105.14C103.4 104.82 102.96 104.26 102.66 103.98C106.9 101.54 109.24 97.16 110.3 92.74ZM136.48 95.36L138.06 95.82C135.54 103.16 131 107.28 123.72 109.64C123.56 109.26 123.08 108.54 122.76 108.18C129.9 106.14 134.24 102.22 136.48 95.36ZM127.4 95.46C129.56 101.86 134.06 106.46 141.28 108.14C140.92 108.5 140.44 109.18 140.2 109.62C132.78 107.68 128.38 102.92 125.92 95.92L127.4 95.46ZM123 94.6H141.08V96.08H123V94.6ZM131.2 91.2H132.74V95.5H131.2V91.2ZM142.92 105.92H160.98V107.16H142.92V105.92ZM151.18 104.04H152.74V109.6H151.18V104.04ZM146.74 102.08V103.52H157.22V102.08H146.74ZM146.74 99.62V101.04H157.22V99.62H146.74ZM145.28 98.52H158.72V104.62H145.28V98.52ZM144.3 92.84H159.74V94.06H144.3V92.84ZM142.96 96.24H161.02V97.48H142.96V96.24ZM151.16 91.2H152.72V93.64H151.16V91.2ZM155.36 93.78L156.92 94.14C156.46 95.04 155.92 95.94 155.48 96.58L154.1 96.26C154.52 95.58 155.08 94.5 155.36 93.78ZM147.18 94.18L148.58 93.86C149.12 94.56 149.64 95.54 149.82 96.2L148.32 96.58C148.16 95.9 147.68 94.9 147.18 94.18Z" fill="#152F2B"/>
<g clip-path="url(#clip0_9_92)">
<path d="M103.304 69.3564C102.257 73.198 100.872 76.2596 99.1327 78.5116C97.3934 80.7784 95.7279 81.897 94.1361 81.897C92.8537 81.897 91.7925 81.1169 90.9671 79.5567C90.1417 77.9965 89.6995 75.7003 89.6406 72.6387C88.6678 75.1998 87.2381 77.2605 85.381 78.8207C83.5091 80.381 80.8118 81.3671 77.2596 81.794C76.0363 81.9117 75.1224 81.9706 74.5034 81.9706C71.5703 81.9706 69.0057 81.4407 66.839 80.3662C64.6723 79.2917 62.9921 77.864 61.7982 76.0535C60.5896 74.2873 60 72.2855 60 70.0923C60 66.913 61.2676 63.822 63.8027 60.7899C66.3379 57.7724 70.1406 55.2408 75.2256 53.239C79.5 51.5315 82.9932 49.6328 85.6905 47.5574C88.3878 45.482 89.7585 43.5244 89.8175 41.6992C89.7585 38.829 88.6825 36.5475 86.6043 34.8696C84.5261 33.1916 82.1088 32.3526 79.3526 32.3526C76.729 32.3526 74.4592 33.118 72.5578 34.6488C70.6565 36.1796 69.7132 38.3433 69.7132 41.1546C69.7132 44.0248 70.8481 47.3219 73.1032 51.0458L62.6383 45.8205C63.1247 42.8914 64.3481 40.3451 66.3084 38.1666C68.2687 36.0029 70.6712 34.3544 73.5159 33.221C76.3605 32.0876 79.3084 31.5283 82.3741 31.5283C85.3662 31.5283 88.1372 32.1024 90.6723 33.2652C93.2075 34.428 95.2562 36.1796 96.8186 38.5346C98.381 40.8897 99.1621 43.7746 99.1621 47.1894V69.0914C99.1621 71.3582 99.2063 73.0361 99.2948 74.1253C99.3832 75.2293 99.5896 75.7739 99.8843 75.7739C100.371 75.7739 101.358 73.6396 102.817 69.3564H103.304ZM87.8424 75.347C89.2721 73.0508 89.9943 70.0776 89.9943 66.4125V42.862C89.9943 43.7746 89.051 45.2318 87.1497 47.2189C85.2483 49.2059 81.1508 51.4432 74.8571 53.9602C72.72 54.8139 71.1134 56.2711 70.0374 58.317C68.9615 60.363 68.4308 62.7033 68.4308 65.3233C68.4308 67.7667 68.8878 70.1659 69.8016 72.521C70.7154 74.876 71.9977 76.7748 73.6485 78.2467C75.2993 79.7186 77.1712 80.4398 79.2494 80.4398C80.0454 80.4398 80.9592 80.2926 82.0057 79.9835C84.4671 79.1887 86.4127 77.6432 87.8424 75.347Z" fill="white"/>
<path d="M115.685 37.7398C117.763 35.9736 120.21 34.4869 123.025 33.2947C125.84 32.1024 128.434 31.5137 130.822 31.5137C133.269 31.5137 135.096 32.0877 136.32 33.2505L131.544 44.334H131.367C131.677 42.6855 131.824 41.4049 131.824 40.4923C131.824 38.0489 131.279 36.2532 130.173 35.0904C129.068 33.9276 127.638 33.3536 125.855 33.3536C123.777 33.3536 121.713 34.0895 119.664 35.5467C117.616 37.0186 116.289 38.7849 115.67 40.8603V74.3904C115.67 76.8926 116.127 78.5411 117.041 79.336C117.955 80.1308 119.429 80.5282 121.448 80.5282V80.9845H100.739V80.5282C102.759 80.5282 104.232 80.1455 105.146 79.3801C106.06 78.6147 106.517 76.9515 106.517 74.3904V39.8594C106.517 37.9606 106.001 37.0186 104.955 37.0186C104.468 37.0186 103.746 37.2247 102.803 37.6221C101.859 38.0195 101.167 38.2844 100.739 38.4022V37.9459L115.7 31.5284V37.7398H115.685Z" fill="white"/>
<path d="M162.29 71.373C156.542 78.394 151.884 81.9119 148.347 81.9119C145.9 81.9119 144.132 80.4105 143.026 77.4225C141.921 74.4346 141.375 70.4898 141.375 65.6031V31.97H136.968V31.5137H141.375V20.7982L150.543 16.8535V31.5137H157.058V31.97H150.543V66.0447L150.455 70.534C150.455 72.9774 150.632 74.9056 151 76.3039C151.368 77.7169 152.076 78.4087 153.108 78.4087C155.009 78.4087 157.972 75.9359 162.01 70.9903L162.29 71.373Z" fill="white"/>
<path d="M156.336 80.9843V80.528C158.355 80.528 159.829 80.1306 160.743 79.3358C161.656 78.5409 162.113 76.8924 162.113 74.3901V40.9484C162.054 39.241 161.951 38.1076 161.789 37.563C161.642 37.0184 161.258 36.7387 160.639 36.7387C160.094 36.7387 158.65 37.195 156.321 38.1076V37.6513L171.281 31.5135V74.3901C171.281 76.8924 171.738 78.5409 172.652 79.3358C173.566 80.1306 175.04 80.528 177.059 80.528V80.9843H156.336ZM162.246 17.2212C163.44 16.0584 164.855 15.4844 166.506 15.4844C168.215 15.4844 169.66 16.0584 170.824 17.2212C171.989 18.384 172.563 19.8118 172.563 21.5339C172.563 23.1825 171.974 24.5955 170.824 25.7877C169.66 26.98 168.23 27.5687 166.506 27.5687C164.855 27.5687 163.425 26.98 162.246 25.7877C161.052 24.5955 160.463 23.1825 160.463 21.5339C160.463 19.8265 161.052 18.384 162.246 17.2212Z" fill="white"/>
<path d="M174.583 56.7127C174.583 52.0025 175.644 47.734 177.752 43.8923C179.859 40.0507 182.778 37.0185 186.507 34.8254C190.236 32.6322 194.495 31.5283 199.256 31.5283C201.762 31.5283 204.179 31.808 206.508 32.3526C208.586 32.8383 210.355 33.0885 211.829 33.0885C214.526 33.0885 216.236 32.2643 216.973 30.6157H217.518L219.346 46.7331H218.889C217.724 42.0966 215.351 38.4757 211.785 35.8704C208.203 33.2799 204.091 31.9699 199.448 31.9699C197.178 31.9699 195.041 32.279 193.022 32.8825C186.3 34.8401 182.925 40.242 182.925 49.1029C182.925 51.0017 183.073 53.077 183.382 55.3291C184.119 60.8929 185.49 65.5294 187.509 69.2533C189.528 72.9772 191.901 75.715 194.613 77.4518C197.34 79.1887 200.17 80.0571 203.103 80.0571C206.655 80.0571 209.898 78.8502 212.831 76.4362C215.764 74.0223 217.783 70.7988 218.889 66.7658H219.346C218.373 71.4759 215.926 75.1704 212.006 77.8493C208.085 80.5428 203.663 81.8823 198.711 81.8823C194.363 81.8823 190.354 80.7489 186.639 78.4969C182.94 76.2449 180.007 73.1833 177.825 69.3416C175.673 65.4999 174.583 61.2903 174.583 56.7127Z" fill="white"/>
<path d="M233.761 79.3358C234.675 80.1307 236.149 80.5281 238.168 80.5281V80.9844H217.43V80.5281C219.449 80.5281 220.923 80.1307 221.837 79.3358C222.751 78.541 223.208 76.8925 223.208 74.3902V9.43493C223.149 7.72752 223.045 6.59415 222.883 6.04954C222.736 5.50494 222.353 5.22527 221.734 5.22527C221.188 5.22527 219.744 5.68157 217.415 6.59415V6.13786L232.39 0V74.3902C232.39 76.8925 232.847 78.541 233.761 79.3358Z" fill="white"/>
<path d="M244.771 56.4331C245.449 61.6879 246.775 66.0889 248.765 69.6214C250.755 73.1687 253.113 75.7887 255.825 77.4962C258.552 79.2036 261.411 80.0573 264.404 80.0573C268.015 80.0573 271.287 78.865 274.22 76.4805C277.153 74.096 279.143 70.8578 280.189 66.7659H280.646C279.673 71.476 277.227 75.1705 273.306 77.8494C269.385 80.543 264.964 81.8824 260.011 81.8824C255.663 81.8824 251.654 80.7491 247.94 78.4971C244.24 76.245 241.307 73.1835 239.126 69.3418C236.959 65.5001 235.868 61.2757 235.868 56.6981C235.868 52.7828 236.635 49.1325 238.168 45.7471C239.701 42.3617 241.779 39.4915 244.402 37.1364C247.026 34.7814 250.003 33.177 253.305 32.3233C255.442 31.7787 257.461 31.499 259.363 31.499C263.519 31.499 267.248 32.6471 270.55 34.9286C273.851 37.2247 276.416 40.2716 278.258 44.0838C280.086 47.8961 281.015 52.0027 281.015 56.4037H244.771V56.4331ZM246.923 38.888C245.243 42.2734 244.402 46.3211 244.402 51.0312C244.402 52.6798 244.491 54.3283 244.682 55.9769H271.567C271.626 55.2998 271.655 54.2694 271.655 52.8564C271.655 48.7056 271.066 45.0553 269.916 41.9054C268.752 38.7555 267.13 36.3269 265.052 34.6195C262.974 32.9121 260.586 32.0584 257.904 32.0584C256.931 32.0584 255.766 32.2055 254.41 32.5146C251.094 33.3831 248.603 35.5026 246.923 38.888Z" fill="white"/>
</g>
<defs>
<clipPath id="clip0_9_92">
<rect width="221" height="82" fill="white" transform="translate(60)"/>
</clipPath>
</defs>
</svg>
