<svg width="371" height="60" viewBox="0 0 371 60" fill="none" xmlns="http://www.w3.org/2000/svg">
<g clip-path="url(#clip0_3_142)">
<path d="M52.5921 1.34766H71.3791V1.69166C69.1235 1.77766 67.182 3.03901 65.526 5.41837C63.87 7.82639 62.2997 11.2951 60.7579 15.8818L45.8254 60.0003H45.34L35.6039 35.0314L27.1526 60.0003H26.6958L5.73888 6.16371C5.1964 4.8737 4.4255 3.78435 3.45475 2.95301C2.45544 2.12166 1.31338 1.69166 0 1.69166V1.34766H15.8176V1.69166C14.647 1.69166 13.7904 1.86366 13.2765 2.23633C12.7626 2.609 12.5056 3.15368 12.5056 3.87035C12.5056 4.47236 12.6769 5.2177 13.0481 6.19238L30.1505 50.2535L35.4897 34.5727L24.4117 6.19238C23.8692 4.8737 23.0983 3.78435 22.099 2.95301C21.1282 2.12166 19.9576 1.69166 18.6728 1.69166V1.34766H34.4904V1.69166C33.3198 1.69166 32.4632 1.86366 31.9493 2.23633C31.4354 2.609 31.1784 3.15368 31.1784 3.87035C31.1784 4.47236 31.3497 5.2177 31.7209 6.19238L48.8233 50.2535L58.9591 20.3252C59.73 18.1178 60.3296 16.1112 60.7864 14.3051C61.2433 12.5278 61.4717 10.8651 61.4717 9.31708C61.4717 6.96638 60.7864 5.1317 59.4445 3.78435C58.1026 2.437 55.8185 1.77766 52.6207 1.77766V1.34766H52.5921Z" fill="white"/>
<path d="M116.348 40.5354L112.094 59.341H73.0923V58.997C74.1772 58.997 75.0052 58.8823 75.6048 58.6816C76.2044 58.481 76.6327 58.051 76.9182 57.3916C77.2037 56.7323 77.3465 55.7576 77.3465 54.4389V6.16371C77.2894 4.27169 76.9182 3.03901 76.233 2.49434C75.5477 1.94966 74.4913 1.69166 73.0923 1.69166V1.34766H110.067L114.321 20.4112H113.978C112.665 14.7065 110.723 10.1484 108.154 6.76572C105.584 3.38301 102.272 1.66299 98.2177 1.66299H88.3389C86.9398 1.66299 85.8834 1.921 85.1982 2.46567C84.4844 3.01034 84.1132 4.24302 84.0847 6.13504V30.0433H91.451C95.3626 30.0433 98.3319 29.642 100.331 28.868C102.329 28.0653 103.7 26.7753 104.413 24.9979C105.127 23.2206 105.498 20.6119 105.498 17.2292H105.841L105.898 30.2726L106.041 43.3161H105.698C105.613 40.0194 105.299 37.4967 104.756 35.748C104.214 33.9994 103.271 32.738 101.872 31.9353C100.502 31.1327 98.4747 30.6453 95.8194 30.416H84.0561V54.4389C84.0561 56.3309 84.3702 57.5636 84.9698 58.137C85.5694 58.7103 86.6258 58.997 88.1104 58.997H96.6188C101.301 58.825 105.299 57.4203 108.611 54.8116C111.923 52.2029 114.378 47.4442 115.948 40.5354H116.348Z" fill="white"/>
<path d="M141.588 58.997C144.528 58.911 147.041 58.3376 149.125 57.3343C151.209 56.3309 153.094 54.4676 154.693 51.8016C156.32 49.1355 157.691 45.3801 158.804 40.5354H159.147L154.893 59.341H115.349V58.997C116.434 58.997 117.262 58.8823 117.861 58.6816C118.461 58.481 118.889 58.051 119.175 57.3916C119.46 56.7323 119.603 55.7576 119.603 54.4389V6.16371C119.546 4.35769 119.175 3.15368 118.489 2.609C117.804 2.03566 116.748 1.74899 115.349 1.69166V1.34766H130.624V1.69166C129.225 1.69166 128.168 1.94966 127.483 2.49434C126.769 3.03901 126.398 4.27169 126.37 6.16371V54.4389C126.37 55.7576 126.512 56.7323 126.798 57.3916C127.083 58.051 127.54 58.481 128.111 58.6816C128.711 58.8823 129.539 58.997 130.624 58.997H141.588Z" fill="white"/>
<path d="M212.167 42.4273C211.139 46.1253 209.369 49.336 206.914 52.002C204.458 54.6681 201.632 56.6748 198.434 58.0221C195.236 59.3695 192.01 60.0288 188.755 60.0288C183.387 60.0288 178.505 58.6815 174.079 56.0154C169.654 53.3494 166.199 49.7374 163.658 45.1793C161.145 40.6213 159.861 35.6905 159.861 30.3585C159.861 24.9404 161.145 19.9237 163.744 15.3943C166.342 10.8363 169.825 7.25289 174.251 4.64419C178.676 2.0355 183.501 0.716816 188.726 0.716816C191.239 0.716816 193.894 1.08949 196.635 1.80616C199.262 2.43684 201.432 2.75217 203.202 2.75217C206.143 2.75217 207.999 1.83483 208.827 0.0288086H209.369C210.14 7.31022 210.825 13.531 211.453 18.691H211.196C210.711 15.0216 209.369 11.8683 207.228 9.23091C205.086 6.59355 202.403 4.55819 199.176 3.18218C195.95 1.80616 192.495 1.11815 188.812 1.11815C186.414 1.11815 184.015 1.43349 181.588 2.06416C176.049 3.52618 172.024 6.24954 169.482 10.2343C166.97 14.2476 165.685 18.949 165.685 24.3957C165.685 28.5525 166.37 32.9672 167.769 37.6399C169.968 44.8353 173.166 50.196 177.306 53.6934C181.446 57.1908 185.957 58.9681 190.839 58.9681C193.951 58.9681 196.921 58.2801 199.804 56.9041C202.66 55.5281 205.143 53.5787 207.285 51.1134C209.398 48.6193 210.911 45.7526 211.825 42.4846H212.167V42.4273Z" fill="white"/>
<path d="M257.193 4.61537C261.619 7.25273 265.102 10.8361 267.7 15.3655C270.298 19.9235 271.583 24.9116 271.583 30.3297C271.583 35.805 270.298 40.7931 267.7 45.3225C265.102 49.8519 261.59 53.4352 257.193 56.0439C252.768 58.6813 247.942 59.9713 242.718 59.9713C237.493 59.9713 232.667 58.6526 228.242 56.0439C223.816 53.4066 220.333 49.8519 217.735 45.3225C215.137 40.7931 213.852 35.805 213.852 30.3297C213.852 24.9116 215.137 19.8949 217.735 15.3655C220.333 10.8074 223.816 7.22406 228.242 4.61537C232.667 2.00667 237.493 0.687988 242.718 0.687988C247.971 0.687988 252.796 1.978 257.193 4.61537ZM261.847 50.1959C264.388 45.9532 265.673 40.9938 265.673 35.289C265.673 29.8996 264.588 24.5963 262.418 19.3502C260.248 14.1041 257.25 9.80409 253.396 6.42139C249.541 3.03868 245.23 1.376 240.433 1.376C238.806 1.376 237.064 1.634 235.151 2.12134C230.012 3.52602 226.158 6.33538 223.616 10.5781C221.075 14.8208 219.791 19.7515 219.791 25.3989C219.791 30.7883 220.876 36.0917 223.045 41.3664C225.215 46.6412 228.213 50.9412 232.068 54.2953C235.922 57.678 240.234 59.3406 245.002 59.3406C246.629 59.3406 248.371 59.0826 250.284 58.5953C255.452 57.2193 259.277 54.4386 261.847 50.1959Z" fill="white"/>
<path d="M315.553 10.9224C315.467 7.79773 315.21 5.5617 314.81 4.21435L297.422 60.029H296.395L276.608 5.96304C276.209 4.8737 275.78 4.04235 275.323 3.44035L275.266 30.0433C275.209 36.608 275.552 41.9401 276.237 46.0681C276.922 50.1962 278.264 53.3782 280.263 55.6143C282.233 57.8503 285.117 58.9683 288.857 58.9683V59.3123H269.328V58.9683C271.298 58.9683 272.754 57.0189 273.61 53.1776C274.495 49.3075 274.924 43.5168 274.924 35.7767V3.12501C274.524 2.66634 273.81 2.32233 272.839 2.06433C271.84 1.80633 270.67 1.69166 269.328 1.69166V1.34766H269.385H282.176L300.106 50.2822L314.639 3.64101C314.468 3.03901 314.039 2.58034 313.354 2.20767C312.669 1.83499 312.012 1.66299 311.327 1.66299V1.34766H326.602V1.69166C325.46 1.69166 324.632 1.80633 324.061 2.007C323.49 2.20767 323.062 2.63767 322.776 3.26834C322.491 3.89902 322.348 4.8737 322.348 6.19238V54.5249C322.348 55.8436 322.491 56.8183 322.776 57.449C323.062 58.0796 323.49 58.5096 324.061 58.7103C324.632 58.911 325.46 59.0256 326.602 59.0256V59.3696H311.327V59.0256C312.755 59.0256 313.84 58.7676 314.496 58.223C315.153 57.6783 315.524 56.4743 315.581 54.6109V10.9224H315.553Z" fill="white"/>
<path d="M371 40.5354L366.746 59.341H327.744V58.997C328.829 58.997 329.657 58.8823 330.257 58.6816C330.856 58.481 331.285 58.051 331.57 57.3916C331.856 56.7323 331.998 55.7576 331.998 54.4389V6.16371C331.941 4.27169 331.57 3.03901 330.885 2.49434C330.2 1.94966 329.143 1.69166 327.744 1.69166V1.34766H364.719L368.973 20.4112H368.63C367.317 14.7065 365.375 10.1484 362.806 6.76572C360.236 3.38301 356.924 1.66299 352.87 1.66299H342.991C341.592 1.66299 340.535 1.921 339.85 2.46567C339.136 3.01034 338.765 4.24302 338.737 6.13504V30.0433H346.103C350.015 30.0433 352.984 29.642 354.983 28.868C356.981 28.0653 358.352 26.7753 359.065 24.9979C359.779 23.2206 360.15 20.6119 360.15 17.2292H360.493L360.55 30.2726L360.693 43.3161H360.35C360.265 40.0194 359.951 37.4967 359.408 35.748C358.866 33.9994 357.923 32.738 356.524 31.9353C355.154 31.1327 353.127 30.6453 350.471 30.416H338.708V54.4389C338.708 56.3309 339.022 57.5636 339.622 58.137C340.221 58.7103 341.278 58.997 342.762 58.997H351.271C355.953 58.825 359.951 57.4203 363.263 54.8116C366.574 52.2029 369.03 47.4442 370.6 40.5354H371Z" fill="white"/>
</g>
<defs>
<clipPath id="clip0_3_142">
<rect width="371" height="60" fill="white"/>
</clipPath>
</defs>
</svg>
